<svg xmlns="http://www.w3.org/2000/svg" xmlns:xlink="http://www.w3.org/1999/xlink" viewBox="0 0 57.16 56.06"><defs><style>.cls-1{fill:url(#linear-gradient);}</style><linearGradient id="linear-gradient" x1="2958.81" y1="-1194.3" x2="3353.39" y2="-1627.24" gradientTransform="matrix(0.07, 0, 0, -0.07, -199.14, -74.64)" gradientUnits="userSpaceOnUse"><stop offset="0" stop-color="#abe94b"/><stop offset="1" stop-color="#65bc46"/></linearGradient></defs><g id="Layer_2" data-name="Layer 2"><g id="Layer_1-2" data-name="Layer 1"><g id="Layer_143" data-name="Layer 143"><path class="cls-1" d="M0,25.89,26.26,0l11,10-1.83,1.71a24.86,24.86,0,0,0-6.84-3.79,8.28,8.28,0,0,0-4.88,0,11.88,11.88,0,0,0-4.89,3.17l-4.15,4a2.78,2.78,0,0,0-1,1.71,1.93,1.93,0,0,0,.61,1.46L24.55,28.83,26,27.48a7.25,7.25,0,0,0,2.44-5.13c0-1.83-1-3.78-2.81-6l1.83-1.84L41.29,28.58l-1.84,1.83C37,28.21,34.93,27.12,33.1,27s-3.66.74-5.5,2.57l-1.22,1.1,11,11.11a1.55,1.55,0,0,0,1.46.61A5.08,5.08,0,0,0,41.16,41l3.67-3.54a11.72,11.72,0,0,0,3.78-8.43c0-3.18-1.34-6.47-4.15-10.14l1.83-1.83,10.87,12-27.36,27-1.83-2,2.69-2.69a2.75,2.75,0,0,0,1-1.83,2.42,2.42,0,0,0-.74-1.71L8.06,24.67a1.69,1.69,0,0,0-1.59-.61A4.68,4.68,0,0,0,4.4,25.41L2,27.73,0,25.9Z"/></g></g></g></svg>