<svg xmlns="http://www.w3.org/2000/svg" xmlns:xlink="http://www.w3.org/1999/xlink" viewBox="0 0 26.45 28.51"><defs><style>.cls-1{stroke:#3bb5b6;stroke-miterlimit:1.65;stroke-width:0.22px;fill:url(#linear-gradient);}</style><linearGradient id="linear-gradient" x1="6470.54" y1="-7446.42" x2="6339.23" y2="-7072.99" gradientTransform="matrix(0.07, 0, 0, -0.07, -447.91, -508.3)" gradientUnits="userSpaceOnUse"><stop offset="0" stop-color="#428de3"/><stop offset="1" stop-color="#3ab4cd"/></linearGradient></defs><g id="Layer_2" data-name="Layer 2"><g id="Layer_1-2" data-name="Layer 1"><g id="Layer_12" data-name="Layer 12"><path class="cls-1" d="M9.51.7a12,12,0,0,1,10,1.12c2.93,1.82,5,4.78,6.14,8.91a14.12,14.12,0,0,1-.84,10.73,12.59,12.59,0,0,1-8.08,6.38A11.91,11.91,0,0,1,6.9,26.7,14,14,0,0,1,.83,18.11a14.79,14.79,0,0,1,.7-11A12.19,12.19,0,0,1,9.51.7ZM9.55,2A7.46,7.46,0,0,0,4.34,7.07q-1.38,4,.21,9.62t4.88,8.39a7.61,7.61,0,0,0,7.24,1.51,7.64,7.64,0,0,0,5.39-5.11q1.41-4-.21-9.68T16.94,3.43A7.85,7.85,0,0,0,9.55,2Z"/></g></g></g></svg>