<svg xmlns="http://www.w3.org/2000/svg" xmlns:xlink="http://www.w3.org/1999/xlink" viewBox="0 0 50.08 37.68"><defs><style>.cls-1{fill:url(#linear-gradient);}</style><linearGradient id="linear-gradient" x1="8835.57" y1="-2978.79" x2="8172.71" y2="-3167.8" gradientTransform="matrix(0.07, 0, 0, -0.07, -591.21, -201.42)" gradientUnits="userSpaceOnUse"><stop offset="0" stop-color="#8fd849"/><stop offset="1" stop-color="#87d347"/></linearGradient></defs><g id="Layer_2" data-name="Layer 2"><g id="Layer_1-2" data-name="Layer 1"><g id="Layer_134" data-name="Layer 134"><path class="cls-1" d="M45.07,22.94l4.4,1.46.61,2L36,30.63l-.73-2.44c3.66-2.44,6.23-5.13,7.57-8.06a11.91,11.91,0,0,0,.73-8.67,9.25,9.25,0,0,0-3.66-5.38,6.55,6.55,0,0,0-5.37-1,5.94,5.94,0,0,0-2.81,1.71,7.19,7.19,0,0,0-1.47,3.54,39.49,39.49,0,0,0,0,7.69,53,53,0,0,1,.12,8.8,13.41,13.41,0,0,1-2.68,6.59,11.54,11.54,0,0,1-5.87,3.67,11.71,11.71,0,0,1-10.13-1.35A18.07,18.07,0,0,1,4.4,25.38,18,18,0,0,1,5.5,12.56L.61,10.48,0,8.4,15.15,4.13l.73,2.44Q4,13.91,7.08,24.89a11.43,11.43,0,0,0,4,6.48,6.68,6.68,0,0,0,5.86,1,5.38,5.38,0,0,0,3.3-2.19,8.74,8.74,0,0,0,1.46-4,51.49,51.49,0,0,0-.24-6.71,43.77,43.77,0,0,1,.36-10.51,10.69,10.69,0,0,1,2.69-5.37A11.68,11.68,0,0,1,29.8.59a12.65,12.65,0,0,1,10.14,1.1c3.06,1.71,5.13,4.88,6.35,9a18.54,18.54,0,0,1-1.22,12.21Z"/></g></g></g></svg>