<svg xmlns="http://www.w3.org/2000/svg" xmlns:xlink="http://www.w3.org/1999/xlink" viewBox="0 0 34.39 34.81"><defs><style>.cls-1{stroke:#3bb5b6;stroke-miterlimit:1.65;stroke-width:0.22px;fill:url(#linear-gradient);}</style><linearGradient id="linear-gradient" x1="4301.66" y1="-7400.23" x2="4424.77" y2="-7026.82" gradientTransform="matrix(0.07, 0, 0, -0.07, -296.75, -502.6)" gradientUnits="userSpaceOnUse"><stop offset="0" stop-color="#428de3"/><stop offset="1" stop-color="#39bbca"/></linearGradient></defs><g id="Layer_2" data-name="Layer 2"><g id="Layer_1-2" data-name="Layer 1"><g id="Layer_7" data-name="Layer 7"><path class="cls-1" d="M8.91.14l2.78,1.09c.62.24,1.15.44,1.58.59s1.15.37,1.91.59l2.91.84-.4,1.19a4,4,0,0,0-2.59-.33c-.45.22-.89,1-1.33,2.27l-2.51,7.44,12.83,4.34,2.52-7.45a4,4,0,0,0,.33-2.58c-.22-.43-1-.87-2.27-1.33l.38-1.2,2.79,1.09c.63.24,1.14.44,1.54.57.55.19,1.22.39,2,.61l2.89.84-.4,1.19a4.35,4.35,0,0,0-2.61-.33c-.42.2-.86.95-1.31,2.27L24,29.56c-.46,1.35-.57,2.23-.33,2.65a4.53,4.53,0,0,0,2.26,1.3l-.4,1.15c-1.25-.5-2.2-.88-2.84-1.12s-1.13-.42-1.5-.54l-1.72-.55c-.71-.21-1.76-.51-3.14-.89l.4-1.18a4,4,0,0,0,2.6.32c.46-.22.9-1,1.34-2.26l3.07-9.08L10.85,15,7.78,24.1a4.19,4.19,0,0,0-.35,2.57c.19.43,1,.89,2.28,1.38L9.32,29.2,6.33,28c-.57-.22-1-.38-1.33-.49S4,27.21,3.24,27s-1.76-.52-3.1-.89l.4-1.17a4.08,4.08,0,0,0,2.58.33c.45-.21.89-1,1.34-2.28l6-17.73c.44-1.32.56-2.2.33-2.6A4.45,4.45,0,0,0,8.51,1.34l.4-1.2Z"/></g></g></g></svg>