<svg xmlns="http://www.w3.org/2000/svg" xmlns:xlink="http://www.w3.org/1999/xlink" viewBox="0 0 32.37 28.97"><defs><style>.cls-1{stroke:#3bb5b6;stroke-miterlimit:1.65;stroke-width:0.22px;fill:url(#linear-gradient);}</style><linearGradient id="linear-gradient" x1="7395.6" y1="-6936.49" x2="7174.01" y2="-6616.42" gradientTransform="matrix(0.07, 0, 0, -0.07, -508.22, -476.05)" gradientUnits="userSpaceOnUse"><stop offset="0" stop-color="#428de3"/><stop offset="1" stop-color="#3ab2ce"/></linearGradient></defs><g id="Layer_2" data-name="Layer 2"><g id="Layer_1-2" data-name="Layer 1"><g id="Layer_14" data-name="Layer 14"><path class="cls-1" d="M.15,5.71l2.63-1.5q.93-.54,1.5-.9c.6-.39,1.28-.84,2-1.35S7.91.85,8.87.15l.68,1.07-.45.29c-1.2.76-1.86,1.37-2,1.83s.18,1.29,1,2.49L19.79,24.24l5.43-3.46c2.21-1.4,3.45-2.76,3.73-4.06s-.29-3.3-1.69-6l1-.63c.48.74,1.46,2.61,3,5.63.43.87.77,1.54,1,2L27.06,21l-3.74,2.35Q20.74,25,15.25,28.58l-.38.24-.65-1c1.13-.72,1.76-1.32,1.87-1.8s-.19-1.31-.94-2.49L5.1,7.72C4.35,6.54,3.74,5.9,3.27,5.83a4.48,4.48,0,0,0-2.44.94L.15,5.71Z"/></g></g></g></svg>