<svg xmlns="http://www.w3.org/2000/svg" xmlns:xlink="http://www.w3.org/1999/xlink" viewBox="0 0 384.02 384.14"><defs><style>.cls-1{fill:url(#linear-gradient);}.cls-2{fill:#7fc042;}.cls-3{fill:#7fc342;}.cls-4{fill:#69af44;}.cls-5{fill:#58a145;}.cls-6{fill:#62a844;}.cls-7{fill:#61a845;}.cls-8{fill:#57ad47;}.cls-9{fill:#4b9a44;}.cls-10{fill:#58a245;}.cls-11{fill:#5aa144;}.cls-12{fill:#50a245;}.cls-13{fill:#4aa346;}.cls-14{fill:#4ca847;}.cls-15{fill:#529f45;}.cls-16{fill:#569e44;}.cls-17{fill:#5ba444;}.cls-18{fill:#49a346;}.cls-19{fill:#57a044;}.cls-20{fill:#56a545;}.cls-21{fill:#60a544;}.cls-22{fill:#6fb544;}.cls-23{fill:#78c145;}.cls-24{fill:#79ba43;}.cls-25{fill:#60ad45;}.cls-26{fill:#72b944;}.cls-27{fill:#78b943;}.cls-28{fill:#7abb43;}.cls-29{fill:#70b744;}.cls-30{fill:#76bf43;}.cls-31{fill:#65b245;}.cls-32{fill:#63b146;}.cls-33{fill:#61a945;}.cls-34{fill:#64aa44;}.cls-35{fill:#629c42;}.cls-36{fill:#69b945;}.cls-37{fill:#62ac45;}.cls-38{fill:#59ab46;}.cls-39{fill:#5ba945;}.cls-40{fill:#61ab45;}.cls-41{fill:#62ae45;}.cls-42{fill:#6ca442;}.cls-43{fill:#67af45;}.cls-44{fill:#69b044;}.cls-45{fill:#66ae45;}.cls-46{fill:#5db046;}.cls-47{fill:#67a443;}.cls-48{fill:#5a9140;}.cls-49{fill:#619841;}.cls-50{fill:#55a746;}.cls-51{fill:#50a847;}.cls-52{fill:#5fa845;}.cls-53{fill:#61b146;}.cls-54{fill:#65ab45;}.cls-55{fill:#66ab44;}.cls-56{fill:#68af44;}.cls-57{fill:#5ba244;}.cls-58{fill:#5cae46;}.cls-59{fill:#5da945;}.cls-60{fill:#5ba645;}.cls-61{fill:#6bb044;}.cls-62{fill:#78c143;}.cls-63{fill:#77c153;}.cls-64{fill:#77b743;}.cls-65{fill:#6fb844;}.cls-66{fill:#75bb43;}.cls-67{fill:#73b644;}.cls-68{fill:#78be43;}.cls-69{fill:#78bc43;}.cls-70{fill:#7fb342;}.cls-71{fill:#75be43;}.cls-72{fill:#74b243;}.cls-73{fill:#5e9941;}.cls-74{fill:#70b944;}.cls-75{fill:#6fb444;}.cls-76{fill:#6ab745;}.cls-77{fill:#6bb745;}.cls-78{fill:#65b045;}.cls-79{fill:#62a945;}.cls-80{fill:#6caf44;}.cls-81{fill:#6da84a;}.cls-82{fill:#579642;}.cls-83{fill:#67a844;}.cls-84{fill:#64af45;}.cls-85{fill:#489b45;}.cls-86{fill:#569c43;}.cls-87{fill:#4a9f45;}.cls-88{fill:#4c9844;}.cls-89{fill:#4c9d45;}.cls-90{fill:#519e45;}.cls-91{fill:#4f9c44;}.cls-92{fill:#599942;}.cls-93{fill:#4b9c45;}.cls-94{fill:#4d9141;}.cls-95{fill:#64ad45;}.cls-96{fill:#65b946;}.cls-97{fill:#64b846;}.cls-98{fill:#73bc44;}.cls-99{fill:#70b844;}.cls-100{fill:#70bf44;}.cls-101{fill:#79aa41;}.cls-102{fill:#81c341;}.cls-103{fill:#83c447;}.cls-104{fill:#85c443;}.cls-105{fill:#86c440;}.cls-106{fill:#82c341;}.cls-107{fill:#7fc344;}.cls-108{fill:#79c143;}</style><linearGradient id="linear-gradient" x1="5584.3" y1="-6449.37" x2="5635.19" y2="-1122.51" gradientTransform="matrix(0.07, 0, 0, -0.07, -211.94, -74.83)" gradientUnits="userSpaceOnUse"><stop offset="0" stop-color="#b7ea51"/><stop offset="1" stop-color="#429521"/></linearGradient></defs><g id="Layer_2" data-name="Layer 2"><g id="Layer_1-2" data-name="Layer 1"><g id="Layer_18" data-name="Layer 18"><path class="cls-1" d="M192,0C86,0,0,86,0,192.13s86,192,192,192,192-86,192-192S298,0,192,0ZM362.4,143.15c-1.46,31.76-23.45,44.22-64,48.49-43,4.65-64,31.4-64,31.4,11.72-38.6,21-62.42,74.75-76.47,36-9.4,42-23.94,42-32.37a159.58,159.58,0,0,1,11.24,29ZM299.13,50.81c2.2,3.91,5.74,10.38,10,19.79,7.94,17.1-6,27.73-11.48,30.41s-25.53,6.35-39.94,2.81S223,99.67,223,99.67c-59.37-3.18-58.75,46.17-58.75,46.17-9.9-10.26-27-65.84,7.81-92.71,28-21.49,81.35-19.79,101.5-18.32a166.48,166.48,0,0,1,25.53,16ZM140.34,22.47a177.88,177.88,0,0,1,117.14,4.77c-20.64-1.47-60.22-2.08-84.77,12.46-34.32,20.27-34.2,67.54-34.2,67.54s-4.15,18.2,23.21,57.17,1.34,66.32,1.34,66.32-5.49-16.12-10.5-22.84S139,187,110.3,169.05s-29.68-36.64-29.68-36.64C77,64.62,112.74,35.06,140.34,22.48Zm48.25,177.11c32.49,55.58-30.9,94.54-30.9,94.54,11.11-21,8.3-46,8.3-46,24.68-19.06,22.6-48.5,22.6-48.5Zm-87-160C43.85,94.05,72.43,153.66,72.43,153.66A75.73,75.73,0,0,0,101.14,183C121.41,194.7,136.68,212,136.68,212,112.25,193.35,98.33,195.19,55.09,184c-23.58-6.11-31.27-24.8-33.47-40.67A177.37,177.37,0,0,1,101.62,39.57ZM56.8,307.8l2.07,2.08A14.92,14.92,0,0,1,56.8,307.8ZM14.78,192A178.69,178.69,0,0,1,18,158.42c3.17,27.24,29.43,40.07,66.08,45.2,38.84,5.49,55.94,22.35,64.49,41.52s2.2,52-31.88,72.07c-24.55,14.41-44.83,3.05-54.36-4.4A176.66,176.66,0,0,1,14.78,192ZM91.24,337.85c33.84-4.15,60.22-19.05,90.14-45.56,31.15-27.6,29.32-70.11,29.32-70.11s-1-18.93-10.75-30.05-20.28-28.7-20.28-28.7c-13.8-30.17,8.68-44.83,8.68-44.83a64.57,64.57,0,0,1,47.76-8.3c27.48,6,49,2.32,49,2.32,45.07-7.94,32-40.56,25.4-52.53a178.1,178.1,0,0,1,34.81,42.75c.49,21.14-12.7,23.7-22.11,26.75-9.89,3.18-34.2,9.9-34.2,9.9-69.37,24.3-71.33,116.77-71.33,116.77-28.21,72.18-82.08,91.85-100.16,96.61a173.89,173.89,0,0,1-26.26-15ZM192,369.24a176.69,176.69,0,0,1-54.23-8.43c37.13-13.8,53.86-38.72,53.86-38.72,8.07,16.37,33.47,36.4,41.41,42.39a175,175,0,0,1-41,4.76Zm62.66-11.36c-30.9-8.18-54.35-46.41-54.35-46.41a137.64,137.64,0,0,0,20.27-31.15c14.54,49.23,56.8,56.92,71.7,57.9a177.36,177.36,0,0,1-37.62,19.66Zm62.78-40.55a88.5,88.5,0,0,1-21.37,6.47c-60.22-3.66-65.72-60.09-65.72-60.09s2.2-51.42,72.92-61.93c51.55-7.57,61-32.61,62.18-45.68A174.07,174.07,0,0,1,369.12,192a176.24,176.24,0,0,1-51.67,125.32Z"/><path class="cls-2" d="M95.39,229.39C86.84,236,74,233.54,74,233.54s1.1-12.95,9.65-19.54S105,209.84,105,209.84,104.07,222.91,95.39,229.39Z"/><path class="cls-3" d="M52.28,220.1c-8.55,6.6-21.38,4.16-21.38,4.16s1.1-12.95,9.65-19.55,21.38-4.15,21.38-4.15S60.83,213.51,52.28,220.1Z"/><path class="cls-4" d="M45.44,136.68c-7.7-7-7.82-19.54-7.82-19.54s12.58-1.23,20.28,5.74,7.81,19.54,7.81,19.54-12.46,1.22-20.27-5.74Z"/><path class="cls-5" d="M122.63,74.26c-6-7.33-4-18.68-4-18.68s11.61.36,17.47,7.69,4,18.69,4,18.69S128.62,81.59,122.63,74.26Z"/><path class="cls-6" d="M43.48,114c-2.56-2.32-2.56-6.6-2.56-6.6s4.15-.36,6.84,2,2.56,6.6,2.56,6.6-4.15.36-6.84-2Z"/><path class="cls-7" d="M59.24,90c-2.08-2.81-1.1-7-1.1-7s4.15.49,6.23,3.3,1.1,7,1.1,7-4.28-.49-6.23-3.3Z"/><path class="cls-8" d="M112.25,77.44c-3.18,1.59-7.08,0-7.08,0s1.1-4,4.27-5.62,7.09,0,7.09,0S115.3,75.85,112.25,77.44Z"/><path class="cls-9" d="M116.53,50.93c-3.42.61-6.72-2-6.72-2s2.2-3.54,5.62-4.15,6.72,2,6.72,2S120,50.2,116.53,50.93Z"/><path class="cls-10" d="M184.56,59.48C178.21,58.38,172.1,63,172.1,63s4.15,6.59,10.51,7.69,12.45-3.54,12.45-3.54-4.15-6.47-10.5-7.7Z"/><path class="cls-11" d="M201.54,73.53c-3.67-.37-7,2.44-7,2.44s2.56,3.55,6.23,3.91,7-2.44,7-2.44-2.57-3.54-6.23-3.91Z"/><path class="cls-12" d="M212.78,61.56c-3.42-1.1-7.33,1-7.33,1s1.83,4,5.25,5.13,7.33-1,7.33-1-1.83-4-5.25-5.13Z"/><path class="cls-13" d="M224.75,57.41a6.87,6.87,0,0,0-4.89-.61s.37,2.93,2.44,4.27a6.87,6.87,0,0,0,4.89.61S226.7,58.75,224.75,57.41Z"/><path class="cls-14" d="M237.2,52.16c-2.68-2.08-6.84-1.47-6.84-1.47s.25,4.15,3.06,6.35,6.84,1.47,6.84,1.47S239.89,54.23,237.2,52.16Z"/><path class="cls-15" d="M261.51,51.18c-1.95-1.59-5-1.1-5-1.1s.25,3.05,2.2,4.64,5,1.1,5,1.1S263.47,52.77,261.51,51.18Z"/><path class="cls-16" d="M294.73,52.89A6.88,6.88,0,0,0,290.09,55a7.27,7.27,0,0,0,4.52,2.45,6.85,6.85,0,0,0,4.64-2.08s-2.07-2.32-4.52-2.44Z"/><path class="cls-17" d="M301.21,62.78c-4.77-2.69-10.87-.61-10.87-.61s1.46,6.35,6.23,9,10.87.61,10.87.61S305.85,65.47,301.21,62.78Z"/><path class="cls-18" d="M279.34,52.77c-2.32-2.94-6.71-3.3-6.71-3.3s-.74,4.4,1.46,7.45,6.72,3.3,6.72,3.3S281.67,55.7,279.34,52.77Z"/><path class="cls-19" d="M252.47,54.84c-2.44-3.42-7.45-4-7.45-4s-1.1,5,1.35,8.43,7.45,4,7.45,4,1.1-5-1.35-8.43Z"/><path class="cls-20" d="M107.61,69.87c-5,1.95-10.87-1-10.87-1s2.32-6.11,7.45-8.06,10.87,1,10.87,1-2.44,6.11-7.45,8.07Z"/><path class="cls-21" d="M51.67,109.07c-4.16-5.49-2.57-13.68-2.57-13.68s8.31.74,12.34,6.23S64,115.3,64,115.3,55.82,114.57,51.67,109.07Z"/><path class="cls-22" d="M56.68,161.6C48.74,159,44.58,150,44.58,150s8.67-5,16.49-2.44,12.09,11.6,12.09,11.6S64.49,164,56.68,161.6Z"/><path class="cls-23" d="M30.29,201.9c-6.35.86-12.33-4-12.33-4s4.39-6.47,10.74-7.33,12.34,4,12.34,4S36.64,200.93,30.29,201.9Z"/><path class="cls-24" d="M52.4,176c-.12-3,2.44-5.74,2.44-5.74s2.93,2.32,3.06,5.5-2.45,5.74-2.45,5.74S52.52,179.06,52.4,176Z"/><path class="cls-25" d="M32.49,157.93c1.34-2.81,4.89-3.91,4.89-3.91s1.46,3.42.12,6.23-4.89,3.91-4.89,3.91S31.15,160.74,32.49,157.93Z"/><path class="cls-26" d="M29,145.6c2.2-3.79,7.33-4.89,7.33-4.89s1.59,5-.61,8.79-7.33,4.89-7.33,4.89-1.59-5,.61-8.79Z"/><path class="cls-27" d="M39.33,166.6c.24-4.39,4.52-7.69,4.52-7.69s3.66,3.79,3.42,8.18-4.52,7.7-4.52,7.7S39,171,39.33,166.6Z"/><path class="cls-28" d="M60.83,176.86c-1.59-6,2.44-12.33,2.44-12.33s6.6,3.42,8.31,9.4-2.45,12.34-2.45,12.34-6.71-3.42-8.3-9.41Z"/><path class="cls-29" d="M104.56,148.89c.73-9.28,9.52-16.12,9.52-16.12s7.7,8.06,7,17.35-9.53,16.12-9.53,16.12S103.82,158.18,104.56,148.89Z"/><path class="cls-26" d="M126.54,170.27c-.24-7.21,5.86-13.32,5.86-13.32s6.6,5.62,7,12.83-5.87,13.31-5.87,13.31-6.59-5.74-7-12.82Z"/><path class="cls-30" d="M146.94,188c.85-7.08,7.94-12.09,7.94-12.09s5.62,6.59,4.76,13.68-7.94,12.09-7.94,12.09S146.08,195.19,146.94,188Z"/><path class="cls-31" d="M89.9,127.52c3.78-6.6,12.7-8.55,12.7-8.55s2.81,8.67-1,15.27-12.7,8.55-12.7,8.55-2.81-8.8,1-15.27Z"/><path class="cls-32" d="M87.33,106.63c4.64-3.91,12-2.93,12-2.93s-.24,7.33-4.88,11.24-12,2.93-12,2.93.24-7.33,4.88-11.24Z"/><path class="cls-33" d="M105.65,101.87c2.08-3.54,7-4.64,7-4.64s1.46,4.76-.61,8.3-7,4.64-7,4.64-1.46-4.76.61-8.3Z"/><path class="cls-34" d="M109.93,119.21c2.08-3.54,7-4.64,7-4.64s1.47,4.76-.61,8.31-7,4.64-7,4.64S107.85,122.75,109.93,119.21Z"/><path class="cls-35" d="M158.54,95.64c3.91-1.34,8.31,1,8.31,1s-2,4.64-5.86,6-8.31-1-8.31-1S154.63,97,158.54,95.64Z"/><path class="cls-36" d="M184.32,131.79c2.81-2.2,7.08-1.59,7.08-1.59s-.24,4.28-3.05,6.6-7.09,1.59-7.09,1.59S181.51,134.11,184.32,131.79Z"/><path class="cls-37" d="M166.73,111.76c.12-4.52,4.27-7.94,4.27-7.94s3.91,3.79,3.67,8.19-4.28,7.94-4.28,7.94S166.48,116.28,166.73,111.76Z"/><path class="cls-25" d="M180.53,93.56c3.91-5.49,12-6.47,12-6.47s1.83,7.94-2.08,13.43-12,6.48-12,6.48S176.62,99.06,180.53,93.56Z"/><path class="cls-38" d="M214.36,83.18c4-5.62,12.22-6.72,12.22-6.72s1.83,8.19-2.2,13.8S212.16,97,212.16,97,210.45,88.92,214.36,83.18Z"/><path class="cls-39" d="M247,82c6.84-5.74,17.58-4.4,17.58-4.4s-.36,10.87-7.2,16.61-17.59,4.4-17.59,4.4S240.14,87.7,247,82Z"/><path class="cls-33" d="M289.6,85.62c3.3-6.72,11.85-9.28,11.85-9.28s3.3,8.31.13,15-11.85,9.29-11.85,9.29-3.42-8.31-.13-15Z"/><path class="cls-40" d="M199.22,88.68c2.07-3.79,7.2-5,7.2-5s1.71,4.88-.36,8.67-7.21,5-7.21,5S197.14,92.46,199.22,88.68Z"/><path class="cls-41" d="M212.9,112.37c3.78,1.47,5.49,6,5.49,6s-4.27,2.2-8.06.73-5.49-6-5.49-6,4.39-2.08,8.06-.74Z"/><path class="cls-42" d="M224,125.32c2.45,1.47,2.93,4.89,2.93,4.89s-3.29,1-5.61-.62-2.94-4.88-2.94-4.88,3.3-.86,5.62.61Z"/><path class="cls-43" d="M260.41,117.75c4.77,3.91,5.13,11.36,5.13,11.36s-7.33,1.1-12.21-2.81-5.13-11.36-5.13-11.36S255.65,113.84,260.41,117.75Z"/><path class="cls-44" d="M235.86,116.16c4.52,4,4.64,11.24,4.64,11.24s-7.2.73-11.72-3.18S224.14,113,224.14,113,231.34,112.13,235.86,116.16Z"/><path class="cls-32" d="M279,118.72c2.69,3.42,1.83,8.55,1.83,8.55s-5.13-.36-7.82-3.78-1.83-8.55-1.83-8.55S276.29,115.3,279,118.72Z"/><path class="cls-45" d="M294,114.69c3.79,2.08,5,7.09,5,7.09s-4.89,1.71-8.67-.37-5-7.08-5-7.08,4.88-1.59,8.67.36Z"/><path class="cls-46" d="M311.35,109.07c3,1.59,4.15,5.62,4.15,5.62s-3.91,1.47-7-.12-4.16-5.62-4.16-5.62S308.29,107.49,311.35,109.07Z"/><path class="cls-47" d="M320.14,96.49c4.52-1,9,2.2,9,2.2s-2.81,4.77-7.21,5.74-9-2.2-9-2.2S315.62,97.47,320.14,96.49Z"/><path class="cls-48" d="M322.22,89.53c2.32-.85,5,.61,5,.61S326,93,323.68,93.68s-5-.61-5-.61A7.42,7.42,0,0,1,322.22,89.53Z"/><path class="cls-49" d="M321.12,81.47c1.34-1.71,4-1.83,4-1.83a6,6,0,0,1-1.1,4.27c-1.34,1.71-4,1.83-4,1.83S319.77,83.06,321.12,81.47Z"/><path class="cls-50" d="M234.64,72.68c3.05-3.06,8.31-2.81,8.31-2.81s.24,5.25-2.81,8.3S231.83,81,231.83,81s-.24-5.25,2.81-8.3Z"/><path class="cls-51" d="M278.25,73.53c3.05-2.69,7.81-2.2,7.81-2.2s0,4.89-3.05,7.57-7.82,2.2-7.82,2.2S275.19,76.22,278.25,73.53Z"/><path class="cls-52" d="M270.06,90.14c4.4-3.66,11.24-2.56,11.24-2.56s-.37,7-4.77,10.5-11.23,2.57-11.23,2.57.24-6.84,4.76-10.51Z"/><path class="cls-53" d="M301.21,125c2.44-2.81,7-2.93,7-2.93s.49,4.52-1.95,7.33-7,2.93-7,2.93S298.77,127.76,301.21,125Z"/><path class="cls-54" d="M326.25,118.36c1.1-3.67,5.13-5.62,5.13-5.62s2.32,3.91,1.34,7.45-5.13,5.62-5.13,5.62-2.44-3.79-1.34-7.45Z"/><path class="cls-55" d="M334.19,109.69c.12-5.26,4.88-9.53,4.88-9.53s4.64,4.4,4.52,9.65-4.88,9.52-4.88,9.52S334.07,114.94,334.19,109.69Z"/><path class="cls-56" d="M313.79,118.85c2.93-4.52,9.4-5.62,9.4-5.62s1.71,6.35-1.22,10.87-9.4,5.62-9.4,5.62-1.71-6.36,1.22-10.87Z"/><path class="cls-57" d="M255,69.5c2.32-1.59,5.62-.73,5.62-.73s-.49,3.42-2.93,4.88-5.62.74-5.62.74.61-3.3,2.93-4.89Z"/><path class="cls-58" d="M93.93,82.45c5.62-3.55,13.44-1.22,13.44-1.22s-1.47,7.93-7.21,11.36-13.44,1.22-13.44,1.22S88.19,86,93.93,82.45Z"/><path class="cls-59" d="M128.13,87.94c-7.08-4.39-16.73-1.58-16.73-1.58s1.83,9.89,8.91,14.29,16.74,1.58,16.74,1.58-1.84-9.89-8.92-14.29Z"/><path class="cls-60" d="M171,72.31c10.39-3,21.5,3.66,21.5,3.66s-5.74,11.73-16.12,14.78-21.5-3.66-21.5-3.66S160.62,75.36,171,72.31Z"/><path class="cls-61" d="M187.25,144.74c6-7.21,17.34-7.82,17.34-7.82s1.59,11.24-4.39,18.57-17.35,7.82-17.35,7.82-1.59-11.24,4.4-18.57Z"/><path class="cls-62" d="M213.63,180c6,7.21,17.35,7.82,17.35,7.82s1.58-11.24-4.4-18.57-17.35-7.82-17.35-7.82S207.65,172.71,213.63,180Z"/><path class="cls-63" d="M255.77,199.58c4-1,6.6-5.37,6.6-5.37s-4.16-2.93-8.19-2-6.59,5.38-6.59,5.38,4.15,2.93,8.18,2Z"/><path class="cls-64" d="M263.83,184.07c4-1,6.6-5.37,6.6-5.37s-4.16-2.93-8.19-2-6.59,5.38-6.59,5.38,4.15,2.93,8.18,1.95Z"/><path class="cls-65" d="M280.44,172.1c5.74-.37,10.14-5.86,10.14-5.86s-4.88-5-10.62-4.77-10.14,5.87-10.14,5.87S274.7,172.47,280.44,172.1Z"/><path class="cls-66" d="M297.79,164.65c5.74.86,11.11-3.54,11.11-3.54s-3.78-6-9.4-6.84-11.12,3.54-11.12,3.54,3.67,5.86,9.41,6.84Z"/><path class="cls-67" d="M225.85,157.2c2.8,6.84,11.11,9.89,11.11,9.89s3.79-8.06,1-14.9-11.12-9.89-11.12-9.89-3.78,8.06-1,14.9Z"/><path class="cls-68" d="M281.79,188.59c4.27-6,2.32-14.78,2.32-14.78s-8.8,1.1-13.07,7.21-2.32,14.78-2.32,14.78,8.91-1.22,13.07-7.21Z"/><path class="cls-69" d="M314.64,175.77c2.94-6.84-.85-14.91-.85-14.91s-8.43,2.94-11.24,9.78.86,14.9.86,14.9S311.83,182.61,314.64,175.77Z"/><path class="cls-66" d="M298.4,183.83c1.22-4.64-2-9.41-2-9.41s-5.13,2.69-6.23,7.21,2,9.4,2,9.4S297.18,188.35,298.4,183.83Z"/><path class="cls-70" d="M324.29,179.43c1.22-4.64-2-9.41-2-9.41s-5.13,2.69-6.23,7.21,1.95,9.41,1.95,9.41,5-2.57,6.23-7.21Z"/><path class="cls-71" d="M335.29,178.09c1-3.79-1.59-7.7-1.59-7.7s-4.15,2.2-5.13,5.86,1.59,7.7,1.59,7.7,4.15-2.2,5.13-5.86Z"/><path class="cls-72" d="M331.13,164.16c0-3.91-3.42-7-3.42-7s-3.42,3.18-3.42,7,3.42,7,3.42,7S331.13,168,331.13,164.16Z"/><path class="cls-73" d="M337.36,158.42c0-2.69-2.44-5-2.44-5s-2.44,2.2-2.44,4.89,2.44,5,2.44,5a7.29,7.29,0,0,0,2.44-4.89Z"/><path class="cls-74" d="M345.18,168.44c-.37-4.4-4.52-7.7-4.52-7.7s-3.66,3.91-3.3,8.31,4.52,7.69,4.52,7.69,3.67-3.91,3.3-8.3Z"/><path class="cls-29" d="M353.73,153.29c-2.32-6.23-9.77-9.16-9.77-9.16s-3.66,7.08-1.34,13.31,9.77,9.16,9.77,9.16,3.66-7.2,1.34-13.31Z"/><path class="cls-75" d="M359,141.93c-2.2-4.15-7.81-5.5-7.81-5.5s-2,5.38.36,9.53,7.82,5.5,7.82,5.5S361.18,146.08,359,141.93Z"/><path class="cls-76" d="M243.43,146.21c.25,7.81,7.45,13.92,7.45,13.92s6.84-6.6,6.6-14.41S250,131.79,250,131.79s-6.84,6.6-6.6,14.42Z"/><path class="cls-77" d="M264,136.56c-1.83,5,1.23,10.75,1.23,10.75s6-2.45,7.81-7.58S271.77,129,271.77,129,265.79,131.55,264,136.56Z"/><path class="cls-78" d="M284.47,129.84c-1.71,3-.48,7-.48,7s4-.85,5.74-3.91.49-7,.49-7S286.18,126.79,284.47,129.84Z"/><path class="cls-79" d="M309.64,150.73c-2.32-1-5.13.24-5.13.24s1,2.93,3.29,3.91,5.13-.25,5.13-.25-1-2.93-3.29-3.9Z"/><path class="cls-80" d="M335.41,142.18c-2.69-1.23-5.86.24-5.86.24s1.1,3.3,3.78,4.52,5.87-.25,5.87-.25S338.1,143.4,335.41,142.18Z"/><path class="cls-81" d="M344.69,135.09c-2.81-.85-5.86.86-5.86.86s1.46,3.17,4.27,4.15,5.87-.86,5.87-.86S347.5,136,344.69,135.09Z"/><path class="cls-82" d="M351.41,126.79a6.43,6.43,0,0,0-4,2,6.51,6.51,0,0,0,3.91,2.08,6.42,6.42,0,0,0,4-2,5.89,5.89,0,0,0-3.91-2.07Z"/><path class="cls-83" d="M322.09,147.43c-3.54-2.08-8.3-.61-8.3-.61s1,4.88,4.52,7,8.3.61,8.3.61-1-4.89-4.52-7Z"/><path class="cls-84" d="M202.27,119.09c6.35,1.34,10.38,8.18,10.38,8.18s-6.35,4.65-12.82,3.3-10.38-8.18-10.38-8.18S195.8,117.75,202.27,119.09Z"/><path class="cls-85" d="M144.5,42.38c-2.93-6.84-11.24-9.77-11.24-9.77s-3.79,8.06-.85,14.9,11.23,9.77,11.23,9.77S147.31,49.22,144.5,42.38Z"/><path class="cls-86" d="M163.31,36.28c-.49-7.82-7.94-13.68-7.94-13.68s-6.6,6.84-6.11,14.65,7.94,13.68,7.94,13.68,6.6-6.84,6.11-14.65Z"/><path class="cls-15" d="M200.07,44.46c-7.57-1.83-15.51,3.42-15.51,3.42s4.52,8.31,12.22,10.14,15.51-3.42,15.51-3.42-4.64-8.31-12.22-10.14Z"/><path class="cls-87" d="M177.72,29c.12-5-4.15-9.28-4.15-9.28s-4.64,3.9-4.77,8.91S173,37.86,173,37.86,177.6,34,177.72,29Z"/><path class="cls-88" d="M192.38,27.6c2.68-3.66,1.71-9.16,1.71-9.16s-5.5.49-8.31,4.28-1.71,9.16-1.71,9.16S189.69,31.27,192.38,27.6Z"/><path class="cls-13" d="M219.25,43.73c4,2.32,5.13,7.69,5.13,7.69s-5.25,1.71-9.28-.61S210,43.12,210,43.12,215.22,41.41,219.25,43.73Z"/><path class="cls-89" d="M234,38.11c5.13,2.56,7,9.16,7,9.16s-6.47,2.44-11.6-.12-7-9.16-7-9.16S228.9,35.54,234,38.11Z"/><path class="cls-90" d="M251.74,42.51c2.81,3.29,2.2,8.42,2.2,8.42s-5.25-.12-8.06-3.42-2.2-8.42-2.2-8.42S248.93,39.33,251.74,42.51Z"/><path class="cls-91" d="M264.57,39c3.9,3.18,4.39,9.29,4.39,9.29s-6,1-10-2.2-4.4-9.28-4.4-9.28S260.53,35.79,264.57,39Z"/><path class="cls-92" d="M278,41.41c2.57,2.56,2.32,6.84,2.32,6.84s-4.27.24-6.84-2.32-2.32-6.84-2.32-6.84,4.28-.13,6.84,2.32Z"/><path class="cls-93" d="M204.23,24.92c2.19-2.45,1.83-6.23,1.83-6.23s-3.91,0-6.11,2.44-1.83,6.23-1.83,6.23,3.91,0,6.11-2.44Z"/><path class="cls-94" d="M214.73,24.43a7.25,7.25,0,0,0,1.34-4.76s-2.93,0-4.52,1.83a7.31,7.31,0,0,0-1.34,4.76S213.14,26.14,214.73,24.43Z"/><path class="cls-95" d="M132.89,113c-4.76-2.93-11.23-1.1-11.23-1.1s1.22,6.6,6,9.53,11.24,1.1,11.24,1.1S137.66,115.91,132.89,113Z"/><path class="cls-96" d="M135.82,131.18c-5.37-1.34-11,2.32-11,2.32s3.18,6,8.55,7.33,11-2.32,11-2.32S141.2,132.53,135.82,131.18Z"/><path class="cls-97" d="M130.33,142.42c-3.79-1.34-8.06.85-8.06.85s1.83,4.52,5.62,5.87,8.06-.86,8.06-.86-1.83-4.52-5.62-5.86Z"/><path class="cls-98" d="M144.5,170.76c-1.22,3.78,1.1,8.06,1.1,8.06s4.39-2,5.74-5.74-1.1-8.06-1.1-8.06S145.72,167,144.5,170.76Z"/><path class="cls-99" d="M145.23,148.53c-5.37-1.1-10.75,2.68-10.75,2.68s3.3,5.74,8.67,6.84,10.75-2.68,10.75-2.68-3.3-5.74-8.67-6.84Z"/><path class="cls-100" d="M75.24,181.75c-.49-4.15,2.81-7.82,2.81-7.82s4,2.93,4.52,7-2.81,7.81-2.81,7.81S75.85,185.9,75.24,181.75Z"/><path class="cls-101" d="M84.77,184.93c-1.71-4.52.85-9.65.85-9.65s5.38,2.07,7.09,6.59-.86,9.65-.86,9.65S86.48,189.45,84.77,184.93Z"/><path class="cls-102" d="M75.24,216.19c-4.4,4.28-11.72,3.79-11.72,3.79s-.25-7.33,4.15-11.6,11.73-3.79,11.73-3.79.24,7.33-4.16,11.6Z"/><path class="cls-103" d="M119.09,232.07c-5.5,2.69-12.34,0-12.34,0s2.08-7.08,7.58-9.77,12.33,0,12.33,0S124.59,229.26,119.09,232.07Z"/><path class="cls-104" d="M287.16,226.7c7.45,5.74,18.69,3.66,18.69,3.66s-1-11.36-8.43-17.1-18.69-3.66-18.69-3.66S279.59,221,287.16,226.7Z"/><path class="cls-105" d="M265.3,232.44c5.49,2.69,12.33,0,12.33,0s-2.07-7.08-7.57-9.77-12.34,0-12.34,0S259.8,229.63,265.3,232.44Z"/><path class="cls-106" d="M331,217.42c7.45,5.74,18.69,3.66,18.69,3.66s-1-11.36-8.43-17.1-18.69-3.66-18.69-3.66S323.44,211.68,331,217.42Z"/><path class="cls-107" d="M309.64,216.32c4.15,4.52,11.48,4.52,11.48,4.52s.73-7.33-3.42-11.85-11.48-4.52-11.48-4.52S305.48,211.8,309.64,216.32Z"/><path class="cls-108" d="M354.46,201.54c6,1.22,12-3.18,12-3.18s-3.78-6.35-9.77-7.57-12,3.17-12,3.17,3.67,6.36,9.77,7.58Z"/></g></g></g></svg>