<svg xmlns="http://www.w3.org/2000/svg" xmlns:xlink="http://www.w3.org/1999/xlink" viewBox="0 0 34.02 45.07"><defs><style>.cls-1{fill:url(#linear-gradient);}</style><linearGradient id="linear-gradient" x1="5150.84" y1="-57.12" x2="5250.17" y2="-735.43" gradientTransform="matrix(0.07, 0, 0, -0.07, -358.36, -2.36)" gradientUnits="userSpaceOnUse"><stop offset="0" stop-color="#96dc49"/><stop offset="1" stop-color="#76c747"/></linearGradient></defs><g id="Layer_2" data-name="Layer 2"><g id="Layer_1-2" data-name="Layer 1"><g id="Layer_140" data-name="Layer 140"><path class="cls-1" d="M25,4,27.39.12,29.47,0l1.22,14.53-2.57.13a19.81,19.81,0,0,0-6.35-9,11.79,11.79,0,0,0-8.3-2.57,8.71,8.71,0,0,0-6,2.45,6.45,6.45,0,0,0-2.07,5.13,6.55,6.55,0,0,0,1.09,3,7.1,7.1,0,0,0,3.18,2.2,34,34,0,0,0,7.45,1.59,50,50,0,0,1,8.67,1.71,13.19,13.19,0,0,1,5.87,4A11.29,11.29,0,0,1,34,29.68a11.88,11.88,0,0,1-3.42,9.65,17.89,17.89,0,0,1-11.73,5A18.52,18.52,0,0,1,6.5,40.55l-3,4.4-2.08.12L.28,29.44l2.56-.13C5.89,38.11,11.27,42.14,19,41.65c3.18-.24,5.5-1.1,7.09-2.69a7,7,0,0,0,.85-9.28,7.7,7.7,0,0,0-3.66-2.2,56.23,56.23,0,0,0-6.6-1.22A45.1,45.1,0,0,1,6.51,23.82a11,11,0,0,1-4.64-3.67A11.45,11.45,0,0,1,0,14.41,12.77,12.77,0,0,1,3.21,4.76C5.65,2.2,9,.73,13.35.37A17.45,17.45,0,0,1,25,4Z"/></g></g></g></svg>