<svg xmlns="http://www.w3.org/2000/svg" xmlns:xlink="http://www.w3.org/1999/xlink" viewBox="0 0 33.15 35.21"><defs><style>.cls-1{stroke:#3bb5b6;stroke-miterlimit:1.65;stroke-width:0.22px;fill:url(#linear-gradient);}</style><linearGradient id="linear-gradient" x1="3327.7" y1="-6756" x2="3553.4" y2="-6464.65" gradientTransform="matrix(0.07, 0, 0, -0.07, -230.35, -458.28)" gradientUnits="userSpaceOnUse"><stop offset="0" stop-color="#428de3"/><stop offset="1" stop-color="#38bfc7"/></linearGradient></defs><g id="Layer_2" data-name="Layer 2"><g id="Layer_1-2" data-name="Layer 1"><g id="Layer_5" data-name="Layer 5"><path class="cls-1" d="M33,12.52l-2.08,2.91c-.68,1-1.36,2-2.05,3l-.75-.59q1.85-3,1.52-4.71T26.17,8.89L21.51,5.22l-6.85,8.7L17,15.76c1.41,1.12,2.47,1.61,3.17,1.48S21.81,16.36,23,15l.72.57c-.81,1-1.49,1.78-2,2.46s-1,1.2-1.27,1.57-.86,1.11-1.4,1.83L17.11,24l-.71-.55c1.29-1.79,1.93-3.08,2-3.85s-.69-1.72-2.1-2.83l-2.34-1.84L6.09,24.8,12,29.49c2.07,1.63,3.76,2.39,5.05,2.27s2.83-1.13,4.61-3l.75.59c-1.14,1.17-2.14,2.21-3,3.13s-1.61,1.78-2.32,2.6L.15,21.68l.76-1a4,4,0,0,0,2.32,1.17c.49,0,1.17-.61,2-1.71L16.84,5.49C17.71,4.38,18.1,3.6,18,3.14s-.64-1.13-1.7-2l.78-1Q22,4,26,7.1t7,5.42Z"/></g></g></g></svg>