<svg xmlns="http://www.w3.org/2000/svg" xmlns:xlink="http://www.w3.org/1999/xlink" viewBox="0 0 43.24 49.47"><defs><style>.cls-1{fill:url(#linear-gradient);}</style><linearGradient id="linear-gradient" x1="6857.89" y1="-358.72" x2="6535.56" y2="-918.55" gradientTransform="matrix(0.07, 0, 0, -0.07, -451.11, -22.79)" gradientUnits="userSpaceOnUse"><stop offset="0" stop-color="#93da49"/><stop offset="1" stop-color="#80ce47"/></linearGradient></defs><g id="Layer_2" data-name="Layer 2"><g id="Layer_1-2" data-name="Layer 1"><g id="Layer_138" data-name="Layer 138"><path class="cls-1" d="M39.09,1.34l.36,41.17a4.41,4.41,0,0,0,.61,2.56,3.83,3.83,0,0,0,1.71,1.34l1.47.62-1,2.44L23.82,42l1-2.45,1.71.74a7.2,7.2,0,0,0,3.06.73c.61-.12,1.1-.37,1.22-.85A4.68,4.68,0,0,0,31,38.72l-.12-8.55-14.66-6-2.68,2.69a9.79,9.79,0,0,0-2.08,2.69,3.89,3.89,0,0,0,.12,3.3,5.7,5.7,0,0,0,3.06,2.44l1.22.49-1,2.44L0,32.12l1-2.44.85.37a4.07,4.07,0,0,0,2.93.12,9.8,9.8,0,0,0,3.67-2.32L36.15,0l2.94,1.34ZM30.78,9.53,18.44,21.86,30.9,27Z"/></g></g></g></svg>