<svg xmlns="http://www.w3.org/2000/svg" xmlns:xlink="http://www.w3.org/1999/xlink" viewBox="0 0 55.09 55.58"><defs><style>.cls-1{fill:url(#linear-gradient);}</style><linearGradient id="linear-gradient" x1="3579.77" y1="-559.32" x2="3936.02" y2="-1203.97" gradientTransform="matrix(0.07, 0, 0, -0.07, -243, -36.01)" gradientUnits="userSpaceOnUse"><stop offset="0" stop-color="#a9e84b"/><stop offset="1" stop-color="#65bc46"/></linearGradient></defs><g id="Layer_2" data-name="Layer 2"><g id="Layer_1-2" data-name="Layer 1"><g id="Layer_142" data-name="Layer 142"><path class="cls-1" d="M0,19.18,31.52,0l8.42,12.21-2.2,1.35a22.87,22.87,0,0,0-5.86-5.25,8.42,8.42,0,0,0-4.76-1.1,12.09,12.09,0,0,0-5.38,2l-4.88,3.05a3,3,0,0,0-1.35,1.47,1.93,1.93,0,0,0,.25,1.59l7.57,12.58,1.71-1a7.53,7.53,0,0,0,3.54-4.39c.37-1.71,0-3.91-1.34-6.48l2.2-1.34L39.7,31.51l-2.2,1.35c-1.83-2.69-3.66-4.28-5.37-4.77a7.26,7.26,0,0,0-5.87,1.23l-1.34.85L33,43.61a1.84,1.84,0,0,0,1.22,1,4.88,4.88,0,0,0,2.57-.85L41.16,41a11.86,11.86,0,0,0,5.62-7.33c.74-3.05.13-6.59-1.71-10.75l2.2-1.34,7.82,14.05L22.23,55.58l-1.34-2.32,3.3-2a2.72,2.72,0,0,0,1.34-1.59,2.51,2.51,0,0,0-.37-1.83l-17.22-28a2.07,2.07,0,0,0-1.34-1,3.91,3.91,0,0,0-2.33.86L1.47,21.5,0,19.18Z"/></g></g></g></svg>