<svg xmlns="http://www.w3.org/2000/svg" xmlns:xlink="http://www.w3.org/1999/xlink" viewBox="0 0 24.33 29.41"><defs><style>.cls-1{stroke:#3bb5b6;stroke-miterlimit:1.65;stroke-width:0.22px;fill:url(#linear-gradient);}</style><linearGradient id="linear-gradient" x1="5140.65" y1="-7607.91" x2="5148.86" y2="-7222.18" gradientTransform="matrix(0.07, 0, 0, -0.07, -358.01, -519.13)" gradientUnits="userSpaceOnUse"><stop offset="0" stop-color="#428de3"/><stop offset="1" stop-color="#3ab7cd"/></linearGradient></defs><g id="Layer_2" data-name="Layer 2"><g id="Layer_1-2" data-name="Layer 1"><g id="Layer_9" data-name="Layer 9"><path class="cls-1" d="M2.2.12,3.88.34,5.61.5,6.84.59c.22,0,.82.05,1.81.08s1.85.09,2.6.14c3.75.29,6.43,1,8,2.25a5.74,5.74,0,0,1,2.14,5.4A5.86,5.86,0,0,1,19,13.13a10.81,10.81,0,0,1-6.37,1.45,10.17,10.17,0,0,1,5.26,2.24,6.82,6.82,0,0,1,1.76,4.65c0,.54,0,1.31,0,2.32-.05,2.4.47,3.65,1.57,3.73a1.7,1.7,0,0,0,1.33-.42,3.58,3.58,0,0,0,.9-1.59l.78.26a4.84,4.84,0,0,1-1.57,2.77,4,4,0,0,1-2.87.75,4,4,0,0,1-3-1.36A5.09,5.09,0,0,1,16,24.38c0-.42.09-.93.15-1.52l.12-1.19c.18-2.39-.18-4-1.08-4.93s-2.62-1.43-5.2-1.63l-2.32-.18L7,23.62a4.2,4.2,0,0,0,.29,2.57c.29.37,1.15.63,2.55.77l-.09,1.22L6.6,27.79c-.61-.08-1.08-.12-1.41-.15s-1.09-.07-1.85-.1-1.83-.07-3.22-.1l.09-1.23a4.11,4.11,0,0,0,2.58-.32c.39-.31.63-1.15.74-2.54L5,4.7c.1-1.41,0-2.28-.33-2.62a4.42,4.42,0,0,0-2.52-.7L2.2.12ZM7.79,13.56l.71.07q1.5.18,2,.21c2.37.18,4.13-.17,5.3-1.06a5.89,5.89,0,0,0,2-4.47,5.53,5.53,0,0,0-1.28-4.54c-1-1-2.68-1.62-5-1.79l-1.33-.06-1.47,0L7.79,13.56Z"/></g></g></g></svg>