<svg xmlns="http://www.w3.org/2000/svg" xmlns:xlink="http://www.w3.org/1999/xlink" viewBox="0 0 43 45.32"><defs><style>.cls-1{fill:url(#linear-gradient);}</style><linearGradient id="linear-gradient" x1="5995.77" y1="-60.8" x2="5877.99" y2="-739.39" gradientTransform="matrix(0.07, 0, 0, -0.07, -405.77, -3.54)" gradientUnits="userSpaceOnUse"><stop offset="0" stop-color="#95db49"/><stop offset="1" stop-color="#7ccb47"/></linearGradient></defs><g id="Layer_2" data-name="Layer 2"><g id="Layer_1-2" data-name="Layer 1"><g id="Layer_139" data-name="Layer 139"><path class="cls-1" d="M6.23,0,30.78,3.79c4.15.61,7.33,2.2,9.53,4.88a10.68,10.68,0,0,1,2.56,8.8,10.18,10.18,0,0,1-3.17,6.1,11.91,11.91,0,0,1-6.48,3.06,21.76,21.76,0,0,1-7.45.12l-7.69-1.22L16,39.21a2.17,2.17,0,0,0,2,2.69l4.76.73-.37,2.69L0,41.9l.37-2.69,3.78.61a2.49,2.49,0,0,0,2-.37A2.27,2.27,0,0,0,7,37.74L11.85,5.86A2.29,2.29,0,0,0,11.48,4,2.22,2.22,0,0,0,10,3.18L6,2.57,6.23,0ZM18.32,23l5.13.74a11.41,11.41,0,0,0,5-.37A8,8,0,0,0,31.88,21a12.56,12.56,0,0,0,1.71-5.25c.49-3.42,0-6-1.59-7.58q-1.83-1.83-6.59-2.56c-1.84-.25-3.06-.37-3.67-.12a1.66,1.66,0,0,0-1,1.46L18.32,23Z"/></g></g></g></svg>