<svg xmlns="http://www.w3.org/2000/svg" xmlns:xlink="http://www.w3.org/1999/xlink" viewBox="0 0 55.49 49.98"><defs><style>.cls-1{fill:url(#linear-gradient);}</style><linearGradient id="linear-gradient" x1="2474.17" y1="-1974.15" x2="2980.39" y2="-2298.07" gradientTransform="matrix(0.07, 0, 0, -0.07, -164.68, -130.92)" gradientUnits="userSpaceOnUse"><stop offset="0" stop-color="#abe94b"/><stop offset="1" stop-color="#65bc46"/></linearGradient></defs><g id="Layer_2" data-name="Layer 2"><g id="Layer_1-2" data-name="Layer 1"><g id="Layer_144" data-name="Layer 144"><path class="cls-1" d="M0,27.87,11.6,9.06a23.32,23.32,0,0,1,5.74-6.72A10.78,10.78,0,0,1,23.21,0a9.06,9.06,0,0,1,5.37,1.34c2.69,1.59,4,4.15,4.28,7.57.12,2.57-.74,5.87-2.69,9.9a12.47,12.47,0,0,1,4.15-3.42A10.9,10.9,0,0,1,39,14.55a26.79,26.79,0,0,1,7.82,1.35,9.13,9.13,0,0,0,3.66.73A1.36,1.36,0,0,0,51.67,16c.61-1.1-.37-2.57-3.06-4.52L50,9.3c2.93,2.08,4.64,4,5.25,6a7.43,7.43,0,0,1-1.1,6.23,8.17,8.17,0,0,1-3.3,3.17,6.73,6.73,0,0,1-4.15.37A34.94,34.94,0,0,1,41,23.23,52.93,52.93,0,0,0,34,21a6.06,6.06,0,0,0-3.42.49,5.51,5.51,0,0,0-2.45,2.32L26.5,26.52l13.32,8.19a2.21,2.21,0,0,0,1.71.36,3.66,3.66,0,0,0,1.71-1.34l1.95-3.3,2.32,1.35L36.28,50,34,48.63l1.71-2.81a2.47,2.47,0,0,0,.48-2,3,3,0,0,0-1.22-1.59L7.82,25.55a2.51,2.51,0,0,0-2-.49,2.47,2.47,0,0,0-1.46,1.1l-2,3.05L0,27.87Zm24.18-2.69L26,22.13a10.36,10.36,0,0,0,1.83-7.7c-.37-1.83-1.71-3.54-4.28-5C21.25,8,19.18,7.59,17.47,8.08s-3.55,2.2-5.26,5c-1,1.47-1.34,2.56-1.22,3.18s.74,1.22,1.84,1.95l11.35,7Z"/></g></g></g></svg>