<svg xmlns="http://www.w3.org/2000/svg" xmlns:xlink="http://www.w3.org/1999/xlink" viewBox="0 0 94.3 101.26"><defs><style>.cls-1{fill:url(#linear-gradient);}.cls-2{fill:url(#linear-gradient-2);}.cls-3{fill:url(#linear-gradient-3);}.cls-4{fill:url(#linear-gradient-4);}.cls-5{fill:url(#linear-gradient-5);}.cls-6{fill:url(#linear-gradient-6);}.cls-7{fill:url(#linear-gradient-7);}.cls-8{fill:url(#linear-gradient-8);}</style><linearGradient id="linear-gradient" x1="-123.98" y1="322.07" x2="-123.33" y2="322.72" gradientTransform="matrix(43.63, 0, 0, -49.1, 5435.52, 15904.27)" gradientUnits="userSpaceOnUse"><stop offset="0" stop-color="#dae8a9"/><stop offset="0.03" stop-color="#dae8a9"/><stop offset="0.51" stop-color="#96cbbc"/><stop offset="0.75" stop-color="#7bc3c9"/><stop offset="0.99" stop-color="#9bd3b5"/><stop offset="1" stop-color="#9bd3b5"/></linearGradient><linearGradient id="linear-gradient-2" x1="-124.29" y1="322.23" x2="-123.53" y2="322.88" gradientTransform="matrix(49.47, 0, 0, -47.15, 6176.82, 15280.6)" gradientUnits="userSpaceOnUse"><stop offset="0" stop-color="#0b496e"/><stop offset="0.03" stop-color="#0b496e"/><stop offset="0.43" stop-color="#3fb6b2"/><stop offset="0.75" stop-color="#64aede"/><stop offset="0.99" stop-color="#6ba8ce"/><stop offset="1" stop-color="#6ba8ce"/></linearGradient><linearGradient id="linear-gradient-3" x1="-123.12" y1="322.54" x2="-122.34" y2="323.17" gradientTransform="matrix(32.86, 0, 0, -40.92, 4068.79, 13291.07)" gradientUnits="userSpaceOnUse"><stop offset="0" stop-color="#4d9ccf"/><stop offset="0.18" stop-color="#4d9ccf"/><stop offset="1" stop-color="#58b1e1"/></linearGradient><linearGradient id="linear-gradient-4" x1="-124.04" y1="328.34" x2="-123.05" y2="328.34" gradientTransform="matrix(42.75, 0, 0, -14.46, 5334.2, 4773.45)" gradientUnits="userSpaceOnUse"><stop offset="0" stop-color="#106279"/><stop offset="0.44" stop-color="#106279"/><stop offset="0.99" stop-color="#114264"/><stop offset="1" stop-color="#114264"/></linearGradient><linearGradient id="linear-gradient-5" x1="-123.83" y1="327.81" x2="-122.86" y2="327.92" gradientTransform="matrix(39.7, 0, 0, -15.3, 4946.64, 5037.76)" gradientUnits="userSpaceOnUse"><stop offset="0" stop-color="#106279"/><stop offset="0.26" stop-color="#106279"/><stop offset="0.99" stop-color="#29bec5"/><stop offset="1" stop-color="#29bec5"/></linearGradient><linearGradient id="linear-gradient-6" x1="1921.42" y1="-4378.64" x2="2854.46" y2="-3717.02" gradientTransform="matrix(0.07, 0, 0, -0.07, -117.76, -251.87)" gradientUnits="userSpaceOnUse"><stop offset="0" stop-color="#6bc390"/><stop offset="0.03" stop-color="#6bc390"/><stop offset="0.51" stop-color="#3fb6b2"/><stop offset="0.75" stop-color="#40b6b0"/><stop offset="0.99" stop-color="#9bd3b5"/><stop offset="1" stop-color="#9bd3b5"/></linearGradient><linearGradient id="linear-gradient-7" x1="-121.66" y1="323.48" x2="-121.66" y2="324.33" gradientTransform="matrix(25.79, 0, 0, -30.41, 3218.97, 9865.86)" gradientUnits="userSpaceOnUse"><stop offset="0" stop-color="#73b4e2"/><stop offset="1" stop-color="#5488c7"/></linearGradient><linearGradient id="linear-gradient-8" x1="-125.1" y1="326.62" x2="-124.38" y2="327.04" gradientTransform="matrix(75.93, 0, 0, -17.45, 9520.01, 5742.01)" gradientUnits="userSpaceOnUse"><stop offset="0" stop-color="#e8ea7d"/><stop offset="0.13" stop-color="#e8ea7d"/><stop offset="0.52" stop-color="#aedbc7"/><stop offset="1" stop-color="#63c9dc"/></linearGradient></defs><g id="Layer_2" data-name="Layer 2"><g id="Layer_1-2" data-name="Layer 1"><g id="Layer_154" data-name="Layer 154"><path class="cls-1" d="M54.72,52l9.77,2.45L45.56,69.75,21.38,101.14S17.59,92,30.54,76.83,54.6,55.09,54.72,52Z"/><path class="cls-2" d="M21.5,101.26s6.47-8.92,20.27-17c0,0-1.34-7.57,11.12-18.08,0,0,1-1.71,18.08-11.72l-6.72-.37c-.12,0-38.48,18.69-42.75,47.15Z"/><path class="cls-3" d="M21.5,101.26S36.89,73.17,54.35,60.34C54.23,60.34,25.53,76,21.5,101.26Z"/><path class="cls-4" d="M31.39,20.77s.86-4.52,14.17-3.42,28.58,6,28.58,6l-5.49,8.31L53.38,29.56C53.38,29.44,45.44,21.13,31.39,20.77Z"/><path class="cls-5" d="M71.09,17.71,65.35,29.07s-20.64-9.4-34-8.43c0,.12,3.91-13.31,39.7-2.93Z"/><path class="cls-6" d="M62.78,55.45C59.12,55,30.54,48,25.65,47.39,16,46.17,5.5,45.56,0,47.88c0,0,6-15.75,51.79-4,0,0,28.21,7.94,29.56-13.43,0,0-11.36-8.68,10.38-25.9.73-.61,1.71-2.81,2.57-3.42a28.91,28.91,0,0,0-3.42,10.63c-.49,5.62.85,14.53.49,20.52C91,38,88.43,54.72,68.4,55.46"/><path class="cls-7" d="M94.29,1.1c-.56.21-2.64,4.06-5.74,3.91-3.54-.25-3.78-5-11-5s-8.91,6.35-9,8.55.37,21.86.37,21.86h14v-17c0,.12,7.92-5.5,11.35-12.34Z"/><path class="cls-8" d="M7.21,42.26S24.67,27.73,54.84,29c0,0,26.14,2.07,28.1,1.1,0,0,4.39,20.76-28.22,15.39s-27-5-47.51-3.18Z"/></g></g></g></svg>