<svg xmlns="http://www.w3.org/2000/svg" xmlns:xlink="http://www.w3.org/1999/xlink" viewBox="0 0 22.96 30.18"><defs><style>.cls-1{stroke:#3bb5b6;stroke-miterlimit:1.65;stroke-width:0.22px;fill:url(#linear-gradient);}</style><linearGradient id="linear-gradient" x1="6070.09" y1="-7551.92" x2="5992.12" y2="-7178.5" gradientTransform="matrix(0.07, 0, 0, -0.07, -420.04, -514.45)" gradientUnits="userSpaceOnUse"><stop offset="0" stop-color="#428de3"/><stop offset="1" stop-color="#3ab5cd"/></linearGradient></defs><g id="Layer_2" data-name="Layer 2"><g id="Layer_1-2" data-name="Layer 1"><g id="Layer_11" data-name="Layer 11"><path class="cls-1" d="M.13,4.27,2.91,3.9c.64-.08,1.16-.16,1.56-.23.64-.12,1.34-.27,2.11-.44s1.7-.39,2.77-.66l.23,1.24a4.46,4.46,0,0,0-1.7.58.93.93,0,0,0-.33,1,1.34,1.34,0,0,0,.1.32,1.13,1.13,0,0,0,.16.26l7.42,8.91,3-9.45a6.62,6.62,0,0,0,.3-1.13,2.3,2.3,0,0,0,0-.83,1,1,0,0,0-.68-.87,4.54,4.54,0,0,0-2,.07L15.72,1.4l2.11-.24c.56-.07,1-.14,1.4-.21s.83-.17,1.36-.3l2-.52.23,1.24a4.81,4.81,0,0,0-1.63.7,2.81,2.81,0,0,0-.76,1.29L16.12,16.12l1.55,8.38c.25,1.39.59,2.22,1,2.47a4.39,4.39,0,0,0,2.69,0l.44-.08L22,28.1l-3.37.47c-.73.11-1.3.2-1.73.28s-1.2.23-2,.41-2,.44-3.46.79l-.22-1.2.45-.08a4.26,4.26,0,0,0,2.49-1c.3-.4.31-1.29.06-2.65l-1.47-8L4.25,7.32h0Q2.41,5.13.47,5.49l-.11,0L.13,4.27Z"/></g></g></g></svg>