<svg xmlns="http://www.w3.org/2000/svg" xmlns:xlink="http://www.w3.org/1999/xlink" viewBox="0 0 36.29 36.86"><defs><style>.cls-1{stroke:#3bb5b6;stroke-miterlimit:1.65;stroke-width:0.22px;fill:url(#linear-gradient);}</style><linearGradient id="linear-gradient" x1="3810.45" y1="-7161.92" x2="3999.21" y2="-6821.33" gradientTransform="matrix(0.07, 0, 0, -0.07, -268.2, -483.1)" gradientUnits="userSpaceOnUse"><stop offset="0" stop-color="#428de3"/><stop offset="1" stop-color="#39bcc9"/></linearGradient></defs><g id="Layer_2" data-name="Layer 2"><g id="Layer_1-2" data-name="Layer 1"><g id="Layer_6" data-name="Layer 6"><path class="cls-1" d="M2.6.15l2.46,1.4c.56.32,1,.57,1.39.76.57.29,1.22.6,1.94.93S10,4,11,4.39l-.57,1.13A5.56,5.56,0,0,0,8.5,4.88a.89.89,0,0,0-.89.52,7.57,7.57,0,0,0-.43,1.72c0,.15,0,.28-.07.38L4.05,25.35l12.21-12,.25-1.86A4.37,4.37,0,0,0,16.43,9a3.57,3.57,0,0,0-1.56-1.27l.57-1.12,2.46,1.4c.56.32,1,.57,1.38.76.57.29,1.22.6,1.94.92s1.59.72,2.6,1.16L23.25,12a5.53,5.53,0,0,0-1.91-.64.9.9,0,0,0-.89.51A7.18,7.18,0,0,0,20,13.62c0,.16-.05.29-.07.38l-3,17.86L29.9,19a8.24,8.24,0,0,0,.61-.74,4.7,4.7,0,0,0,.47-.73,1.2,1.2,0,0,0,0-1.23,3.59,3.59,0,0,0-1.47-1.13l-.2-.1L29.89,14l1.83,1.09c.49.28.9.51,1.24.68s.77.37,1.26.58l1.92.82-.55,1.13a4.59,4.59,0,0,0-1.9-.42,2.11,2.11,0,0,0-1.17.62L18.93,31.52c-.23.25-1.49,1.44-3.76,3.56L13.4,36.71,13,36.34l3-20.79-10,9.61c-.66.65-1.4,1.35-2.22,2.11S1.86,29,.57,30.21l-.45-.39L3.68,5a4.44,4.44,0,0,0-.09-2.42A3.53,3.53,0,0,0,2,1.27L2.6.15Z"/></g></g></g></svg>