<svg xmlns="http://www.w3.org/2000/svg" xmlns:xlink="http://www.w3.org/1999/xlink" viewBox="0 0 28.6 32.99"><defs><style>.cls-1{stroke:#3bb5b6;stroke-miterlimit:1.65;stroke-width:0.22px;fill:url(#linear-gradient);}</style><linearGradient id="linear-gradient" x1="2592.28" y1="-5956.54" x2="2891.84" y2="-5726.74" gradientTransform="matrix(0.07, 0, 0, -0.07, -180.05, -404.08)" gradientUnits="userSpaceOnUse"><stop offset="0" stop-color="#428de3"/><stop offset="1" stop-color="#36c9c1"/></linearGradient></defs><g id="Layer_2" data-name="Layer 2"><g id="Layer_1-2" data-name="Layer 1"><g id="Layer_2-2" data-name="Layer 2"><path class="cls-1" d="M22.42.15l1.64,2.54c.4.6.72,1.09,1,1.45.42.59.91,1.24,1.46,2s1.2,1.54,1.94,2.47l-1,.73-.31-.44C26.28,7.71,25.64,7.07,25.17,7s-1.28.25-2.44,1.09L5,20.78,8.75,26c1.52,2.13,2.94,3.29,4.26,3.5s3.27-.46,5.86-2l.69,1c-.72.51-2.53,1.59-5.46,3.25l-1.95,1.13c-1-1.36-2.13-3-3.52-5S6.4,24.7,6.08,24.26Q4.3,21.77.41,16.49l-.26-.36,1-.72c.79,1.1,1.42,1.69,1.91,1.78s1.3-.27,2.43-1.08L20.68,5.2c1.14-.81,1.74-1.46,1.79-1.92A4.38,4.38,0,0,0,21.39.89l1-.74Z"/></g></g></g></svg>