<svg xmlns="http://www.w3.org/2000/svg" xmlns:xlink="http://www.w3.org/1999/xlink" viewBox="0 0 49.84 53.87"><defs><style>.cls-1{fill:url(#linear-gradient);}</style><linearGradient id="linear-gradient" x1="4361.28" y1="-81.42" x2="4583.39" y2="-833.04" gradientTransform="matrix(0.07, 0, 0, -0.07, -295.26, -8.78)" gradientUnits="userSpaceOnUse"><stop offset="0" stop-color="#9fe24a"/><stop offset="1" stop-color="#71c447"/></linearGradient></defs><g id="Layer_2" data-name="Layer 2"><g id="Layer_1-2" data-name="Layer 1"><g id="Layer_141" data-name="Layer 141"><path class="cls-1" d="M0,13.56,12.58,9.65,43.12,30.54,37.25,11.73a7.21,7.21,0,0,0-2.93-4,7.1,7.1,0,0,0-5.13-.49l-.73-2.57L43.24,0,44,2.57a7.55,7.55,0,0,0-3.9,3.17,6.61,6.61,0,0,0,0,4.89l9.77,31.51-3.18,1L11.85,18.93,18.69,41a8,8,0,0,0,3.42,5,5.69,5.69,0,0,0,4.88.37l.74-.25.73,2.57L12.09,53.87l-.73-2.57,1.1-.37a5.17,5.17,0,0,0,3.42-3.17A7.4,7.4,0,0,0,16,42.38L7.94,16.25a5.76,5.76,0,0,0-5.37-1l-1.83.61L0,13.56Z"/></g></g></g></svg>