<svg xmlns="http://www.w3.org/2000/svg" xmlns:xlink="http://www.w3.org/1999/xlink" viewBox="0 0 28.08 29.08"><defs><style>.cls-1{stroke:#3bb5b6;stroke-miterlimit:1.65;stroke-width:0.22px;fill:url(#linear-gradient);}</style><linearGradient id="linear-gradient" x1="2983.25" y1="-6472.89" x2="3262.3" y2="-6202.06" gradientTransform="matrix(0.07, 0, 0, -0.07, -214.75, -438.91)" gradientUnits="userSpaceOnUse"><stop offset="0" stop-color="#428de3"/><stop offset="1" stop-color="#37c4c4"/></linearGradient></defs><g id="Layer_2" data-name="Layer 2"><g id="Layer_1-2" data-name="Layer 1"><g id="Layer_4" data-name="Layer 4"><path class="cls-1" d="M10.56.16,12.5,2.21c.44.47.81.84,1.11,1.13.46.44,1,.93,1.6,1.47l2.16,1.87-.88.9a5.4,5.4,0,0,0-1.66-1.17.87.87,0,0,0-1,.22,4.25,4.25,0,0,0-.51.7,11.06,11.06,0,0,0-.58,1.15L5.07,25.38l16.29-8.64a6.52,6.52,0,0,0,.82-.51,5.61,5.61,0,0,0,.65-.56,1.22,1.22,0,0,0,.36-1.19A3.58,3.58,0,0,0,22.13,13L22,12.81l.87-.91c.57.64,1.06,1.17,1.45,1.58s.73.77,1,1,.62.57,1,.92l1.6,1.34-.87.91a4.56,4.56,0,0,0-1.68-.95,2.11,2.11,0,0,0-1.3.26L6.79,25.78,3,27.69C1.56,28.39.74,28.8.49,28.94l-.37-.56L10.18,5.07a1.52,1.52,0,0,1,.11-.23,3.06,3.06,0,0,0-.6-3.77l.87-.91Z"/></g></g></g></svg>