<svg xmlns="http://www.w3.org/2000/svg" xmlns:xlink="http://www.w3.org/1999/xlink" viewBox="0 0 29.08 28.08"><defs><style>.cls-1{stroke:#3bb5b6;stroke-miterlimit:1.65;stroke-width:0.22px;fill:url(#linear-gradient);}</style><linearGradient id="linear-gradient" x1="8008.15" y1="-6320.7" x2="7726.01" y2="-6044.19" gradientTransform="matrix(0.07, 0, 0, -0.07, -548.36, -426.9)" gradientUnits="userSpaceOnUse"><stop offset="0" stop-color="#428de3"/><stop offset="1" stop-color="#3ab1ce"/></linearGradient></defs><g id="Layer_2" data-name="Layer 2"><g id="Layer_1-2" data-name="Layer 1"><g id="Layer_16" data-name="Layer 16"><path class="cls-1" d="M.16,17.52l2.05-1.94c.47-.44.84-.81,1.13-1.11.44-.46.93-1,1.47-1.6l1.87-2.16.9.88a5.52,5.52,0,0,0-1.17,1.66.89.89,0,0,0,.22,1,4.28,4.28,0,0,0,.7.5,11.06,11.06,0,0,0,1.15.58L25.38,23,16.74,6.72a6.52,6.52,0,0,0-.51-.82,5.61,5.61,0,0,0-.56-.65,1.22,1.22,0,0,0-1.19-.36A3.58,3.58,0,0,0,13,6l-.17.18-.91-.87c.64-.57,1.17-1.06,1.58-1.45s.77-.73,1-1,.57-.62.92-1L16.79.16,17.7,1a4.56,4.56,0,0,0-.95,1.68A2.11,2.11,0,0,0,17,4l8.77,17.28,1.91,3.81c.7,1.42,1.11,2.24,1.25,2.49l-.56.37L5.07,17.9l-.23-.11a3.06,3.06,0,0,0-3.77.6l-.91-.87Z"/></g></g></g></svg>