<svg xmlns="http://www.w3.org/2000/svg" xmlns:xlink="http://www.w3.org/1999/xlink" viewBox="0 0 25.04 31.12"><defs><style>.cls-1{stroke:#3bb5b6;stroke-miterlimit:1.65;stroke-width:0.22px;fill:url(#linear-gradient);}</style><linearGradient id="linear-gradient" x1="4726.62" y1="-7539.14" x2="4779.97" y2="-7157.51" gradientTransform="matrix(0.07, 0, 0, -0.07, -329.1, -513.58)" gradientUnits="userSpaceOnUse"><stop offset="0" stop-color="#428de3"/><stop offset="1" stop-color="#3ab8cc"/></linearGradient></defs><g id="Layer_2" data-name="Layer 2"><g id="Layer_1-2" data-name="Layer 1"><g id="Layer_8" data-name="Layer 8"><path class="cls-1" d="M24.92,3.66c-.17,1.19-.33,2.37-.49,3.54s-.29,2.37-.43,3.59l-.94-.18c.18-2.32-.11-3.94-.85-4.87s-2.41-1.63-5-2.11L11.35,2.56l-2,10.88,2.93.55c1.77.32,2.93.26,3.49-.18s1-1.54,1.45-3.3l.9.17c-.26,1.22-.48,2.27-.66,3.13s-.31,1.52-.39,2c-.12.63-.25,1.38-.39,2.27s-.31,1.93-.49,3.13L15.31,21c.3-2.18.27-3.62-.08-4.31s-1.41-1.2-3.17-1.52l-2.93-.54L6.84,27.07l7.44,1.37q3.9.72,5.53-.35c1.09-.71,2-2.31,2.67-4.82l.94.18C23,25,22.56,26.4,22.24,27.6s-.59,2.34-.84,3.39L.13,27.07l.22-1.2a4,4,0,0,0,2.6,0c.42-.27.75-1.09,1-2.46L7.34,5c.25-1.38.24-2.26,0-2.63a4.44,4.44,0,0,0-2.43-1L5.09.13q6.12,1.13,11.1,2l8.73,1.53Z"/></g></g></g></svg>