<svg xmlns="http://www.w3.org/2000/svg" xmlns:xlink="http://www.w3.org/1999/xlink" viewBox="0 0 27.66 25.81"><defs><style>.cls-1{stroke:#3bb5b6;stroke-miterlimit:1.65;stroke-width:0.22px;fill:url(#linear-gradient);}</style><linearGradient id="linear-gradient" x1="2792.4" y1="-6217.84" x2="3063.23" y2="-5975.74" gradientTransform="matrix(0.07, 0, 0, -0.07, -196.2, -426.75)" gradientUnits="userSpaceOnUse"><stop offset="0" stop-color="#428de3"/><stop offset="1" stop-color="#36c8c2"/></linearGradient></defs><g id="Layer_2" data-name="Layer 2"><g id="Layer_1-2" data-name="Layer 1"><g id="Layer_3" data-name="Layer 3"><path class="cls-1" d="M20.94.16l1.91,2.43c.44.56.81,1,1.11,1.37s.84,1,1.4,1.55,1.27,1.37,2.15,2.29l-1,.82c-1-1.12-1.67-1.7-2.17-1.75s-1.26.37-2.31,1.27L7.87,20.34c-1.09.94-1.64,1.65-1.64,2.13a4.87,4.87,0,0,0,1.42,2.39l-.93.79C5.7,24.32,5,23.42,4.63,23s-.67-.82-.9-1.09S3,21,2.44,20.43,1.14,19,.16,18l.92-.8Q2.49,18.86,3.24,19c.5.07,1.28-.36,2.34-1.27l14.2-12.2c1.08-.93,1.63-1.63,1.63-2.11S21,2.09,20,1l1-.82Z"/></g></g></g></svg>