<svg xmlns="http://www.w3.org/2000/svg" xmlns:xlink="http://www.w3.org/1999/xlink" viewBox="0 0 55.94 56.8"><defs><style>.cls-1{fill:url(#linear-gradient);}</style><linearGradient id="linear-gradient" x1="8145.72" y1="-1369.86" x2="7619.82" y2="-1878.8" gradientTransform="matrix(0.07, 0, 0, -0.07, -539.98, -88.13)" gradientUnits="userSpaceOnUse"><stop offset="0" stop-color="#90d949"/><stop offset="1" stop-color="#83d047"/></linearGradient></defs><g id="Layer_2" data-name="Layer 2"><g id="Layer_1-2" data-name="Layer 1"><g id="Layer_136" data-name="Layer 136"><path class="cls-1" d="M31.88,0,55.94,28,45.32,38.23l-1.59-1.95A25.16,25.16,0,0,0,48,29.68a8.43,8.43,0,0,0,.37-4.88,12.3,12.3,0,0,0-2.81-5l-3.79-4.4c-.61-.73-1.1-1.1-1.71-1.1a1.78,1.78,0,0,0-1.46.49L27.48,24.43l1.35,1.47a6.65,6.65,0,0,0,4.88,2.68c1.83.12,3.91-.73,6.23-2.44l1.71,1.95L26.75,40.92,25,39c2.32-2.32,3.66-4.27,3.79-6.1a7.56,7.56,0,0,0-2.2-5.62L25.53,26,13.68,36.28A2.09,2.09,0,0,0,13,37.74a5.11,5.11,0,0,0,1.22,2.45l3.3,3.9a11.53,11.53,0,0,0,8.18,4.28c3.18.24,6.6-1,10.38-3.54l1.71,2-12.58,10L0,27.73,2.08,26,4.52,29a3.24,3.24,0,0,0,1.83,1.1,2.75,2.75,0,0,0,1.83-.61L32.86,8.18a2.07,2.07,0,0,0,.73-1.46c0-.61-.49-1.22-1.22-2.2L30.17,2,31.88,0Z"/></g></g></g></svg>