<svg xmlns="http://www.w3.org/2000/svg" xmlns:xlink="http://www.w3.org/1999/xlink" viewBox="0 0 23.07 28.35"><defs><style>.cls-1{stroke:#3bb5b6;stroke-miterlimit:1.65;stroke-width:0.22px;fill:url(#linear-gradient);}</style><linearGradient id="linear-gradient" x1="5531.24" y1="-7617.48" x2="5527.14" y2="-7239.95" gradientTransform="matrix(0.07, 0, 0, -0.07, -386.52, -520.44)" gradientUnits="userSpaceOnUse"><stop offset="0" stop-color="#5388cc"/><stop offset="1" stop-color="#3ab6cd"/></linearGradient></defs><g id="Layer_2" data-name="Layer 2"><g id="Layer_1-2" data-name="Layer 1"><g id="Layer_10" data-name="Layer 10"><path class="cls-1" d="M20.24.11c.09,1.2.18,2.38.27,3.56s.22,2.38.34,3.6l-1,0C19.57,5,19,3.47,18,2.72s-2.7-1.08-5.36-1L6.75,1.9,7.09,13l3-.09c1.8,0,2.92-.35,3.38-.9s.68-1.73.71-3.54l.92,0c0,1.26,0,2.33,0,3.2s0,1.56,0,2c0,.63,0,1.4.1,2.3s.1,1.95.18,3.15l-.9,0c-.17-2.19-.5-3.6-1-4.2s-1.63-.87-3.41-.82l-3,.1.38,12.62,7.57-.23q4-.12,5.33-1.51T22,19.8l.95,0c-.12,1.63-.21,3.07-.27,4.31s-.09,2.41-.1,3.49L1,28.24.92,27a4.06,4.06,0,0,0,2.53-.6c.35-.35.5-1.22.46-2.61L3.33,5.11c0-1.41-.24-2.26-.6-2.57A4.49,4.49,0,0,0,.15,2.11L.11.85C4.26.72,8,.59,11.38.46L20.24.11Z"/></g></g></g></svg>