<svg xmlns="http://www.w3.org/2000/svg" xmlns:xlink="http://www.w3.org/1999/xlink" viewBox="0 0 30.4 32.55"><defs><style>.cls-1{stroke:#3bb5b6;stroke-miterlimit:1.65;stroke-width:0.22px;fill:url(#linear-gradient);}</style><linearGradient id="linear-gradient" x1="6891.37" y1="-7249.75" x2="6731.95" y2="-6903.04" gradientTransform="matrix(0.07, 0, 0, -0.07, -472.38, -491.29)" gradientUnits="userSpaceOnUse"><stop offset="0" stop-color="#428de3"/><stop offset="1" stop-color="#3ab3ce"/></linearGradient></defs><g id="Layer_2" data-name="Layer 2"><g id="Layer_1-2" data-name="Layer 1"><g id="Layer_13" data-name="Layer 13"><path class="cls-1" d="M27.76,15.08q1.51,3.34,2,4.77a11,11,0,0,1,.53,2.53,6.86,6.86,0,0,1-1.4,4.84,13.18,13.18,0,0,1-5.14,3.68,15.87,15.87,0,0,1-5.3,1.51,6.74,6.74,0,0,1-4-.8,7.24,7.24,0,0,1-2-1.84,21.91,21.91,0,0,1-2.09-3.83l-.34-.76L4.77,13.8c-.57-1.27-1.09-2-1.53-2.13a4.48,4.48,0,0,0-2.56.59L.15,11.12,2.92,10l1.59-.66c.51-.23,1.12-.53,1.82-.88L9,7.1l.52,1.15c-1.25.56-2,1.07-2.13,1.53A4,4,0,0,0,8,12.34l5.08,11.24q2.23,4.94,4.6,6T24,28.87c2.59-1.16,4.1-2.61,4.56-4.34s-.1-4.3-1.65-7.73L22.49,7.14C21.66,5.29,21,4.26,20.45,4a3.5,3.5,0,0,0-2.56.45l-.51-1.14,2.25-.87c.6-.24,1.1-.44,1.5-.62s.7-.33,1.15-.57S23.45.66,24.4.15l.52,1.15c-1.18.53-1.85,1.07-2,1.62s.15,1.74,1,3.59l3.87,8.57Z"/></g></g></g></svg>