<svg xmlns="http://www.w3.org/2000/svg" xmlns:xlink="http://www.w3.org/1999/xlink" viewBox="0 0 52.89 40.55"><defs><style>.cls-1{fill:url(#linear-gradient);}</style><linearGradient id="linear-gradient" x1="8530.5" y1="-2206.11" x2="7987.64" y2="-2487.73" gradientTransform="matrix(0.07, 0, 0, -0.07, -571.15, -146.94)" gradientUnits="userSpaceOnUse"><stop offset="0" stop-color="#8fd849"/><stop offset="1" stop-color="#85d147"/></linearGradient></defs><g id="Layer_2" data-name="Layer 2"><g id="Layer_1-2" data-name="Layer 1"><g id="Layer_135" data-name="Layer 135"><path class="cls-1" d="M47.27,20.25l4.64.61,1,1.84L40.06,29.78l-1.22-2.32c3.06-3.18,5-6.35,5.62-9.41a12.38,12.38,0,0,0-1.1-8.67A9.47,9.47,0,0,0,38.6,4.86a6.2,6.2,0,0,0-5.5.25,5.31,5.31,0,0,0-2.32,2.32,8.7,8.7,0,0,0-.73,3.78,40.7,40.7,0,0,0,1.59,7.46,44.06,44.06,0,0,1,2,8.55,12.77,12.77,0,0,1-1.22,7,11.21,11.21,0,0,1-5,4.76,12,12,0,0,1-10.14.86,18,18,0,0,1-9.4-8.68A18.36,18.36,0,0,1,6.23,18.3L1,17.32,0,15.49,13.8,8.16,15,10.36c-6.71,6.47-8.3,13-4.64,19.79a10.85,10.85,0,0,0,5.38,5.37,6.86,6.86,0,0,0,6-.24,5.72,5.72,0,0,0,2.81-2.81A7.87,7.87,0,0,0,25,28.19a54.13,54.13,0,0,0-1.59-6.47q-2-7-1.83-10.26a10.53,10.53,0,0,1,1.47-5.74,11.23,11.23,0,0,1,4.52-4,12,12,0,0,1,10.13-1c3.42,1.1,6.11,3.67,8.06,7.45a18.38,18.38,0,0,1,1.47,12.09Z"/></g></g></g></svg>