<svg xmlns="http://www.w3.org/2000/svg" xmlns:xlink="http://www.w3.org/1999/xlink" viewBox="0 0 27.42 28.25"><defs><style>.cls-1{stroke:#3bb5b6;stroke-miterlimit:1.65;stroke-width:0.22px;fill:url(#linear-gradient);}</style><linearGradient id="linear-gradient" x1="7712.45" y1="-6637.99" x2="7449.82" y2="-6350.74" gradientTransform="matrix(0.07, 0, 0, -0.07, -532.48, -453.85)" gradientUnits="userSpaceOnUse"><stop offset="0" stop-color="#428de3"/><stop offset="1" stop-color="#3ab1cf"/></linearGradient></defs><g id="Layer_2" data-name="Layer 2"><g id="Layer_1-2" data-name="Layer 1"><g id="Layer_15" data-name="Layer 15"><path class="cls-1" d="M4.6,3.44A12,12,0,0,1,14.14.19q5.13.59,9.35,5.43a14.08,14.08,0,0,1,3.8,10.07,12.53,12.53,0,0,1-4.58,9.22,11.94,11.94,0,0,1-9.39,3.17,14,14,0,0,1-9.16-5.19,14.79,14.79,0,0,1-4-10.24A12.22,12.22,0,0,1,4.59,3.44Zm.58,1.15a7.48,7.48,0,0,0-2.55,6.82q.45,4.2,4.3,8.61c2.61,3,5.26,4.84,8,5.51a7.62,7.62,0,0,0,7.2-1.72,7.67,7.67,0,0,0,2.7-6.92c-.28-2.8-1.73-5.69-4.32-8.67s-5.3-4.84-8-5.48a7.84,7.84,0,0,0-7.3,1.85Z"/></g></g></g></svg>