<svg xmlns="http://www.w3.org/2000/svg" xmlns:xlink="http://www.w3.org/1999/xlink" viewBox="0 0 46.64 43.07"><defs><style>.cls-1{fill:url(#linear-gradient);}</style><linearGradient id="linear-gradient" x1="7499.64" y1="-795.44" x2="7164.86" y2="-1293.95" gradientTransform="matrix(0.07, 0, 0, -0.07, -508.26, -54.38)" gradientUnits="userSpaceOnUse"><stop offset="0" stop-color="#91d949"/><stop offset="1" stop-color="#82d047"/></linearGradient></defs><g id="Layer_2" data-name="Layer 2"><g id="Layer_1-2" data-name="Layer 1"><g id="Layer_137" data-name="Layer 137"><path class="cls-1" d="M40.9,13.89l4-2.32,1.71,1.22L37.36,27l-2.2-1.59c2.2-4.4,3.05-8.31,2.57-11.48a10.36,10.36,0,0,0-4.28-7.45c-2.56-1.83-5.62-2.2-9.16-1s-7.21,4.52-11,9.89Q7.25,23.78,7.07,30a9.66,9.66,0,0,0,4.27,8.06,12,12,0,0,0,9.77,2.08q3.86-.74,8.06-4.77l2.08,1.47A18.25,18.25,0,0,1,20.14,43,16.09,16.09,0,0,1,8.53,39.78,19.63,19.63,0,0,1,.23,26.22C-.63,20.61,1,15.23,4.62,10,8.78,4.24,13.91.94,20,.21A18.89,18.89,0,0,1,34.18,3.75a14.28,14.28,0,0,1,4,4.15,20.86,20.86,0,0,1,2.69,6Z"/></g></g></g></svg>