<svg xmlns="http://www.w3.org/2000/svg" xmlns:xlink="http://www.w3.org/1999/xlink" viewBox="0 0 48.68 43.37"><defs><style>.cls-1{fill:url(#linear-gradient);}</style><linearGradient id="linear-gradient" x1="2004.09" y1="-2888.79" x2="2605.1" y2="-3006.56" gradientTransform="matrix(0.07, 0, 0, -0.07, -146.71, -191.96)" gradientUnits="userSpaceOnUse"><stop offset="0" stop-color="#b3f24e"/><stop offset="1" stop-color="#649e2e"/></linearGradient></defs><g id="Layer_2" data-name="Layer 2"><g id="Layer_1-2" data-name="Layer 1"><g id="Layer_145" data-name="Layer 145"><path class="cls-1" d="M4.83,2.57l.61-2,16.49,4L21.2,7.08c-5.26-.24-9.29.49-12.1,2a11.06,11.06,0,0,0-5.49,6.35,9.91,9.91,0,0,0,.12,6.23,13.12,13.12,0,0,0,4.52,5.86c2.32,1.84,5.74,3.42,10.38,4.77,5.13,1.58,9,2.32,11.85,2.32a10.66,10.66,0,0,0,6.72-2,9.13,9.13,0,0,0,3.54-5.13,9.34,9.34,0,0,0-.37-7.33,9.08,9.08,0,0,0-5.62-4.39l-3.66-1.1a2,2,0,0,0-1.71,0,2.3,2.3,0,0,0-1,1.34l-1.34,4.28-2.44-.74L30.72,0l2.45.73-.74,2.45a3,3,0,0,0,0,2.07,2.09,2.09,0,0,0,1.35,1.1L48.68,11l-.61,2.08-7.82,1.34a17.16,17.16,0,0,1,3.54,7,15.37,15.37,0,0,1-.61,7.69,19.89,19.89,0,0,1-5.74,9.16A19.69,19.69,0,0,1,28,43a23.25,23.25,0,0,1-11.73-1c-6.23-2-10.87-5.5-13.68-10.63A19.62,19.62,0,0,1,1,15.27,16.24,16.24,0,0,1,3.73,10,18.31,18.31,0,0,1,8.49,5.86L4.83,2.57Z"/></g></g></g></svg>