<?xml version="1.0" encoding="UTF-8"?>
<!DOCTYPE svg PUBLIC "-//W3C//DTD SVG 1.1//EN" "http://www.w3.org/Graphics/SVG/1.1/DTD/svg11.dtd">
<!-- Creator: CorelDRAW 2020 (64-Bit) -->
<svg xmlns="http://www.w3.org/2000/svg" xml:space="preserve" width="8.26772in" height="11.6929in" version="1.1" style="shape-rendering:geometricPrecision; text-rendering:geometricPrecision; image-rendering:optimizeQuality; fill-rule:evenodd; clip-rule:evenodd"
viewBox="0 0 8267.72 11692.91"
 xmlns:xlink="http://www.w3.org/1999/xlink"
 xmlns:xodm="http://www.corel.com/coreldraw/odm/2003">
 <defs>
  <style type="text/css">
   <![CDATA[
    .str0 {stroke:#3BB5B6;stroke-width:3;stroke-miterlimit:22.9256}
    .fil105 {fill:#489B45;fill-rule:nonzero}
    .fil38 {fill:#49A346;fill-rule:nonzero}
    .fil107 {fill:#4A9F45;fill-rule:nonzero}
    .fil33 {fill:#4AA346;fill-rule:nonzero}
    .fil29 {fill:#4B9A44;fill-rule:nonzero}
    .fil113 {fill:#4B9C45;fill-rule:nonzero}
    .fil108 {fill:#4C9844;fill-rule:nonzero}
    .fil109 {fill:#4C9D45;fill-rule:nonzero}
    .fil34 {fill:#4CA847;fill-rule:nonzero}
    .fil114 {fill:#4D9141;fill-rule:nonzero}
    .fil111 {fill:#4F9C44;fill-rule:nonzero}
    .fil32 {fill:#50A245;fill-rule:nonzero}
    .fil71 {fill:#50A847;fill-rule:nonzero}
    .fil110 {fill:#519E45;fill-rule:nonzero}
    .fil35 {fill:#529F45;fill-rule:nonzero}
    .fil70 {fill:#55A746;fill-rule:nonzero}
    .fil106 {fill:#569C43;fill-rule:nonzero}
    .fil36 {fill:#569E44;fill-rule:nonzero}
    .fil40 {fill:#56A545;fill-rule:nonzero}
    .fil102 {fill:#579642;fill-rule:nonzero}
    .fil39 {fill:#57A044;fill-rule:nonzero}
    .fil28 {fill:#57AD47;fill-rule:nonzero}
    .fil25 {fill:#58A145;fill-rule:nonzero}
    .fil30 {fill:#58A245;fill-rule:nonzero}
    .fil112 {fill:#599942;fill-rule:nonzero}
    .fil58 {fill:#59AB46;fill-rule:nonzero}
    .fil68 {fill:#5A9140;fill-rule:nonzero}
    .fil31 {fill:#5AA144;fill-rule:nonzero}
    .fil77 {fill:#5BA244;fill-rule:nonzero}
    .fil37 {fill:#5BA444;fill-rule:nonzero}
    .fil80 {fill:#5BA645;fill-rule:nonzero}
    .fil59 {fill:#5BA945;fill-rule:nonzero}
    .fil78 {fill:#5CAE46;fill-rule:nonzero}
    .fil79 {fill:#5DA945;fill-rule:nonzero}
    .fil66 {fill:#5DB046;fill-rule:nonzero}
    .fil93 {fill:#5E9941;fill-rule:nonzero}
    .fil72 {fill:#5FA845;fill-rule:nonzero}
    .fil41 {fill:#60A544;fill-rule:nonzero}
    .fil45 {fill:#60AD45;fill-rule:nonzero}
    .fil69 {fill:#619841;fill-rule:nonzero}
    .fil27 {fill:#61A845;fill-rule:nonzero}
    .fil53 {fill:#61A945;fill-rule:nonzero}
    .fil60 {fill:#61AB45;fill-rule:nonzero}
    .fil73 {fill:#61B146;fill-rule:nonzero}
    .fil55 {fill:#629C42;fill-rule:nonzero}
    .fil26 {fill:#62A844;fill-rule:nonzero}
    .fil99 {fill:#62A945;fill-rule:nonzero}
    .fil57 {fill:#62AC45;fill-rule:nonzero}
    .fil61 {fill:#62AE45;fill-rule:nonzero}
    .fil52 {fill:#63B146;fill-rule:nonzero}
    .fil54 {fill:#64AA44;fill-rule:nonzero}
    .fil115 {fill:#64AD45;fill-rule:nonzero}
    .fil104 {fill:#64AF45;fill-rule:nonzero}
    .fil117 {fill:#64B846;fill-rule:nonzero}
    .fil74 {fill:#65AB45;fill-rule:nonzero}
    .fil98 {fill:#65B045;fill-rule:nonzero}
    .fil51 {fill:#65B245;fill-rule:nonzero}
    .fil116 {fill:#65B946;fill-rule:nonzero}
    .fil75 {fill:#66AB44;fill-rule:nonzero}
    .fil65 {fill:#66AE45;fill-rule:nonzero}
    .fil67 {fill:#67A443;fill-rule:nonzero}
    .fil103 {fill:#67A844;fill-rule:nonzero}
    .fil63 {fill:#67AF45;fill-rule:nonzero}
    .fil76 {fill:#68AF44;fill-rule:nonzero}
    .fil24 {fill:#69AF44;fill-rule:nonzero}
    .fil64 {fill:#69B044;fill-rule:nonzero}
    .fil56 {fill:#69B945;fill-rule:nonzero}
    .fil96 {fill:#6AB745;fill-rule:nonzero}
    .fil81 {fill:#6BB044;fill-rule:nonzero}
    .fil97 {fill:#6BB745;fill-rule:nonzero}
    .fil62 {fill:#6CA442;fill-rule:nonzero}
    .fil100 {fill:#6CAF44;fill-rule:nonzero}
    .fil101 {fill:#6DA84A;fill-rule:nonzero}
    .fil95 {fill:#6FB444;fill-rule:nonzero}
    .fil42 {fill:#6FB544;fill-rule:nonzero}
    .fil85 {fill:#6FB844;fill-rule:nonzero}
    .fil49 {fill:#70B744;fill-rule:nonzero}
    .fil119 {fill:#70B844;fill-rule:nonzero}
    .fil94 {fill:#70B944;fill-rule:nonzero}
    .fil120 {fill:#70BF44;fill-rule:nonzero}
    .fil46 {fill:#72B944;fill-rule:nonzero}
    .fil87 {fill:#73B644;fill-rule:nonzero}
    .fil118 {fill:#73BC44;fill-rule:nonzero}
    .fil92 {fill:#74B243;fill-rule:nonzero}
    .fil86 {fill:#75BB43;fill-rule:nonzero}
    .fil91 {fill:#75BE43;fill-rule:nonzero}
    .fil50 {fill:#76BF43;fill-rule:nonzero}
    .fil84 {fill:#77B743;fill-rule:nonzero}
    .fil83 {fill:#77C153;fill-rule:nonzero}
    .fil47 {fill:#78B943;fill-rule:nonzero}
    .fil89 {fill:#78BC43;fill-rule:nonzero}
    .fil88 {fill:#78BE43;fill-rule:nonzero}
    .fil82 {fill:#78C143;fill-rule:nonzero}
    .fil43 {fill:#78C145;fill-rule:nonzero}
    .fil121 {fill:#79AA41;fill-rule:nonzero}
    .fil44 {fill:#79BA43;fill-rule:nonzero}
    .fil128 {fill:#79C143;fill-rule:nonzero}
    .fil48 {fill:#7ABB43;fill-rule:nonzero}
    .fil90 {fill:#7FB342;fill-rule:nonzero}
    .fil22 {fill:#7FC042;fill-rule:nonzero}
    .fil23 {fill:#7FC342;fill-rule:nonzero}
    .fil127 {fill:#7FC344;fill-rule:nonzero}
    .fil122 {fill:#81C341;fill-rule:nonzero}
    .fil126 {fill:#82C341;fill-rule:nonzero}
    .fil123 {fill:#83C447;fill-rule:nonzero}
    .fil124 {fill:#85C443;fill-rule:nonzero}
    .fil125 {fill:#86C440;fill-rule:nonzero}
    .fil131 {fill:url(#id0);fill-rule:nonzero}
    .fil129 {fill:url(#id1);fill-rule:nonzero}
    .fil137 {fill:url(#id2);fill-rule:nonzero}
    .fil144 {fill:url(#id3);fill-rule:nonzero}
    .fil143 {fill:url(#id4);fill-rule:nonzero}
    .fil132 {fill:url(#id5);fill-rule:nonzero}
    .fil130 {fill:url(#id6);fill-rule:nonzero}
    .fil136 {fill:url(#id7);fill-rule:nonzero}
    .fil141 {fill:url(#id8);fill-rule:nonzero}
    .fil133 {fill:url(#id9);fill-rule:nonzero}
    .fil134 {fill:url(#id10);fill-rule:nonzero}
    .fil139 {fill:url(#id11);fill-rule:nonzero}
    .fil135 {fill:url(#id12);fill-rule:nonzero}
    .fil142 {fill:url(#id13);fill-rule:nonzero}
    .fil140 {fill:url(#id14);fill-rule:nonzero}
    .fil138 {fill:url(#id15);fill-rule:nonzero}
    .fil11 {fill:url(#id16);fill-rule:nonzero}
    .fil12 {fill:url(#id17);fill-rule:nonzero}
    .fil21 {fill:url(#id18);fill-rule:nonzero}
    .fil1 {fill:url(#id19);fill-rule:nonzero}
    .fil0 {fill:url(#id20);fill-rule:nonzero}
    .fil3 {fill:url(#id21);fill-rule:nonzero}
    .fil6 {fill:url(#id22);fill-rule:nonzero}
    .fil4 {fill:url(#id23);fill-rule:nonzero}
    .fil2 {fill:url(#id24);fill-rule:nonzero}
    .fil10 {fill:url(#id25);fill-rule:nonzero}
    .fil13 {fill:url(#id26);fill-rule:nonzero}
    .fil9 {fill:url(#id27);fill-rule:nonzero}
    .fil19 {fill:url(#id28);fill-rule:nonzero}
    .fil20 {fill:url(#id29);fill-rule:nonzero}
    .fil8 {fill:url(#id30);fill-rule:nonzero}
    .fil15 {fill:url(#id31);fill-rule:nonzero}
    .fil7 {fill:url(#id32);fill-rule:nonzero}
    .fil5 {fill:url(#id33);fill-rule:nonzero}
    .fil16 {fill:url(#id34);fill-rule:nonzero}
    .fil17 {fill:url(#id35);fill-rule:nonzero}
    .fil18 {fill:url(#id36);fill-rule:nonzero}
    .fil14 {fill:url(#id37);fill-rule:nonzero}
   ]]>
  </style>
  <linearGradient id="id0" gradientUnits="userSpaceOnUse" x1="6585.07" y1="8484.41" x2="6322.44" y2="8197.16">
   <stop offset="0" style="stop-opacity:1; stop-color:#428DE3"/>
   <stop offset="1" style="stop-opacity:1; stop-color:#3AB1CF"/>
  </linearGradient>
  <linearGradient id="id1" gradientUnits="userSpaceOnUse" x1="7175.98" y1="7852.46" x2="6847.7" y2="7647.29">
   <stop offset="0" style="stop-opacity:1; stop-color:#428DE3"/>
   <stop offset="1" style="stop-opacity:1; stop-color:#3BAED0"/>
  </linearGradient>
  <linearGradient id="id2" gradientUnits="userSpaceOnUse" x1="3827.5" y1="9387.18" x2="3835.71" y2="9001.45">
   <stop offset="0" style="stop-opacity:1; stop-color:#428DE3"/>
   <stop offset="1" style="stop-opacity:1; stop-color:#3AB7CD"/>
  </linearGradient>
  <linearGradient id="id3" gradientUnits="userSpaceOnUse" x1="1086.34" y1="7836.05" x2="1385.9" y2="7606.25">
   <stop offset="0" style="stop-opacity:1; stop-color:#428DE3"/>
   <stop offset="1" style="stop-opacity:1; stop-color:#36C9C1"/>
  </linearGradient>
  <linearGradient id="id4" gradientUnits="userSpaceOnUse" x1="1312.04" y1="8086.36" x2="1582.87" y2="7844.26">
   <stop offset="0" style="stop-opacity:1; stop-color:#428DE3"/>
   <stop offset="1" style="stop-opacity:1; stop-color:#36C8C2"/>
  </linearGradient>
  <linearGradient id="id5" gradientUnits="userSpaceOnUse" x1="6232.17" y1="8767.55" x2="6010.58" y2="8447.48">
   <stop offset="0" style="stop-opacity:1; stop-color:#428DE3"/>
   <stop offset="1" style="stop-opacity:1; stop-color:#3AB2CE"/>
  </linearGradient>
  <linearGradient id="id6" gradientUnits="userSpaceOnUse" x1="6912.35" y1="8178.21" x2="6630.21" y2="7901.7">
   <stop offset="0" style="stop-opacity:1; stop-color:#428DE3"/>
   <stop offset="1" style="stop-opacity:1; stop-color:#3AB1CE"/>
  </linearGradient>
  <linearGradient id="id7" gradientUnits="userSpaceOnUse" x1="4274.79" y1="9395.39" x2="4270.69" y2="9017.86">
   <stop offset="0" style="stop-opacity:1; stop-color:#5388CC"/>
   <stop offset="1" style="stop-opacity:1; stop-color:#3AB6CD"/>
  </linearGradient>
  <linearGradient id="id8" gradientUnits="userSpaceOnUse" x1="1874.22" y1="8632.13" x2="2099.92" y2="8340.78">
   <stop offset="0" style="stop-opacity:1; stop-color:#428DE3"/>
   <stop offset="1" style="stop-opacity:1; stop-color:#38BFC7"/>
  </linearGradient>
  <linearGradient id="id9" gradientUnits="userSpaceOnUse" x1="5702.2" y1="9056.81" x2="5542.78" y2="8710.1">
   <stop offset="0" style="stop-opacity:1; stop-color:#428DE3"/>
   <stop offset="1" style="stop-opacity:1; stop-color:#3AB3CE"/>
  </linearGradient>
  <linearGradient id="id10" gradientUnits="userSpaceOnUse" x1="5271.94" y1="9231.25" x2="5140.63" y2="8857.82">
   <stop offset="0" style="stop-opacity:1; stop-color:#428DE3"/>
   <stop offset="1" style="stop-opacity:1; stop-color:#3AB4CD"/>
  </linearGradient>
  <linearGradient id="id11" gradientUnits="userSpaceOnUse" x1="2912.41" y1="9190.21" x2="3035.52" y2="8816.8">
   <stop offset="0" style="stop-opacity:1; stop-color:#428DE3"/>
   <stop offset="1" style="stop-opacity:1; stop-color:#39BBCA"/>
  </linearGradient>
  <linearGradient id="id12" gradientUnits="userSpaceOnUse" x1="4836.97" y1="9333.84" x2="4759" y2="8960.42">
   <stop offset="0" style="stop-opacity:1; stop-color:#428DE3"/>
   <stop offset="1" style="stop-opacity:1; stop-color:#3AB5CD"/>
  </linearGradient>
  <linearGradient id="id13" gradientUnits="userSpaceOnUse" x1="1529.52" y1="8336.68" x2="1808.57" y2="8065.85">
   <stop offset="0" style="stop-opacity:1; stop-color:#428DE3"/>
   <stop offset="1" style="stop-opacity:1; stop-color:#37C4C4"/>
  </linearGradient>
  <linearGradient id="id14" gradientUnits="userSpaceOnUse" x1="2415.89" y1="8980.93" x2="2604.65" y2="8640.34">
   <stop offset="0" style="stop-opacity:1; stop-color:#428DE3"/>
   <stop offset="1" style="stop-opacity:1; stop-color:#39BCC9"/>
  </linearGradient>
  <linearGradient id="id15" gradientUnits="userSpaceOnUse" x1="3400.73" y1="9325.63" x2="3454.08" y2="8944">
   <stop offset="0" style="stop-opacity:1; stop-color:#428DE3"/>
   <stop offset="1" style="stop-opacity:1; stop-color:#3AB8CC"/>
  </linearGradient>
  <linearGradient id="id16" gradientUnits="userSpaceOnUse" x1="1488.49" y1="3379.61" x2="1883.07" y2="3812.55">
   <stop offset="0" style="stop-opacity:1; stop-color:#ABE94B"/>
   <stop offset="1" style="stop-opacity:1; stop-color:#65BC46"/>
  </linearGradient>
  <linearGradient id="id17" gradientUnits="userSpaceOnUse" x1="2137.54" y1="2794.68" x2="2493.79" y2="3439.33">
   <stop offset="0" style="stop-opacity:1; stop-color:#A9E84B"/>
   <stop offset="1" style="stop-opacity:1; stop-color:#65BC46"/>
  </linearGradient>
  <linearGradient id="id18" gradientUnits="userSpaceOnUse" x1="4105.42" y1="8643.07" x2="4156.31" y2="3316.22">
   <stop offset="0" style="stop-opacity:1; stop-color:#B7EA51"/>
   <stop offset="1" style="stop-opacity:1; stop-color:#429521"/>
  </linearGradient>
  <linearGradient id="id19" gradientUnits="objectBoundingBox" x1="12.0988%" y1="70.2071%" x2="88.6409%" y2="5.44135%">
   <stop offset="0" style="stop-opacity:1; stop-color:#0B496E"/>
   <stop offset="0.0313725" style="stop-opacity:1; stop-color:#0B496E"/>
   <stop offset="0.431373" style="stop-opacity:1; stop-color:#3FB6B2"/>
   <stop offset="0.74902" style="stop-opacity:1; stop-color:#64AEDE"/>
   <stop offset="0.988235" style="stop-opacity:1; stop-color:#6BA8CE"/>
   <stop offset="1" style="stop-opacity:1; stop-color:#6BA8CE"/>
  </linearGradient>
  <linearGradient id="id20" gradientUnits="objectBoundingBox" x1="13.2811%" y1="79.1045%" x2="78.385%" y2="14.4274%">
   <stop offset="0" style="stop-opacity:1; stop-color:#DAE8A9"/>
   <stop offset="0.0313725" style="stop-opacity:1; stop-color:#DAE8A9"/>
   <stop offset="0.509804" style="stop-opacity:1; stop-color:#96CBBC"/>
   <stop offset="0.74902" style="stop-opacity:1; stop-color:#7BC3C9"/>
   <stop offset="0.988235" style="stop-opacity:1; stop-color:#9BD3B5"/>
   <stop offset="1" style="stop-opacity:1; stop-color:#9BD3B5"/>
  </linearGradient>
  <linearGradient id="id21" gradientUnits="objectBoundingBox" x1="0%" y1="48.4125%" x2="99.4292%" y2="48.4125%">
   <stop offset="0" style="stop-opacity:1; stop-color:#106279"/>
   <stop offset="0.439216" style="stop-opacity:1; stop-color:#106279"/>
   <stop offset="0.988235" style="stop-opacity:1; stop-color:#114264"/>
   <stop offset="1" style="stop-opacity:1; stop-color:#114264"/>
  </linearGradient>
  <linearGradient id="id22" gradientUnits="objectBoundingBox" x1="49.2949%" y1="89.9593%" x2="49.2949%" y2="5.62217%">
   <stop offset="0" style="stop-opacity:1; stop-color:#73B4E2"/>
   <stop offset="1" style="stop-opacity:1; stop-color:#5488C7"/>
  </linearGradient>
  <linearGradient id="id23" gradientUnits="objectBoundingBox" x1="0%" y1="69.663%" x2="97.8458%" y2="58.4277%">
   <stop offset="0" style="stop-opacity:1; stop-color:#106279"/>
   <stop offset="0.258824" style="stop-opacity:1; stop-color:#106279"/>
   <stop offset="0.988235" style="stop-opacity:1; stop-color:#29BEC5"/>
   <stop offset="1" style="stop-opacity:1; stop-color:#29BEC5"/>
  </linearGradient>
  <linearGradient id="id24" gradientUnits="objectBoundingBox" x1="3.3455%" y1="77.6119%" x2="81.4129%" y2="14.9253%">
   <stop offset="0" style="stop-opacity:1; stop-color:#4D9CCF"/>
   <stop offset="0.180392" style="stop-opacity:1; stop-color:#4D9CCF"/>
   <stop offset="1" style="stop-opacity:1; stop-color:#58B1E1"/>
  </linearGradient>
  <linearGradient id="id25" gradientUnits="userSpaceOnUse" xlink:href="#id16" x1="965.85" y1="4102.09" x2="1472.07" y2="4426.01">
  </linearGradient>
  <linearGradient id="id26" gradientUnits="userSpaceOnUse" x1="2985.76" y1="2336.64" x2="3207.87" y2="3088.26">
   <stop offset="0" style="stop-opacity:1; stop-color:#9FE24A"/>
   <stop offset="1" style="stop-opacity:1; stop-color:#71C447"/>
  </linearGradient>
  <linearGradient id="id27" gradientUnits="userSpaceOnUse" x1="469.5" y1="4964.36" x2="1070.51" y2="5082.13">
   <stop offset="0" style="stop-opacity:1; stop-color:#B3F24E"/>
   <stop offset="1" style="stop-opacity:1; stop-color:#649E2E"/>
  </linearGradient>
  <linearGradient id="id28" gradientUnits="userSpaceOnUse" x1="7447.42" y1="4324.77" x2="6904.56" y2="4606.39">
   <stop offset="0" style="stop-opacity:1; stop-color:#8FD849"/>
   <stop offset="1" style="stop-opacity:1; stop-color:#85D147"/>
  </linearGradient>
  <linearGradient id="id29" gradientUnits="userSpaceOnUse" x1="7770.99" y1="5029.23" x2="7108.13" y2="5218.24">
   <stop offset="0" style="stop-opacity:1; stop-color:#8FD849"/>
   <stop offset="1" style="stop-opacity:1; stop-color:#87D347"/>
  </linearGradient>
  <linearGradient id="id30" gradientUnits="userSpaceOnUse" x1="7169.15" y1="6467.49" x2="8102.2" y2="5805.88">
   <stop offset="0" style="stop-opacity:1; stop-color:#6BC390"/>
   <stop offset="0.0313725" style="stop-opacity:1; stop-color:#6BC390"/>
   <stop offset="0.509804" style="stop-opacity:1; stop-color:#3FB6B2"/>
   <stop offset="0.74902" style="stop-opacity:1; stop-color:#40B6B0"/>
   <stop offset="0.988235" style="stop-opacity:1; stop-color:#9BD3B5"/>
   <stop offset="1" style="stop-opacity:1; stop-color:#9BD3B5"/>
  </linearGradient>
  <linearGradient id="id31" gradientUnits="userSpaceOnUse" x1="4730.2" y1="2319.67" x2="4612.42" y2="2998.26">
   <stop offset="0" style="stop-opacity:1; stop-color:#95DB49"/>
   <stop offset="1" style="stop-opacity:1; stop-color:#7CCB47"/>
  </linearGradient>
  <linearGradient id="id32" gradientUnits="objectBoundingBox" x1="13.1095%" y1="67.1959%" x2="84.7565%" y2="24.8681%">
   <stop offset="0" style="stop-opacity:1; stop-color:#E8EA7D"/>
   <stop offset="0.129412" style="stop-opacity:1; stop-color:#E8EA7D"/>
   <stop offset="0.521569" style="stop-opacity:1; stop-color:#AEDBC7"/>
   <stop offset="1" style="stop-opacity:1; stop-color:#63C9DC"/>
  </linearGradient>
  <linearGradient id="id33" gradientUnits="userSpaceOnUse" xlink:href="#id30" x1="347.89" y1="6398.89" x2="1280.93" y2="5737.27">
  </linearGradient>
  <linearGradient id="id34" gradientUnits="userSpaceOnUse" x1="5632.22" y1="2591.11" x2="5309.89" y2="3150.94">
   <stop offset="0" style="stop-opacity:1; stop-color:#93DA49"/>
   <stop offset="1" style="stop-opacity:1; stop-color:#80CE47"/>
  </linearGradient>
  <linearGradient id="id35" gradientUnits="userSpaceOnUse" x1="6347.59" y1="3004.79" x2="6012.81" y2="3503.3">
   <stop offset="0" style="stop-opacity:1; stop-color:#91D949"/>
   <stop offset="1" style="stop-opacity:1; stop-color:#82D047"/>
  </linearGradient>
  <linearGradient id="id36" gradientUnits="userSpaceOnUse" x1="7023.31" y1="3541.12" x2="6497.41" y2="4050.06">
   <stop offset="0" style="stop-opacity:1; stop-color:#90D949"/>
   <stop offset="1" style="stop-opacity:1; stop-color:#83D047"/>
  </linearGradient>
  <linearGradient id="id37" gradientUnits="userSpaceOnUse" x1="3834.86" y1="2319.67" x2="3934.19" y2="2997.98">
   <stop offset="0" style="stop-opacity:1; stop-color:#96DC49"/>
   <stop offset="1" style="stop-opacity:1; stop-color:#76C747"/>
  </linearGradient>
 </defs>
 <g id="Layer_x0020_1">
  <metadata id="CorelCorpID_0Corel-Layer"/>
  <g id="_1898274580576">
   <g>
    <path class="fil0" d="M827.99 6249.6l135.71 33.93 -262.94 212.06 -335.9 435.98c0,0 -52.59,-127.23 127.23,-337.59 179.83,-210.36 334.2,-301.96 335.9,-344.37z"/>
    <path class="fil1" d="M366.55 6933.27c0,0 89.91,-123.84 281.61,-235.81 0,0 -18.66,-105.18 154.38,-251.08 0,0 13.57,-23.75 251.07,-162.86l-93.31 -5.09c-1.7,0.01 -534.38,259.56 -593.76,654.83z"/>
    <path class="fil2" d="M366.55 6933.27c0,0 213.75,-390.18 456.34,-568.31 -1.69,0 -400.36,217.15 -456.34,568.31z"/>
    <path class="fil3" d="M503.96 5815.31c0,0 11.88,-62.77 196.79,-47.5 186.61,15.27 396.97,83.13 396.97,83.13l-76.34 115.36 -212.06 -28.84c0,-1.7 -110.27,-117.06 -305.36,-122.15z"/>
    <path class="fil4" d="M1055.31 5772.89l-79.73 157.77c0,0 -286.7,-130.63 -471.61,-117.06 -0.01,1.7 54.28,-184.91 551.34,-40.72z"/>
    <path class="fil5" d="M939.95 6297.1c-50.89,-6.79 -447.86,-103.48 -515.72,-111.96 -134.02,-16.97 -279.91,-25.45 -356.26,6.79 0,0 83.13,-218.84 719.3,-55.98 0,0 391.88,110.27 410.54,-186.61 0,0 -157.77,-120.44 144.2,-359.65 10.18,-8.48 23.75,-39.02 35.63,-47.5 0,0 -40.71,69.56 -47.5,147.59 -6.79,78.04 11.88,201.88 6.79,285 -5.09,79.73 -40.72,312.15 -318.93,322.33m-78.04 -0l0 0 0 0z"/>
    <path class="fil6" d="M1377.59 5542.13c-7.86,2.96 -36.75,56.37 -79.69,54.33 -49.2,-3.39 -52.59,-69.56 -152.68,-69.56 -101.79,0 -123.84,88.22 -125.54,118.76 -1.69,30.54 5.09,303.66 5.09,303.66l195.09 0 0 -235.81c0,1.7 110.04,-76.34 157.72,-171.39z"/>
    <path class="fil7" d="M168.07 6113.88c0,0 242.59,-201.87 661.61,-184.91 0,0 363.04,28.83 390.18,15.27 0,0 61.07,288.39 -391.88,213.75 -452.95,-74.64 -374.91,-69.55 -659.92,-44.11z"/>
   </g>
   <g>
    <path class="fil0" d="M7649.25 6318.21l135.71 33.93 -262.94 212.06 -335.9 435.98c0,0 -52.59,-127.23 127.23,-337.59 179.83,-210.36 334.2,-301.96 335.9,-344.37z"/>
    <path class="fil1" d="M7187.81 7001.87c0,0 89.91,-123.84 281.61,-235.81 0,0 -18.66,-105.18 154.38,-251.08 0,0 13.57,-23.75 251.07,-162.86l-93.31 -5.09c-1.7,0.01 -534.38,259.56 -593.76,654.83z"/>
    <path class="fil2" d="M7187.81 7001.87c0,0 213.75,-390.18 456.34,-568.31 -1.69,0 -400.36,217.15 -456.34,568.31z"/>
    <path class="fil3" d="M7325.22 5883.91c0,0 11.88,-62.77 196.79,-47.5 186.61,15.27 396.97,83.13 396.97,83.13l-76.34 115.36 -212.06 -28.84c0,-1.7 -110.27,-117.06 -305.36,-122.15z"/>
    <path class="fil4" d="M7876.57 5841.5l-79.73 157.77c0,0 -286.7,-130.63 -471.61,-117.06 -0.01,1.7 54.28,-184.91 551.34,-40.72z"/>
    <path class="fil8" d="M7761.22 6365.7c-50.89,-6.79 -447.86,-103.48 -515.72,-111.96 -134.02,-16.97 -279.91,-25.45 -356.26,6.79 0,0 83.13,-218.84 719.3,-55.98 0,0 391.88,110.27 410.54,-186.61 0,0 -157.77,-120.44 144.2,-359.65 10.18,-8.48 23.75,-39.02 35.63,-47.5 0,0 -40.71,69.56 -47.5,147.59 -6.79,78.04 11.88,201.88 6.79,285 -5.09,79.73 -40.72,312.15 -318.93,322.33m-78.04 -0l0 0 0 0z"/>
    <path class="fil6" d="M8198.85 5610.74c-7.86,2.96 -36.75,56.37 -79.69,54.33 -49.2,-3.39 -52.59,-69.56 -152.68,-69.56 -101.79,0 -123.84,88.22 -125.54,118.76 -1.69,30.54 5.09,303.66 5.09,303.66l195.09 0 0 -235.81c0,1.7 110.04,-76.34 157.72,-171.39z"/>
    <path class="fil7" d="M6989.33 6182.49c0,0 242.59,-201.87 661.61,-184.91 0,0 363.04,28.83 390.18,15.27 0,0 61.07,288.39 -391.88,213.75 -452.95,-74.64 -374.91,-69.55 -659.92,-44.11z"/>
   </g>
   <path class="fil9" d="M568.32 4786.31l8.48 -27.15 229.02 55.98 -10.18 33.93c-72.95,-3.39 -128.93,6.79 -167.95,27.15 -39.02,22.06 -64.46,50.89 -76.34,88.22 -8.48,28.84 -8.48,57.68 1.7,86.52 10.18,28.84 30.54,55.98 62.77,81.43 32.23,25.45 79.73,47.5 144.2,66.16 71.25,22.06 125.54,32.24 164.56,32.24 37.32,0 69.55,-8.48 93.31,-27.15 23.75,-16.97 40.71,-40.72 49.19,-71.25 11.88,-39.02 10.18,-72.95 -5.09,-101.79 -15.27,-28.84 -40.72,-49.19 -78.04,-61.07l-50.89 -15.27c-10.18,-3.39 -16.96,-3.39 -23.75,0 -6.79,3.39 -10.18,10.18 -13.57,18.66l-18.66 59.37 -33.93 -10.18 84.82 -271.43 33.93 10.18 -10.18 33.93c-3.39,11.88 -3.39,22.06 0,28.84 3.39,6.79 8.48,11.88 18.66,15.27l206.96 64.46 -8.48 28.84 -108.57 18.66c25.45,32.24 42.41,64.46 49.2,96.7 6.79,32.24 3.39,67.86 -8.48,106.88 -15.27,50.89 -42.41,93.31 -79.73,127.23 -37.32,33.93 -81.43,55.98 -130.62,66.16 -49.2,10.18 -103.49,5.09 -162.86,-13.57 -86.52,-27.15 -150.98,-76.34 -190,-147.59 -39.02,-71.25 -47.5,-145.89 -22.06,-223.93 8.48,-28.84 22.06,-52.59 37.32,-72.95 15.27,-20.36 37.33,-39.02 66.16,-57.68l-50.9 -45.79z"/>
   <path class="fil10" d="M770.19 4346.93l161.16 -261.26c25.45,-42.41 52.59,-72.95 79.73,-93.31 27.15,-20.36 54.28,-30.54 81.43,-32.24 27.15,-1.7 52.59,5.09 74.64,18.66 37.32,22.06 55.98,57.68 59.37,105.18 1.7,35.63 -10.18,81.43 -37.32,137.41 20.35,-23.75 39.02,-39.02 57.68,-47.5 18.66,-8.48 39.02,-11.88 64.46,-11.88 33.93,0 69.56,6.79 108.57,18.66 25.45,8.48 42.41,11.88 50.89,10.18 8.48,0 13.57,-3.39 16.97,-8.48 8.48,-15.27 -5.09,-35.63 -42.41,-62.77l18.66 -30.54c40.72,28.84 64.46,55.98 72.95,83.13 8.48,27.15 3.39,55.98 -15.27,86.52 -13.57,22.06 -28.84,35.62 -45.8,44.1 -16.96,6.79 -35.63,10.18 -57.68,5.09 -11.88,-1.7 -39.02,-10.18 -78.04,-25.44 -47.5,-16.97 -79.73,-27.15 -98.39,-30.54 -18.66,-1.7 -33.93,0 -47.5,6.79 -13.57,6.79 -25.45,16.96 -33.93,32.23l-22.06 37.32 184.92 113.67c8.48,5.09 15.27,6.79 23.75,5.09 10.18,-3.39 16.96,-10.18 23.75,-18.66l27.15 -45.8 32.23 18.66 -156.07 252.77 -32.23 -18.66 23.75 -39.02c6.79,-10.18 8.48,-18.66 6.79,-27.15 -1.7,-8.48 -8.48,-15.27 -16.97,-22.06l-376.61 -232.41c-10.18,-6.79 -18.66,-8.48 -27.15,-6.79 -8.48,1.7 -13.57,6.79 -20.36,15.27l-27.15 42.41 -33.91 -18.65zm335.9 -37.32l25.45 -42.41c23.75,-37.32 32.23,-72.95 25.44,-106.88 -5.09,-25.44 -23.75,-49.19 -59.37,-69.55 -32.23,-20.36 -61.07,-25.44 -84.82,-18.66 -25.45,6.79 -49.2,30.54 -72.95,69.55 -13.57,20.36 -18.66,35.63 -16.97,44.11 1.7,8.48 10.18,16.96 25.45,27.15l157.77 96.7z"/>
   <path class="fil11" d="M1285.92 3590.31l364.74 -359.65 152.68 139.11 -25.44 23.75c-40.72,-28.84 -71.25,-45.8 -95,-52.59 -23.75,-6.79 -45.8,-6.79 -67.86,0 -22.06,6.79 -44.11,20.35 -67.86,44.1l-57.68 55.98c-8.48,8.48 -13.57,16.96 -13.57,23.75 0,6.79 1.7,13.57 8.48,20.36l142.5 145.89 20.36 -18.66c22.06,-22.06 33.93,-45.8 33.93,-71.25 0,-25.45 -13.57,-52.59 -39.02,-83.13l25.45 -25.44 191.7 195.09 -25.45 25.45c-33.93,-30.54 -62.77,-45.8 -88.22,-47.5 -25.45,-1.7 -50.89,10.18 -76.34,35.63l-16.96 15.27 152.68 154.38c6.79,6.79 13.57,10.18 20.36,8.48 10.18,-1.7 20.35,-8.48 32.23,-18.66l50.89 -49.2c33.93,-33.93 52.59,-72.95 52.59,-117.06 0,-44.1 -18.66,-89.91 -57.68,-140.8l25.45 -25.44 150.98 166.25 -380 374.91 -25.45 -27.14 37.32 -37.33c8.48,-8.48 13.57,-16.96 13.57,-25.44 0,-8.48 -3.39,-16.97 -10.18,-23.75l-317.24 -322.33c-6.79,-6.79 -13.57,-10.18 -22.06,-8.48 -6.79,1.7 -16.96,6.79 -28.84,18.66l-33.93 32.24 -27.13 -25.44z"/>
   <path class="fil12" d="M1942.44 2996.56l437.68 -266.35 117.06 169.65 -30.54 18.66c-32.23,-37.32 -59.37,-61.07 -81.43,-72.95 -22.06,-11.88 -44.11,-16.97 -66.16,-15.27 -22.06,1.7 -47.5,10.18 -74.64,27.14l-67.86 42.41c-10.18,6.79 -16.96,13.57 -18.66,20.36 -1.7,6.79 -1.7,13.57 3.39,22.06l105.18 174.74 23.75 -13.57c27.15,-16.97 42.41,-37.33 49.19,-61.07 5.09,-23.75 0,-54.28 -18.66,-89.91l30.54 -18.66 142.5 234.11 -30.54 18.66c-25.44,-37.32 -50.89,-59.37 -74.64,-66.16 -23.75,-6.79 -52.59,-1.7 -81.43,16.97l-18.66 11.87 111.96 186.61c5.09,8.48 10.18,11.88 16.97,13.57 10.18,0 22.06,-3.39 35.62,-11.87l61.07 -37.33c40.71,-25.44 67.86,-59.37 78.04,-101.78 10.18,-42.41 1.7,-91.61 -23.75,-149.29l30.54 -18.66 108.57 195.09 -456.35 276.52 -18.66 -32.23 45.8 -27.15c10.18,-6.79 16.97,-13.57 18.66,-22.06 1.7,-8.48 0,-16.97 -5.09,-25.45l-239.21 -388.49c-5.09,-8.48 -11.87,-11.88 -18.66,-13.57 -6.78,-1.69 -18.66,3.39 -32.24,11.88l-39.02 23.75 -20.35 -32.23z"/>
   <path class="fil13" d="M2724.5 2565.65l174.74 -54.28 424.11 290.09 -81.43 -261.26c-8.48,-25.44 -22.06,-44.11 -40.71,-55.98 -20.36,-10.18 -42.41,-13.57 -71.25,-6.79l-10.18 -35.63 205.28 -64.46 10.18 35.63c-27.15,11.87 -45.8,27.15 -54.28,44.1 -8.48,18.66 -8.48,40.72 0,67.86l135.71 437.69 -44.11 13.57 -483.49 -335.89 95 307.06c10.18,35.62 27.15,57.68 47.5,69.55 20.35,11.87 44.11,13.57 67.86,5.09l10.18 -3.39 10.18 35.63 -227.32 71.25 -10.18 -35.63 15.27 -5.09c22.06,-6.79 39.02,-22.06 47.5,-44.1 10.18,-22.06 10.18,-47.5 1.7,-74.65l-111.97 -363.04c-23.75,-16.97 -49.19,-22.06 -74.64,-13.57l-25.44 8.48 -10.2 -32.24z"/>
   <path class="fil14" d="M4015.51 2350.21l33.93 -54.28 28.84 -1.7 16.96 201.87 -35.62 1.7c-22.06,-57.68 -52.59,-98.4 -88.22,-125.54 -35.62,-27.14 -74.64,-39.02 -115.35,-35.63 -35.63,1.7 -62.77,13.57 -83.13,33.93 -20.35,20.36 -30.54,44.11 -28.83,71.25 1.7,15.27 6.79,30.54 15.27,42.41 10.18,11.88 23.75,23.75 44.1,30.54 20.36,8.48 54.29,15.27 103.49,22.06 57.68,8.48 98.39,15.27 120.44,23.75 35.63,13.57 62.77,32.24 81.43,55.98 18.66,23.75 30.54,54.28 32.24,89.91 3.39,54.28 -11.88,98.4 -47.5,134.02 -42.41,42.41 -96.7,64.46 -162.86,69.56 -61.07,3.39 -118.76,-13.57 -171.34,-52.59l-42.41 61.07 -28.84 1.7 -15.27 -217.14 35.63 -1.7c42.41,122.15 117.06,178.13 223.93,171.34 44.11,-3.39 76.34,-15.27 98.4,-37.33 22.06,-22.06 32.23,-47.5 30.54,-78.04 -1.7,-20.36 -8.48,-37.33 -18.66,-50.89 -11.88,-13.57 -28.84,-23.75 -50.89,-30.54 -11.88,-3.39 -42.41,-10.18 -91.61,-16.96 -66.16,-10.18 -113.67,-22.06 -140.8,-33.93 -28.84,-13.57 -50.89,-30.54 -64.46,-50.89 -15.27,-20.35 -22.06,-47.5 -25.44,-79.73 -3.39,-52.59 11.88,-98.4 44.11,-134.02 33.93,-35.63 79.73,-55.98 140.8,-61.07 55.98,-3.39 110.27,13.57 161.16,50.9z"/>
   <path class="fil15" d="M4465.06 2309.5l340.98 52.59c57.68,8.48 101.79,30.54 132.32,67.86 30.54,37.32 42.41,76.34 35.63,122.14 -5.09,33.93 -20.35,62.77 -44.11,84.82 -23.75,22.06 -54.28,37.32 -89.91,42.41 -35.63,6.79 -71.25,6.79 -103.48,1.7l-106.88 -16.96 -28.83 190c-1.7,10.18 0,18.66 5.09,25.44 5.09,6.79 11.88,10.18 22.06,11.88l66.16 10.18 -5.09 37.33 -310.45 -47.5 5.09 -37.32 52.59 8.48c11.87,1.7 20.35,0 27.14,-5.09 6.79,-5.09 10.18,-11.88 11.88,-23.75l67.86 -442.78c1.7,-10.18 0,-18.66 -5.09,-25.44 -5.09,-6.79 -11.88,-10.18 -20.36,-11.88l-55.98 -8.48 3.38 -35.63zm167.95 318.93l71.25 10.18c25.45,3.39 47.5,1.7 69.56,-5.09 20.36,-8.48 37.32,-18.66 47.5,-32.24 10.18,-13.57 18.66,-39.02 23.75,-72.95 6.79,-47.5 0,-83.13 -22.06,-105.18 -16.96,-16.96 -47.5,-28.84 -91.61,-35.63 -25.45,-3.39 -42.41,-5.09 -50.89,-1.7 -8.48,3.39 -11.88,10.18 -13.57,20.36l-33.93 222.24z"/>
   <path class="fil16" d="M5599.99 2577.53l5.09 571.7c0,16.97 3.39,28.84 8.48,35.63 5.09,8.48 13.57,13.57 23.75,18.66l20.35 8.48 -13.57 33.93 -256.17 -103.48 13.57 -33.93 23.75 10.18c18.66,8.48 32.24,10.18 42.41,10.18 8.48,-1.7 15.27,-5.09 16.97,-11.88 1.7,-5.09 3.39,-11.87 3.39,-20.35l-1.7 -118.76 -203.57 -83.13 -37.32 37.32c-15.27,15.27 -25.45,28.84 -28.84,37.32 -6.79,15.27 -5.09,30.54 1.7,45.81 8.48,15.27 22.06,25.44 42.41,33.93l16.97 6.79 -13.57 33.93 -206.96 -84.82 13.57 -33.93 11.87 5.09c13.57,5.09 27.15,6.79 40.72,1.7 18.66,-6.79 35.63,-16.97 50.89,-32.24l385.09 -386.79 40.72 18.67zm-115.36 113.67l-171.34 171.34 173.04 71.25 -1.7 -242.59z"/>
   <path class="fil17" d="M6480.44 3161.11l55.98 -32.24 23.75 16.97 -128.93 196.78 -30.54 -22.06c30.54,-61.07 42.41,-115.35 35.63,-159.47 -6.79,-45.8 -25.45,-79.73 -59.37,-103.48 -35.63,-25.44 -78.04,-30.54 -127.24,-13.57 -49.19,16.97 -100.09,62.77 -152.68,137.41 -55.98,78.04 -84.82,145.89 -86.52,203.57 0,44.11 18.66,81.43 59.37,111.96 40.71,28.84 84.82,39.02 135.71,28.84 35.63,-6.79 72.95,-28.84 111.96,-66.16l28.84 20.36c-45.8,49.19 -98.4,78.04 -154.38,84.82 -57.68,6.79 -111.96,-8.48 -161.16,-44.11 -66.16,-47.5 -103.48,-110.27 -115.36,-188.3 -11.87,-78.04 10.18,-152.68 61.07,-225.63 57.68,-79.73 128.93,-125.54 213.75,-135.72 72.95,-10.18 137.41,6.79 196.79,49.2 23.75,16.96 42.41,35.63 55.98,57.68 15.28,22.06 27.15,49.2 37.33,83.13z"/>
   <path class="fil18" d="M6829.92 3405.4l334.2 388.49 -147.59 142.5 -22.06 -27.15c30.54,-37.32 50.89,-67.86 59.37,-91.61 8.48,-23.75 10.18,-45.8 5.09,-67.86 -5.09,-22.06 -18.66,-45.8 -39.02,-69.55l-52.59 -61.07c-8.48,-10.18 -15.27,-15.27 -23.75,-15.27 -6.79,-1.7 -13.57,1.7 -20.36,6.79l-154.38 134.02 18.66 20.36c20.35,23.75 44.1,37.32 67.86,37.32 25.45,1.7 54.28,-10.18 86.52,-33.93l23.75 27.15 -206.96 178.13 -23.75 -27.15c32.23,-32.24 50.89,-59.37 52.59,-84.82 1.7,-25.44 -6.79,-50.89 -30.54,-78.04l-15.27 -16.96 -164.56 142.5c-6.79,6.79 -10.18,13.57 -10.18,20.36 1.7,10.18 6.79,22.06 16.96,33.93l45.81 54.28c32.23,37.32 69.55,55.98 113.66,59.37 44.11,3.39 91.61,-13.57 144.2,-49.2l23.75 27.15 -174.74 139.11 -349.46 -403.76 28.83 -23.75 33.93 40.72c8.48,8.48 15.27,13.57 25.44,15.27 8.48,0 16.97,-1.7 25.45,-8.48l342.69 -295.19c6.79,-6.79 10.18,-13.57 10.18,-20.35 0,-8.48 -6.79,-16.97 -16.96,-30.54l-30.54 -35.63 23.76 -27.15z"/>
   <path class="fil19" d="M7510.19 4448.72l64.46 8.48 13.57 25.44 -178.13 98.4 -16.97 -32.24c42.41,-44.11 69.56,-88.22 78.04,-130.63 8.49,-42.41 5.09,-84.82 -15.27,-120.44 -16.96,-30.54 -39.02,-52.59 -66.16,-62.77 -27.15,-10.18 -52.59,-10.18 -76.34,3.39 -13.57,6.79 -25.45,18.66 -32.24,32.23 -6.79,13.57 -10.18,32.24 -10.18,52.59 1.7,22.06 8.48,55.98 22.06,103.48 16.96,55.98 25.44,95 27.15,118.75 3.39,37.33 -3.39,69.56 -16.97,96.7 -13.57,27.15 -37.32,49.2 -69.55,66.17 -47.5,25.44 -95,28.83 -140.8,11.87 -55.98,-22.06 -98.4,-61.07 -130.63,-120.44 -28.84,-54.28 -35.63,-113.67 -22.06,-178.13l-72.95 -13.57 -13.57 -25.44 191.7 -101.79 16.97 30.54c-93.31,89.91 -115.36,179.83 -64.46,274.82 20.36,39.02 45.8,62.77 74.64,74.64 28.84,11.88 55.98,10.18 83.13,-3.39 18.66,-10.18 32.23,-22.06 39.02,-39.02 6.79,-15.27 10.18,-35.63 6.79,-59.37 -1.7,-13.57 -8.48,-42.41 -22.06,-89.91 -18.66,-64.46 -27.15,-111.96 -25.45,-142.5 0,-32.23 6.79,-57.68 20.36,-79.73 13.57,-22.06 33.93,-40.72 62.77,-55.98 47.5,-25.44 95,-30.54 140.8,-13.57 47.5,15.27 84.82,50.89 111.96,103.49 25.44,50.87 32.24,106.85 20.36,167.93z"/>
   <path class="fil20" d="M7779.93 5191.76l61.07 20.36 8.48 27.15 -195.09 59.37 -10.18 -33.93c50.89,-33.93 86.52,-71.25 105.18,-111.96 18.66,-40.72 22.06,-81.43 10.18,-120.44 -10.18,-33.93 -27.15,-59.37 -50.89,-74.64 -23.75,-15.27 -49.19,-20.36 -74.64,-13.57 -15.27,5.09 -28.83,11.88 -39.02,23.75 -10.18,11.88 -16.96,28.84 -20.36,49.2 -3.39,22.06 -3.39,55.98 0,106.87 3.39,57.68 5.09,98.4 1.7,122.15 -5.09,37.32 -18.66,67.86 -37.32,91.61 -18.67,23.75 -47.5,40.72 -81.43,50.89 -52.59,15.27 -98.39,8.48 -140.8,-18.66 -49.19,-32.24 -83.13,-81.43 -101.79,-144.2 -16.96,-59.37 -11.87,-118.75 15.27,-178.13l-67.86 -28.84 -8.48 -28.84 210.36 -59.37 10.18 33.93c-110.26,67.86 -150.98,152.68 -122.14,254.46 11.88,42.41 30.54,71.25 55.98,89.91 25.45,16.96 52.59,22.06 81.43,13.57 20.36,-5.09 35.63,-15.27 45.81,-30.54 10.18,-13.57 16.96,-32.24 20.36,-55.98 1.7,-13.57 0,-44.1 -3.39,-93.3 -3.39,-66.17 -1.7,-115.36 5.09,-145.89 6.79,-30.54 18.66,-55.98 37.32,-74.64 18.67,-18.66 42.41,-32.24 72.95,-40.72 50.89,-15.27 98.4,-8.48 140.8,15.27 42.41,23.75 71.25,67.86 88.22,125.54 13.56,55.98 8.47,111.97 -16.97,169.64z"/>
   <path class="fil21" d="M4144.43 3233.1c-1472.52,0 -2666.82,1194.3 -2666.82,2668.52 0,1472.52 1194.3,2666.82 2666.82,2666.82 1472.52,0 2666.82,-1194.3 2666.82,-2666.82 0,-1474.22 -1194.3,-2668.52 -2666.82,-2668.52zm2366.55 1988.24c-20.36,441.07 -325.72,614.11 -888.94,673.49 -597.15,64.46 -888.94,435.99 -888.94,435.99 162.86,-536.08 291.79,-866.89 1038.22,-1061.98 500.46,-130.63 583.58,-332.51 583.58,-449.56 64.46,127.23 117.06,262.95 156.07,402.06zm-878.76 -1282.52c30.54,54.28 79.73,144.2 139.11,274.82 110.27,237.5 -83.13,385.09 -159.46,422.42 -76.34,37.32 -354.56,88.22 -554.74,39.02 -200.19,-49.19 -481.79,-57.68 -481.79,-57.68 -824.47,-44.11 -815.99,641.26 -815.99,641.26 -137.41,-142.5 -374.91,-914.39 108.57,-1287.61 388.49,-298.57 1129.83,-274.83 1409.75,-254.47 125.54,62.78 244.29,139.12 354.56,222.24zm-2205.39 -393.57c227.32,-69.55 468.22,-106.87 717.6,-106.87 320.63,0 627.69,61.07 909.3,173.04 -286.7,-20.36 -836.35,-28.84 -1177.34,173.04 -476.7,281.61 -475.01,938.14 -475.01,938.14 0,0 -57.68,252.77 322.33,793.94 380.01,541.17 18.66,921.17 18.66,921.17 0,0 -76.34,-223.93 -145.89,-317.24 -69.55,-95 -188.31,-290.09 -586.97,-539.47 -398.67,-249.38 -412.24,-508.93 -412.24,-508.93 -50.89,-941.53 446.18,-1352.07 829.57,-1526.81zm670.1 2459.85c451.25,771.88 -429.2,1313.05 -429.2,1313.05 154.38,-291.79 115.36,-639.56 115.36,-639.56 342.69,-264.65 313.85,-673.49 313.85,-673.49zm-1207.87 -2222.35c-802.42,756.61 -405.45,1584.48 -405.45,1584.48 0,0 117.06,244.29 398.67,407.15 281.61,162.86 493.67,403.76 493.67,403.76 -339.29,-259.56 -532.69,-234.11 -1133.23,-390.18 -327.42,-84.82 -434.29,-344.38 -464.83,-564.92 173.04,-609.03 576.79,-1123.06 1111.17,-1440.29zm-622.6 3725.4l28.83 28.84c-15.26,-13.57 -25.44,-23.75 -28.83,-28.84zm-583.58 -1608.23c0,-159.47 15.27,-315.54 44.11,-466.52 44.11,378.31 408.85,556.44 917.78,627.69 539.47,76.34 776.97,310.45 895.73,576.8 117.06,266.35 30.54,722.69 -442.78,1000.91 -340.98,200.18 -622.6,42.41 -754.92,-61.07 -408.84,-439.38 -659.92,-1028.06 -659.92,-1677.79zm1061.98 2025.56c469.92,-57.68 836.35,-264.65 1251.98,-632.78 432.59,-383.4 407.15,-973.76 407.15,-973.76 0,0 -13.57,-262.95 -149.29,-417.33 -135.71,-154.38 -281.61,-398.67 -281.61,-398.67 -191.7,-419.02 120.45,-622.6 120.45,-622.6 0,0 281.61,-198.48 663.31,-115.36 381.7,83.13 680.28,32.24 680.28,32.24 625.99,-110.27 444.47,-563.22 352.86,-729.48 190.01,171.34 354.56,371.52 483.49,593.76 6.79,293.48 -176.43,329.11 -307.06,371.52 -137.41,44.11 -475.01,137.41 -475.01,137.41 -963.58,337.59 -990.72,1621.8 -990.72,1621.8 -391.88,1002.6 -1140.01,1275.73 -1391.09,1341.89 -128.92,-59.36 -249.37,-128.92 -364.73,-208.65zm1399.57 435.99c-262.95,0 -515.72,-40.72 -753.22,-117.06 515.72,-191.7 748.13,-537.77 748.13,-537.77 111.97,227.32 464.83,505.54 575.1,588.67 -183.22,44.11 -373.22,66.16 -570.01,66.16zm870.28 -157.77c-429.2,-113.66 -754.92,-644.65 -754.92,-644.65 179.82,-203.57 281.61,-432.59 281.61,-432.59 201.88,683.67 788.85,790.55 995.81,804.12 -159.46,110.27 -335.89,201.88 -522.5,273.13zm871.98 -563.22c-154.38,69.55 -296.88,89.91 -296.88,89.91 -836.35,-50.89 -912.69,-834.65 -912.69,-834.65 0,0 30.54,-714.21 1012.78,-860.1 715.9,-105.18 846.53,-452.95 863.49,-634.47 33.93,161.16 50.89,327.42 50.89,498.76 1.7,680.28 -273.12,1294.39 -717.59,1740.56z"/>
   <path class="fil22" d="M2802.54 6419.03c-118.75,91.61 -296.88,57.68 -296.88,57.68 0,0 15.27,-179.83 134.02,-271.43 118.75,-91.61 296.88,-57.69 296.88,-57.69 0,0 -13.57,181.53 -134.02,271.44z"/>
   <path class="fil23" d="M2203.7 6290.1c-118.75,91.61 -296.88,57.68 -296.88,57.68 0,0 15.27,-179.83 134.02,-271.43 118.75,-91.61 296.88,-57.68 296.88,-57.68 0,0 -15.28,179.82 -134.02,271.43z"/>
   <path class="fil24" d="M2108.69 5131.43c-106.88,-96.7 -108.57,-271.43 -108.57,-271.43 0,0 174.74,-16.97 281.61,79.73 106.87,96.7 108.57,271.44 108.57,271.44 0,0 -173.04,16.96 -281.61,-79.73z"/>
   <path class="fil25" d="M3180.85 4264.54c-83.13,-101.79 -55.98,-259.56 -55.98,-259.56 0,0 161.16,5.09 242.59,106.88 83.13,101.78 55.98,259.56 55.98,259.56 0,0 -159.47,-5.09 -242.59,-106.88z"/>
   <path class="fil26" d="M2081.56 4815.89c-35.63,-32.24 -35.63,-91.61 -35.63,-91.61 0,0 57.68,-5.09 95,27.15 35.62,32.24 35.62,91.61 35.62,91.61 0,0 -57.68,5.09 -95,-27.15z"/>
   <path class="fil27" d="M2300.4 4483.38c-28.84,-39.02 -15.27,-96.7 -15.27,-96.7 0,0 57.68,6.79 86.52,45.8 28.84,39.02 15.27,96.7 15.27,96.7 0,0 -59.38,-6.78 -86.52,-45.81z"/>
   <path class="fil28" d="M3036.65 4308.65c-44.11,22.06 -98.4,0 -98.4,0 0,0 15.27,-55.98 59.37,-78.04 44.11,-22.06 98.4,0 98.4,0 0,0 -16.96,55.98 -59.37,78.04z"/>
   <path class="fil29" d="M3096.03 3940.52c-47.5,8.48 -93.31,-27.15 -93.31,-27.15 0,0 30.54,-49.19 78.04,-57.68 47.5,-8.48 93.31,27.15 93.31,27.15 0,0 -30.54,47.5 -78.04,57.68z"/>
   <path class="fil30" d="M4040.95 4059.27c-88.22,-15.27 -173.04,49.19 -173.04,49.19 0,0 57.68,91.61 145.89,106.88 88.22,15.27 173.04,-49.2 173.04,-49.2 0,0 -57.68,-89.91 -145.89,-106.87z"/>
   <path class="fil31" d="M4276.76 4254.36c-50.89,-5.09 -96.7,33.93 -96.7,33.93 0,0 35.63,49.2 86.52,54.29 50.89,5.09 96.7,-33.93 96.7,-33.93 0,0 -35.63,-49.19 -86.52,-54.28z"/>
   <path class="fil32" d="M4432.83 4088.11c-47.5,-15.27 -101.79,13.57 -101.79,13.57 0,0 25.44,55.98 72.95,71.25 47.5,15.27 101.79,-13.57 101.79,-13.57 0,0 -25.45,-55.98 -72.95,-71.25z"/>
   <path class="fil33" d="M4599.08 4030.43c-28.84,-18.66 -67.86,-8.48 -67.86,-8.48 0,0 5.09,40.72 33.93,59.37 28.84,18.66 67.86,8.48 67.86,8.48 0,0 -6.78,-40.71 -33.93,-59.37z"/>
   <path class="fil34" d="M4772.12 3957.48c-37.32,-28.84 -95,-20.36 -95,-20.36 0,0 3.39,57.68 42.41,88.22 37.32,28.84 95,20.36 95,20.36 0,0 -5.09,-59.38 -42.41,-88.22z"/>
   <path class="fil35" d="M5109.72 3943.91c-27.15,-22.06 -69.55,-15.27 -69.55,-15.27 0,0 3.39,42.41 30.54,64.46 27.15,22.05 69.55,15.27 69.55,15.27 0,0 -3.39,-42.41 -30.54,-64.46z"/>
   <path class="fil36" d="M5571.15 3967.66c-35.63,-1.7 -64.46,28.84 -64.46,28.84 0,0 27.15,32.23 62.77,33.93 35.63,1.7 64.46,-28.83 64.46,-28.83 0,0 -28.85,-32.24 -62.77,-33.93z"/>
   <path class="fil37" d="M5661.06 4105.07c-66.16,-37.32 -150.98,-8.48 -150.98,-8.48 0,0 20.35,88.22 86.52,125.54 66.17,37.32 150.98,8.48 150.98,8.48 0,0 -22.05,-88.22 -86.52,-125.54z"/>
   <path class="fil38" d="M5357.4 3965.96c-32.24,-40.72 -93.31,-45.8 -93.31,-45.8 0,0 -10.18,61.07 20.36,103.48 32.23,40.71 93.31,45.8 93.31,45.8 0,0 11.87,-62.77 -20.36,-103.48z"/>
   <path class="fil39" d="M4984.18 3994.8c-33.93,-47.5 -103.49,-55.98 -103.49,-55.98 0,0 -15.27,69.55 18.66,117.06 33.93,47.5 103.48,55.98 103.48,55.98 0,0 15.28,-69.56 -18.66,-117.06z"/>
   <path class="fil40" d="M2972.19 4203.46c-69.55,27.15 -150.98,-13.57 -150.98,-13.57 0,0 32.23,-84.82 103.48,-111.96 71.25,-27.15 150.98,13.57 150.98,13.57 0,0 -33.93,84.83 -103.49,111.96z"/>
   <path class="fil41" d="M2195.21 4748.02c-57.68,-76.34 -35.63,-190 -35.63,-190 0,0 115.36,10.18 171.34,86.52 57.68,76.34 35.63,190 35.63,190 0,0 -113.66,-10.18 -171.34,-86.52z"/>
   <path class="fil42" d="M2264.77 5477.5c-110.27,-35.63 -167.95,-161.16 -167.95,-161.16 0,0 120.44,-69.55 229.02,-33.93 108.57,35.63 167.95,161.16 167.95,161.16 0,0 -120.45,67.85 -229.02,33.93z"/>
   <path class="fil43" d="M1898.34 6037.33c-88.22,11.87 -171.34,-55.98 -171.34,-55.98 0,0 61.07,-89.91 149.29,-101.79 88.22,-11.88 171.34,55.98 171.34,55.98 0,0 -61.08,88.22 -149.29,101.79z"/>
   <path class="fil44" d="M2205.39 5677.69c-1.7,-42.41 33.93,-79.73 33.93,-79.73 0,0 40.71,32.23 42.41,76.34 1.7,42.41 -33.93,79.73 -33.93,79.73 0,0 -40.71,-33.93 -42.41,-76.34z"/>
   <path class="fil45" d="M1928.87 5426.61c18.66,-39.02 67.86,-54.28 67.86,-54.28 0,0 20.36,47.5 1.7,86.52 -18.66,39.02 -67.86,54.28 -67.86,54.28 0,0 -20.36,-47.5 -1.7,-86.52z"/>
   <path class="fil46" d="M1879.67 5255.27c30.54,-52.59 101.79,-67.86 101.79,-67.86 0,0 22.06,69.55 -8.48,122.14 -30.54,52.59 -101.79,67.86 -101.79,67.86 0,0 -22.06,-69.56 8.48,-122.15z"/>
   <path class="fil47" d="M2023.87 5547.05c3.39,-61.07 62.77,-106.87 62.77,-106.87 0,0 50.89,52.59 47.5,113.67 -3.39,61.07 -62.77,106.87 -62.77,106.87 0,0 -52.59,-52.59 -47.5,-113.67z"/>
   <path class="fil48" d="M2322.44 5689.56c-22.06,-83.13 33.93,-171.34 33.93,-171.34 0,0 91.61,47.5 115.35,130.62 23.75,83.12 -33.93,171.34 -33.93,171.34 0,0 -93.3,-47.5 -115.36,-130.63z"/>
   <path class="fil49" d="M2929.78 5301.07c10.18,-128.93 132.32,-223.93 132.32,-223.93 0,0 106.88,111.96 96.7,240.9 -10.18,128.93 -132.32,223.93 -132.32,223.93 0,0 -106.88,-111.97 -96.7,-240.9z"/>
   <path class="fil46" d="M3235.14 5597.94c-3.39,-100.09 81.43,-184.91 81.43,-184.91 0,0 91.61,78.04 96.7,178.13 3.39,100.09 -81.43,184.92 -81.43,184.92 0,0 -91.61,-79.73 -96.7,-178.13z"/>
   <path class="fil50" d="M3518.44 5843.93c11.87,-98.39 110.26,-167.95 110.26,-167.95 0,0 78.04,91.61 66.16,190 -11.87,98.4 -110.26,167.95 -110.26,167.95 0,0 -78.04,-89.91 -66.16,-190z"/>
   <path class="fil51" d="M2726.2 5004.19c52.59,-91.61 176.43,-118.76 176.43,-118.76 0,0 39.02,120.44 -13.57,212.06 -52.59,91.61 -176.43,118.75 -176.43,118.75 0,0 -39.02,-122.14 13.57,-212.05z"/>
   <path class="fil52" d="M2690.58 4714.1c64.46,-54.28 166.25,-40.72 166.25,-40.72 0,0 -3.39,101.79 -67.86,156.07 -64.46,54.28 -166.25,40.71 -166.25,40.71 0,0 3.4,-101.79 67.86,-156.07z"/>
   <path class="fil53" d="M2945.04 4647.94c28.84,-49.2 96.7,-64.46 96.7,-64.46 0,0 20.35,66.16 -8.48,115.36 -28.84,49.19 -96.7,64.46 -96.7,64.46 0,0 -20.35,-66.16 8.48,-115.35z"/>
   <path class="fil54" d="M3004.42 4888.83c28.84,-49.2 96.7,-64.46 96.7,-64.46 0,0 20.35,66.16 -8.48,115.36 -28.84,49.19 -96.7,64.46 -96.7,64.46 0,0 -20.35,-66.17 8.48,-115.36z"/>
   <path class="fil55" d="M3679.61 4561.42c54.28,-18.66 115.35,13.57 115.35,13.57 0,0 -27.14,64.46 -81.43,83.13 -54.28,18.66 -115.35,-13.57 -115.35,-13.57 0,0 27.14,-64.47 81.43,-83.13z"/>
   <path class="fil56" d="M4037.56 5063.56c39.02,-30.54 98.4,-22.06 98.4,-22.06 0,0 -3.39,59.37 -42.41,91.61 -39.02,30.54 -98.4,22.06 -98.4,22.06 0,0 3.4,-59.37 42.41,-91.61z"/>
   <path class="fil57" d="M3793.27 4785.35c1.7,-62.77 59.37,-110.27 59.37,-110.27 0,0 54.28,52.59 50.89,113.66 -3.39,61.07 -59.37,110.27 -59.37,110.27 0,0 -54.28,-50.89 -50.89,-113.66z"/>
   <path class="fil45" d="M3984.97 4532.58c54.28,-76.34 166.25,-89.91 166.25,-89.91 0,0 25.45,110.27 -28.84,186.61 -54.28,76.34 -166.25,89.91 -166.25,89.91 0,0 -25.45,-110.27 28.84,-186.61z"/>
   <path class="fil58" d="M4454.88 4388.38c55.98,-78.04 169.65,-93.3 169.65,-93.3 0,0 25.44,113.66 -30.54,191.7 -55.98,78.04 -169.65,93.3 -169.65,93.3 0,0 -23.75,-111.96 30.54,-191.7z"/>
   <path class="fil59" d="M4907.83 4371.41c95,-79.73 244.29,-61.07 244.29,-61.07 0,0 -5.09,150.98 -100.09,230.72 -95,79.73 -244.29,61.07 -244.29,61.07 0,0 5.09,-150.98 100.09,-230.72z"/>
   <path class="fil53" d="M5499.9 4422.31c45.81,-93.31 164.56,-128.93 164.56,-128.93 0,0 45.8,115.36 1.7,208.67 -45.8,93.31 -164.56,128.93 -164.56,128.93 0,0 -47.5,-115.35 -1.7,-208.66z"/>
   <path class="fil60" d="M4244.53 4464.72c28.84,-52.59 100.09,-69.55 100.09,-69.55 0,0 23.75,67.86 -5.09,120.44 -28.84,52.59 -100.09,69.55 -100.09,69.55 0,0 -23.75,-67.85 5.09,-120.44z"/>
   <path class="fil61" d="M4434.53 4793.83c52.59,20.35 76.34,83.13 76.34,83.13 0,0 -59.37,30.54 -111.96,10.18 -52.59,-20.36 -76.34,-83.13 -76.34,-83.13 0,0 61.07,-28.84 111.97,-10.18z"/>
   <path class="fil62" d="M4588.91 4973.65c33.93,20.36 40.71,67.86 40.71,67.86 0,0 -45.8,13.57 -78.04,-8.48 -32.24,-22.05 -40.72,-67.86 -40.72,-67.86 0,0 45.8,-11.87 78.04,8.48z"/>
   <path class="fil63" d="M5094.45 4868.48c66.16,54.28 71.25,157.77 71.25,157.77 0,0 -101.79,15.27 -169.65,-39.02 -66.16,-54.29 -71.25,-157.77 -71.25,-157.77 0,0 103.48,-15.28 169.65,39.02z"/>
   <path class="fil64" d="M4753.46 4846.42c62.77,55.98 64.46,156.07 64.46,156.07 0,0 -100.09,10.18 -162.86,-44.11 -62.77,-55.98 -64.46,-156.07 -64.46,-156.07 0,0 100.09,-11.88 162.86,44.11z"/>
   <path class="fil52" d="M5352.31 4882.05c37.32,47.5 25.45,118.75 25.45,118.75 0,0 -71.25,-5.09 -108.57,-52.59 -37.33,-47.5 -25.45,-118.75 -25.45,-118.75 0,0 71.25,5.09 108.57,52.59z"/>
   <path class="fil65" d="M5560.97 4826.06c52.59,28.84 69.55,98.4 69.55,98.4 0,0 -67.86,23.75 -120.44,-5.09 -52.59,-28.84 -69.56,-98.39 -69.56,-98.39 0,0 67.85,-22.06 120.45,5.09z"/>
   <path class="fil66" d="M5801.87 4748.02c42.41,22.06 57.68,78.04 57.68,78.04 0,0 -54.29,20.36 -96.7,-1.7 -42.41,-22.06 -57.68,-78.04 -57.68,-78.04 0,0 54.29,-20.35 96.7,1.7z"/>
   <path class="fil67" d="M5924.01 4573.3c62.77,-13.57 125.54,30.54 125.54,30.54 0,0 -39.02,66.16 -100.09,79.73 -62.77,13.57 -125.54,-30.54 -125.54,-30.54 0,0 37.32,-66.16 100.09,-79.73z"/>
   <path class="fil68" d="M5952.85 4476.6c32.24,-11.88 69.55,8.48 69.55,8.48 0,0 -16.96,39.02 -49.19,49.19 -32.24,11.88 -69.55,-8.48 -69.55,-8.48 0,0 16.96,-37.32 49.19,-49.19z"/>
   <path class="fil69" d="M5937.58 4364.63c18.66,-23.75 55.98,-25.44 55.98,-25.44 0,0 5.09,35.63 -15.27,59.37 -18.66,23.75 -55.98,25.44 -55.98,25.44 0,0 -3.39,-37.32 15.27,-59.37z"/>
   <path class="fil70" d="M4736.5 4242.49c42.41,-42.41 115.36,-39.02 115.36,-39.02 0,0 3.39,72.95 -39.02,115.35 -42.41,42.41 -115.35,39.02 -115.35,39.02 0,0 -3.4,-72.95 39.02,-115.35z"/>
   <path class="fil71" d="M5342.13 4254.36c42.41,-37.32 108.57,-30.54 108.57,-30.54 0,0 0,67.86 -42.41,105.18 -42.41,37.32 -108.57,30.54 -108.57,30.54 0,0 0,-67.85 42.41,-105.18z"/>
   <path class="fil72" d="M5228.46 4485.08c61.07,-50.89 156.07,-35.63 156.07,-35.63 0,0 -5.09,96.7 -66.16,145.89 -61.07,50.89 -156.07,35.62 -156.07,35.62 0,0 3.4,-95 66.16,-145.89z"/>
   <path class="fil73" d="M5661.06 4968.57c33.93,-39.02 96.7,-40.72 96.7,-40.72 0,0 6.79,62.77 -27.15,101.79 -33.93,39.02 -96.7,40.72 -96.7,40.72 0,0 -6.78,-62.77 27.15,-101.79z"/>
   <path class="fil74" d="M6008.83 4876.96c15.27,-50.89 71.25,-78.04 71.25,-78.04 0,0 32.24,54.29 18.66,103.49 -15.27,50.89 -71.25,78.04 -71.25,78.04 0,0 -33.93,-52.59 -18.66,-103.48z"/>
   <path class="fil75" d="M6119.1 4756.51c1.7,-72.95 67.86,-132.32 67.86,-132.32 0,0 64.46,61.07 62.77,134.02 -1.69,72.95 -67.86,132.32 -67.86,132.32 0,0 -64.46,-61.07 -62.77,-134.02z"/>
   <path class="fil76" d="M5835.8 4883.74c40.72,-62.77 130.63,-78.04 130.63,-78.04 0,0 23.75,88.22 -16.97,150.98 -40.71,62.77 -130.62,78.04 -130.62,78.04 0,0 -23.75,-88.22 16.96,-150.98z"/>
   <path class="fil77" d="M5019.8 4198.37c32.23,-22.06 78.04,-10.18 78.04,-10.18 0,0 -6.79,47.5 -40.71,67.86 -32.24,22.06 -78.04,10.18 -78.04,10.18 0,0 8.48,-45.8 40.72,-67.86z"/>
   <path class="fil78" d="M2782.19 4378.2c78.04,-49.2 186.61,-16.96 186.61,-16.96 0,0 -20.35,110.26 -100.09,157.77 -78.04,49.2 -186.61,16.97 -186.61,16.97 0,0 20.35,-108.57 100.09,-157.77z"/>
   <path class="fil79" d="M3257.19 4454.54c-98.39,-61.07 -232.41,-22.06 -232.41,-22.06 0,0 25.44,137.41 123.84,198.48 98.39,61.07 232.41,22.06 232.41,22.06 0,0 -25.45,-137.41 -123.84,-198.49z"/>
   <path class="fil80" d="M3852.65 4237.4c144.2,-42.41 298.57,50.89 298.57,50.89 0,0 -79.73,162.86 -223.93,205.27 -144.2,42.41 -298.57,-50.89 -298.57,-50.89 0,0 79.73,-162.87 223.93,-205.27z"/>
   <path class="fil81" d="M4078.27 5243.39c83.13,-100.09 240.9,-108.57 240.9,-108.57 0,0 22.06,156.07 -61.07,257.86 -83.13,101.79 -240.9,108.57 -240.9,108.57 0,0 -22.05,-156.07 61.07,-257.86z"/>
   <path class="fil82" d="M4444.7 5733.67c83.13,100.09 240.9,108.57 240.9,108.57 0,0 22.06,-156.07 -61.07,-257.86 -83.13,-100.09 -240.9,-108.57 -240.9,-108.57 0,0 -22.05,156.07 61.07,257.86z"/>
   <path class="fil83" d="M5029.98 6005.09c55.98,-13.57 91.61,-74.64 91.61,-74.64 0,0 -57.68,-40.72 -113.66,-27.15 -55.98,13.57 -91.61,74.64 -91.61,74.64 0,0 57.68,40.72 113.67,27.15z"/>
   <path class="fil84" d="M5141.94 5789.65c55.98,-13.57 91.61,-74.64 91.61,-74.64 0,0 -57.68,-40.72 -113.67,-27.15 -55.98,13.57 -91.61,74.64 -91.61,74.64 0,0 57.68,40.72 113.66,27.15z"/>
   <path class="fil85" d="M5372.67 5623.39c79.73,-5.09 140.8,-81.43 140.8,-81.43 0,0 -67.86,-69.56 -147.59,-66.16 -79.73,5.09 -140.8,81.43 -140.8,81.43 0,0 67.86,71.25 147.59,66.16z"/>
   <path class="fil86" d="M5613.56 5519.91c79.73,11.88 154.38,-49.19 154.38,-49.19 0,0 -52.59,-83.13 -130.62,-95 -78.04,-11.87 -154.38,49.19 -154.38,49.19 0,0 50.89,81.43 130.63,95z"/>
   <path class="fil87" d="M4614.35 5416.43c39.02,95 154.38,137.41 154.38,137.41 0,0 52.59,-111.97 13.57,-206.97 -39.02,-95 -154.38,-137.41 -154.38,-137.41 0,0 -52.59,111.96 -13.57,206.96z"/>
   <path class="fil88" d="M5391.32 5852.41c59.37,-83.13 32.24,-205.27 32.24,-205.27 0,0 -122.15,15.27 -181.52,100.09 -59.37,83.13 -32.23,205.27 -32.23,205.27 0,0 123.84,-16.96 181.52,-100.09z"/>
   <path class="fil89" d="M5847.67 5674.29c40.71,-95 -11.88,-206.96 -11.88,-206.96 0,0 -117.06,40.71 -156.07,135.71 -40.72,95 11.88,206.96 11.88,206.96 0,0 117.05,-40.71 156.07,-135.71z"/>
   <path class="fil86" d="M5622.04 5786.25c16.96,-64.46 -27.15,-130.63 -27.15,-130.63 0,0 -71.25,37.33 -86.52,100.09 -15.27,62.76 27.15,130.63 27.15,130.63 0,0 69.55,-37.32 86.52,-100.09z"/>
   <path class="fil90" d="M5981.69 5725.18c16.96,-64.46 -27.15,-130.63 -27.15,-130.63 0,0 -71.25,37.32 -86.52,100.09 -16.96,64.46 27.15,130.62 27.15,130.62 0,0 69.56,-35.62 86.52,-100.09z"/>
   <path class="fil91" d="M6134.37 5706.52c13.57,-52.59 -22.06,-106.87 -22.06,-106.87 0,0 -57.68,30.54 -71.25,81.43 -13.57,52.59 22.06,106.88 22.06,106.88 0,0 57.68,-30.54 71.25,-81.43z"/>
   <path class="fil92" d="M6076.69 5513.13c0,-54.28 -47.5,-96.7 -47.5,-96.7 0,0 -47.5,44.11 -47.5,96.7 0,54.28 47.5,96.7 47.5,96.7 0,0 47.5,-44.11 47.5,-96.7z"/>
   <path class="fil93" d="M6163.21 5433.39c0,-37.32 -33.93,-69.55 -33.93,-69.55 0,0 -33.93,30.54 -33.93,67.86 0,37.33 33.93,69.56 33.93,69.56 0,0 33.93,-28.85 33.93,-67.86z"/>
   <path class="fil94" d="M6271.78 5572.5c-5.09,-61.07 -62.77,-106.88 -62.77,-106.88 0,0 -50.89,54.29 -45.8,115.36 5.09,61.07 62.77,106.88 62.77,106.88 0,0 50.89,-54.29 45.81,-115.36z"/>
   <path class="fil49" d="M6390.54 5362.15c-32.24,-86.52 -135.71,-127.24 -135.71,-127.24 0,0 -50.89,98.4 -18.66,184.92 32.24,86.52 135.71,127.23 135.71,127.23 0,0 50.89,-100.09 18.66,-184.91z"/>
   <path class="fil95" d="M6463.48 5204.37c-30.54,-57.68 -108.57,-76.34 -108.57,-76.34 0,0 -27.15,74.64 5.09,132.32 30.54,57.68 108.57,76.34 108.57,76.34 0,0 25.44,-74.65 -5.09,-132.32z"/>
   <path class="fil96" d="M4858.64 5263.75c3.39,108.57 103.48,193.39 103.48,193.39 0,0 95,-91.61 91.61,-200.18 -3.39,-108.57 -103.49,-193.4 -103.49,-193.4 0,0 -95,91.61 -91.61,200.19z"/>
   <path class="fil97" d="M5143.65 5129.73c-25.45,69.55 16.96,149.29 16.96,149.29 0,0 83.13,-33.93 108.57,-105.18 25.45,-69.55 -16.96,-149.29 -16.96,-149.29 0,0 -83.13,35.63 -108.57,105.18z"/>
   <path class="fil98" d="M5428.65 5036.43c-23.75,42.41 -6.79,96.7 -6.79,96.7 0,0 55.98,-11.87 79.73,-54.28 23.75,-42.41 6.79,-96.7 6.79,-96.7 0,0 -55.98,11.87 -79.73,54.28z"/>
   <path class="fil99" d="M5778.11 5326.52c-32.23,-13.57 -71.25,3.39 -71.25,3.39 0,0 13.57,40.72 45.81,54.28 32.23,13.57 71.25,-3.39 71.25,-3.39 0,0 -13.57,-40.72 -45.8,-54.28z"/>
   <path class="fil100" d="M6136.07 5207.76c-37.32,-16.96 -81.43,3.39 -81.43,3.39 0,0 15.27,45.8 52.59,62.77 37.33,16.97 81.43,-3.39 81.43,-3.39 0,0 -15.27,-45.8 -52.59,-62.77z"/>
   <path class="fil101" d="M6265 5109.37c-39.02,-11.88 -81.43,11.88 -81.43,11.88 0,0 20.36,44.1 59.37,57.68 39.02,11.87 81.43,-11.88 81.43,-11.88 0,0 -20.36,-45.8 -59.37,-57.68z"/>
   <path class="fil102" d="M6358.3 4994.01c-30.54,0 -55.98,27.15 -55.98,27.15 0,0 23.75,27.15 54.28,28.84 30.54,0 55.98,-27.15 55.98,-27.15 0,0 -23.75,-28.84 -54.29,-28.84z"/>
   <path class="fil103" d="M5951.15 5280.71c-49.2,-28.83 -115.36,-8.48 -115.36,-8.48 0,0 13.57,67.86 62.77,96.7 49.19,28.83 115.35,8.48 115.35,8.48 0,0 -13.57,-67.86 -62.77,-96.7z"/>
   <path class="fil104" d="M4286.93 4887.14c88.22,18.66 144.2,113.66 144.2,113.66 0,0 -88.22,64.46 -178.13,45.8 -88.22,-18.66 -144.2,-113.66 -144.2,-113.66 0,0 88.22,-64.46 178.13,-45.8z"/>
   <path class="fil105" d="M3484.52 3821.76c-40.71,-95 -156.07,-135.71 -156.07,-135.71 0,0 -52.59,111.96 -11.88,206.96 40.72,95 156.07,135.71 156.07,135.71 0,0 50.89,-111.96 11.88,-206.96z"/>
   <path class="fil106" d="M3745.77 3736.94c-6.79,-108.57 -110.27,-190 -110.27,-190 0,0 -91.61,95 -84.82,203.57 6.79,108.57 110.26,190 110.26,190 0,0 91.61,-95 84.82,-203.57z"/>
   <path class="fil35" d="M4256.4 3850.61c-105.18,-25.44 -215.45,47.5 -215.45,47.5 0,0 62.77,115.35 169.65,140.8 105.18,25.44 215.45,-47.5 215.45,-47.5 0,0 -64.46,-115.35 -169.65,-140.8z"/>
   <path class="fil107" d="M3945.95 3635.16c1.7,-69.56 -57.68,-128.93 -57.68,-128.93 0,0 -64.46,54.28 -66.16,123.84 -1.7,69.56 57.68,128.93 57.68,128.93 0,0 64.47,-54.29 66.16,-123.84z"/>
   <path class="fil108" d="M4149.52 3616.5c37.32,-50.89 23.75,-127.23 23.75,-127.23 0,0 -76.34,6.79 -115.36,59.37 -37.32,50.89 -23.75,127.23 -23.75,127.23 0,0 78.04,-8.48 115.36,-59.37z"/>
   <path class="fil33" d="M4522.74 3840.43c55.98,32.23 71.25,106.87 71.25,106.87 0,0 -72.95,23.75 -128.93,-8.48 -55.98,-32.23 -71.25,-106.87 -71.25,-106.87 0,0 72.95,-23.76 128.93,8.48z"/>
   <path class="fil109" d="M4728.02 3762.39c71.25,35.63 96.7,127.23 96.7,127.23 0,0 -89.91,33.93 -161.16,-1.7 -71.25,-35.63 -96.7,-127.23 -96.7,-127.23 0,0 89.91,-33.93 161.16,1.7z"/>
   <path class="fil110" d="M4974 3823.46c39.02,45.81 30.54,117.06 30.54,117.06 0,0 -72.95,-1.7 -111.96,-47.5 -39.02,-45.81 -30.54,-117.06 -30.54,-117.06 0,0 72.95,3.39 111.96,47.5z"/>
   <path class="fil111" d="M5152.13 3774.27c54.28,44.11 61.07,128.93 61.07,128.93 0,0 -83.13,13.57 -139.11,-30.54 -55.98,-44.11 -61.07,-128.93 -61.07,-128.93 0,0 83.13,-13.58 139.11,30.54z"/>
   <path class="fil112" d="M5338.74 3808.19c35.63,35.63 32.24,95 32.24,95 0,0 -59.37,3.39 -95,-32.24 -35.63,-35.62 -32.23,-95 -32.23,-95 0,0 59.37,-1.69 95,32.23z"/>
   <path class="fil113" d="M4314.08 3579.17c30.54,-33.93 25.45,-86.52 25.45,-86.52 0,0 -54.28,0 -84.82,33.93 -30.54,33.93 -25.44,86.52 -25.44,86.52 0,0 54.28,0 84.82,-33.93z"/>
   <path class="fil114" d="M4459.97 3572.39c22.06,-25.45 18.66,-66.16 18.66,-66.16 0,0 -40.72,0 -62.77,25.44 -22.06,25.45 -18.66,66.16 -18.66,66.16 0,0 40.72,-1.69 62.77,-25.44z"/>
   <path class="fil115" d="M3323.35 4802.31c-66.16,-40.71 -156.07,-15.27 -156.07,-15.27 0,0 16.97,91.61 83.13,132.32 66.16,40.72 156.07,15.27 156.07,15.27 0,0 -16.97,-91.61 -83.13,-132.32z"/>
   <path class="fil116" d="M3364.07 5055.08c-74.64,-18.66 -152.68,32.24 -152.68,32.24 0,0 44.11,83.13 118.75,101.79 74.65,18.66 152.68,-32.24 152.68,-32.24 0,0 -44.11,-83.13 -118.75,-101.79z"/>
   <path class="fil117" d="M3287.73 5211.16c-52.59,-18.66 -111.96,11.87 -111.96,11.87 0,0 25.45,62.77 78.04,81.43 52.59,18.66 111.96,-11.88 111.96,-11.88 0,0 -25.45,-62.77 -78.04,-81.43z"/>
   <path class="fil118" d="M3484.52 5604.74c-16.96,52.59 15.27,111.96 15.27,111.96 0,0 61.07,-27.15 79.73,-79.73 18.66,-52.59 -15.27,-111.96 -15.27,-111.96 0,0 -62.76,27.14 -79.73,79.73z"/>
   <path class="fil119" d="M3494.69 5295.98c-74.64,-15.27 -149.29,37.32 -149.29,37.32 0,0 45.8,79.73 120.44,95 74.64,15.27 149.29,-37.33 149.29,-37.33 0,0 -45.81,-79.73 -120.45,-95z"/>
   <path class="fil120" d="M2522.63 5757.41c-6.79,-57.68 39.02,-108.57 39.02,-108.57 0,0 55.98,40.72 62.77,96.7 6.79,57.68 -39.02,108.57 -39.02,108.57 0,0 -54.29,-39.02 -62.77,-96.7z"/>
   <path class="fil121" d="M2654.95 5801.52c-23.75,-62.77 11.88,-134.02 11.88,-134.02 0,0 74.64,28.84 98.39,91.61 23.75,62.77 -11.88,134.02 -11.88,134.02 0,0 -74.65,-28.84 -98.39,-91.61z"/>
   <path class="fil122" d="M2522.63 6235.81c-61.07,59.37 -162.86,52.59 -162.86,52.59 0,0 -3.39,-101.79 57.69,-161.16 61.07,-59.37 162.86,-52.59 162.86,-52.59 0,0 3.39,101.79 -57.68,161.16z"/>
   <path class="fil123" d="M3131.65 6456.35c-76.34,37.32 -171.34,0 -171.34,0 0,0 28.84,-98.4 105.18,-135.71 76.34,-37.33 171.34,0 171.34,0 0,0 -28.84,96.69 -105.18,135.71z"/>
   <path class="fil124" d="M5465.97 6381.7c103.48,79.73 259.56,50.89 259.56,50.89 0,0 -13.57,-157.77 -117.06,-237.5 -103.48,-79.73 -259.56,-50.89 -259.56,-50.89 0,0 11.87,157.77 117.06,237.5z"/>
   <path class="fil125" d="M5162.3 6461.44c76.34,37.32 171.34,0 171.34,0 0,0 -28.84,-98.4 -105.18,-135.72 -76.34,-37.32 -171.34,0 -171.34,0 0,0 28.84,96.69 105.18,135.72z"/>
   <path class="fil126" d="M6075 6252.78c103.48,79.73 259.56,50.89 259.56,50.89 0,0 -13.57,-157.77 -117.06,-237.5 -103.48,-79.73 -259.56,-50.89 -259.56,-50.89 0,0 11.88,157.76 117.06,237.5z"/>
   <path class="fil127" d="M5778.11 6237.51c57.68,62.77 159.47,62.77 159.47,62.77 0,0 10.18,-101.79 -47.5,-164.56 -57.68,-62.77 -159.47,-62.77 -159.47,-62.77 0,0 -10.17,101.79 47.5,164.56z"/>
   <path class="fil128" d="M6400.71 6032.24c83.13,16.96 166.25,-44.11 166.25,-44.11 0,0 -52.59,-88.22 -135.72,-105.18 -83.13,-16.97 -166.25,44.11 -166.25,44.11 0,0 50.89,88.21 135.71,105.18z"/>
   <path class="fil129 str0" d="M6937.31 7525.16c13.93,9.06 27.85,18 41.69,26.89 13.89,8.82 28.1,17.65 42.58,26.56l-7.69 10.8c-28.18,-15.86 -50.28,-21.85 -66.29,-17.97 -15.95,3.81 -34.7,20.83 -56.13,50.9l-47.8 67.04 125.16 89.22 24.05 -33.74c14.52,-20.35 20.62,-35.31 18.37,-44.94 -2.3,-9.56 -13.33,-22.09 -33.04,-37.66l7.38 -10.35c13.86,10.53 25.74,19.43 35.52,26.73 9.77,7.29 17.29,12.87 22.61,16.67 7.2,5.13 15.93,11.13 26.3,18.2 10.37,7.06 22.44,15.24 36.42,24.56l-7.23 10.14c-25.71,-16.59 -43.99,-24.74 -54.76,-24.39 -10.78,0.35 -23.35,10.69 -37.77,30.91l-24.05 33.74 142.85 101.85 61.02 -85.6c21.28,-29.85 30.71,-53.72 28.16,-71.6 -2.55,-17.88 -17.47,-38.49 -44.95,-61.88l7.69 -10.79c17.03,15.07 32.09,28.19 45.39,39.19 13.33,11.13 25.86,21.26 37.67,30.55l-174.41 244.64 -13.81 -9.85c10.82,-15.18 15.75,-26.2 14.74,-33 -0.89,-6.82 -9.31,-15.85 -25.06,-27.09l-211.55 -150.82c-15.9,-11.33 -26.99,-16.31 -33.41,-14.92 -6.42,1.39 -15.23,9.65 -26.54,24.91l-14.24 -10.15c33.44,-46.9 63.6,-89.51 90.49,-127.84 26.84,-38.25 50.41,-71.91 70.63,-100.88z"/>
   <path class="fil130 str0" d="M6514.79 8037.94c12.55,-11.83 22.04,-20.84 28.54,-26.98 6.49,-6.14 11.69,-11.18 15.67,-15.33 6.17,-6.44 12.94,-13.9 20.39,-22.31 7.44,-8.4 16.16,-18.4 26.03,-29.98l12.45 12.29c-8.98,9.88 -14.43,17.49 -16.26,22.97 -1.94,5.48 -0.9,10.14 3.12,13.99 2.23,2.14 5.53,4.44 9.71,6.97 4.3,2.54 9.61,5.3 15.92,8.16l234.72 106.53 -119.97 -226.34c-2.02,-3.89 -4.41,-7.65 -7.12,-11.35 -2.77,-3.63 -5.26,-6.63 -7.81,-9.08 -5.11,-4.89 -10.64,-6.51 -16.48,-5.02 -5.9,1.57 -12.85,6.53 -20.8,14.83l-2.39 2.49 -12.63 -12.1c8.89,-8.01 16.24,-14.79 22,-20.16 5.82,-5.44 10.66,-10.11 14.51,-14.12 3.73,-3.89 7.93,-8.67 12.81,-14.4 4.87,-5.73 11.08,-13.11 18.57,-22.2l12.63 12.1c-7.83,10.22 -12.17,17.94 -13.12,23.27 -0.95,5.33 0.24,11.37 3.58,18.1l121.81 239.99c7.84,15.7 16.72,33.37 26.45,52.98 9.8,19.66 15.54,31.15 17.36,34.49l-7.76 5.17 -323.66 -139.73c-0.82,-0.3 -1.95,-0.77 -3.29,-1.43 -20.69,-9.3 -38.18,-6.49 -52.36,8.31l-12.63 -12.1z"/>
   <path class="fil131 str0" d="M6338.8 8191.44c40.85,-35.55 85.04,-50.57 132.5,-45.14 47.52,5.5 90.8,30.61 129.88,75.53 37.4,42.99 55.01,89.61 52.89,139.81 -2.18,50.25 -23.37,92.93 -63.7,128 -39.58,34.44 -83.06,49.07 -130.41,44.03 -47.43,-5.11 -89.84,-29.1 -127.24,-72.09 -38.74,-44.52 -57.48,-91.91 -56.18,-142.22 1.31,-50.31 22.06,-92.95 62.25,-127.92zm8.14 16.09c-27.86,24.24 -39.63,55.8 -35.44,94.66 4.18,38.86 24.14,78.76 59.68,119.61 36.24,41.65 73.17,67.14 110.9,76.46 37.69,9.26 70.98,1.37 99.91,-23.8 28.99,-25.22 41.49,-57.29 37.56,-96.13 -3.94,-38.85 -24,-79 -60.01,-120.39 -36.47,-41.92 -73.53,-67.28 -111.23,-76.17 -37.58,-8.87 -71.43,-0.27 -101.35,25.76z"/>
   <path class="fil132 str0" d="M5913.87 8510.72c15.6,-8.89 27.7,-15.87 36.44,-20.91 8.65,-4.99 15.65,-9.13 20.87,-12.46 8.42,-5.36 17.81,-11.67 28.08,-18.72 10.34,-7.11 22.3,-15.47 35.76,-25.09l9.4 14.75 -6.34 4.04c-16.54,10.54 -25.78,19.04 -27.57,25.43 -1.88,6.43 2.53,17.96 13.17,34.66l162.89 255.7 75.48 -48.08c30.62,-19.5 47.85,-38.33 51.73,-56.41 3.91,-18.2 -3.92,-45.79 -23.46,-82.88l13.85 -8.83c6.6,10.35 20.22,36.35 41.01,78.2 6.02,12.08 10.8,21.4 14.19,28.04 -19.61,12.29 -43.52,27.2 -71.76,44.87 -28.23,17.67 -45.56,28.6 -51.97,32.69 -23.84,15.19 -61.2,39.4 -112.08,72.66l-5.22 3.32 -9.11 -14.31c15.72,-10.01 24.43,-18.39 26.04,-25.06 1.73,-6.65 -2.69,-18.19 -13.08,-34.51l-139.63 -219.2c-10.44,-16.39 -18.91,-25.25 -25.33,-26.29 -6.47,-1.11 -17.73,3.24 -33.94,13.14l-9.4 -14.75z"/>
   <path class="fil133 str0" d="M5761.07 8838.31c14.02,30.99 23.13,53.05 27.43,66.22 4.2,13.14 6.67,24.81 7.37,35.16 1.82,25.46 -4.62,47.86 -19.37,67.13 -14.74,19.28 -38.54,36.34 -71.38,51.19 -27.2,12.31 -51.79,19.26 -73.72,20.94 -21.93,1.68 -40.65,-1.97 -56.11,-11.08 -10.63,-6.34 -20.11,-14.85 -28.26,-25.61 -8.13,-10.67 -17.8,-28.41 -28.98,-53.12l-4.81 -10.63 -71.46 -158c-8.01,-17.71 -15.14,-27.67 -21.26,-29.65 -6.17,-2.06 -18.01,0.69 -35.54,8.23l-7.46 -15.83c16.7,-6.59 29.6,-11.74 38.55,-15.3 8.96,-3.57 16.31,-6.6 22.03,-9.19 7.08,-3.2 15.51,-7.31 25.3,-12.22 9.8,-4.92 22.34,-11.27 37.51,-19.1l7.21 15.93c-17.3,7.83 -27.11,14.88 -29.54,21.31 -2.42,6.43 0.28,18.2 8.11,35.5l70.63 156.15c20.67,45.72 41.97,73.51 63.85,83.3 21.8,9.82 50.86,6.57 87,-9.78 35.9,-16.24 56.96,-36.34 63.28,-60.33 6.34,-23.91 -1.32,-59.71 -22.87,-107.36l-60.69 -134.17c-11.61,-25.67 -21.02,-40.04 -28.4,-43.29 -7.28,-3.21 -19.13,-1.14 -35.47,6.25l-7.21 -15.94c12.6,-4.73 23.08,-8.79 31.31,-12.02 8.31,-3.28 15.27,-6.13 20.9,-8.68 4.27,-1.93 9.59,-4.53 15.96,-7.8 6.37,-3.27 16.15,-8.46 29.39,-15.61l7.21 15.93c-16.34,7.39 -25.73,14.93 -28.11,22.51 -2.44,7.7 2.13,24.24 13.75,49.92l53.84 119.04z"/>
   <path class="fil134 str0" d="M5141.27 8858.87c52.11,-14.74 98.48,-9.51 139.1,15.63 40.65,25.22 69.09,66.39 85.3,123.68 15.51,54.83 11.57,104.51 -11.73,149.02 -23.39,44.53 -60.74,74.11 -112.17,88.66 -50.49,14.28 -96.05,9 -136.75,-15.75 -40.72,-24.84 -68.86,-64.62 -84.38,-119.44 -16.06,-56.78 -12.82,-107.64 9.8,-152.61 22.63,-44.96 59.57,-74.69 110.83,-89.19zm0.5 18.03c-35.53,10.05 -59.62,33.58 -72.41,70.52 -12.78,36.94 -11.73,81.54 3.02,133.64 15.03,53.13 37.57,91.92 67.73,116.44 30.15,24.43 63.63,31.49 100.52,21.05 36.98,-10.46 61.95,-34.14 74.94,-70.96 12.99,-36.82 11.96,-81.7 -2.98,-134.49 -15.12,-53.46 -37.83,-92.21 -68.16,-116.31 -30.21,-24.04 -64.5,-30.69 -102.67,-19.89z"/>
   <path class="fil135 str0" d="M4593.82 8988.16c17.01,-2.23 29.89,-3.98 38.66,-5.14 8.86,-1.18 16.11,-2.25 21.67,-3.27 8.87,-1.63 18.63,-3.7 29.33,-6.12 10.69,-2.42 23.52,-5.41 38.48,-9.06l3.17 17.2c-11.56,2.13 -19.41,4.83 -23.59,8.03 -4.17,3.19 -5.68,7.69 -4.61,13.51 0.31,1.65 0.77,3.18 1.36,4.43 0.61,1.32 1.37,2.53 2.18,3.55l103.09 123.75 42.21 -131.28c2.13,-5.96 3.43,-11.14 4.13,-15.58 0.71,-4.44 0.71,-8.3 0.12,-11.52 -1.18,-6.43 -4.35,-10.52 -9.51,-12.17 -5.15,-1.66 -14.17,-1.34 -27.03,1.02l-3.17 -17.2c11.8,-1.28 21.65,-2.46 29.37,-3.43 7.72,-0.97 14.2,-1.9 19.5,-2.87 5.21,-0.96 11.51,-2.39 18.81,-4.18 7.3,-1.8 16.67,-4.15 28.06,-7.15l3.17 17.2c-10.84,3.07 -18.34,6.25 -22.55,9.72 -4.23,3.38 -7.71,9.32 -10.54,17.93l-60.16 177.17 21.44 116.42c3.56,19.28 8.19,30.82 13.96,34.34 5.78,3.61 18.19,3.65 37.3,0.13l6.08 -1.12 3.07 16.68c-21.05,2.8 -36.64,4.95 -46.78,6.46 -10.06,1.49 -18.08,2.79 -23.99,3.88 -7.3,1.34 -16.74,3.26 -28.23,5.74 -11.49,2.47 -27.44,6.13 -48,10.99l-3.07 -16.69 6.17 -1.13c19.03,-3.5 30.58,-8.06 34.67,-13.66 4.11,-5.52 4.35,-17.87 0.86,-36.8l-20.5 -111.3 -117.87 -136.21 0 0c-17.11,-20.2 -34.56,-28.66 -52.55,-25.35l-1.56 0.28 -3.17 -17.2z"/>
   <path class="fil136 str0" d="M4371.56 9008.09c1.22,16.57 2.52,33.06 3.83,49.46 1.39,16.39 2.96,33.05 4.63,49.97l-13.24 0.41c-4.43,-32.04 -13.04,-53.24 -25.82,-63.63 -12.69,-10.39 -37.58,-15.01 -74.49,-13.88l-82.3 2.54 4.74 153.63 41.41 -1.27c24.99,-0.77 40.59,-4.96 46.9,-12.58 6.22,-7.61 9.52,-23.98 9.98,-49.09l12.71 -0.39c0.01,17.41 0.11,32.25 0.22,44.45 0.12,12.19 0.22,21.55 0.43,28.09 0.27,8.83 0.78,19.42 1.43,31.95 0.65,12.53 1.45,27.09 2.5,43.85l-12.45 0.38c-2.35,-30.51 -6.93,-49.98 -13.72,-58.35 -6.8,-8.37 -22.65,-12.12 -47.46,-11.35l-41.41 1.28 5.4 175.36 105.08 -3.24c36.64,-1.13 61.35,-8.07 74.04,-20.93 12.69,-12.85 20.06,-37.21 22.05,-73.24l13.24 -0.41c-1.69,22.67 -3.02,42.6 -3.72,59.86 -0.79,17.35 -1.27,33.44 -1.51,48.48l-300.3 9.26 -0.52 -16.96c18.63,-0.57 30.39,-3.32 35.19,-8.24 4.89,-4.83 6.99,-17 6.39,-36.34l-8 -259.69c-0.6,-19.52 -3.35,-31.37 -8.34,-35.63 -5,-4.26 -16.9,-6.28 -35.89,-6.05l-0.54 -17.48c57.57,-1.77 109.75,-3.56 156.54,-5.35 46.7,-1.79 87.75,-3.41 123.05,-4.85z"/>
   <path class="fil137 str0" d="M3694.22 8991.28c7.71,1.11 15.52,2.06 23.43,2.94 7.82,0.86 15.81,1.64 23.93,2.26l17.08 1.3c3.08,0.24 11.48,0.61 25.17,1.12 13.69,0.51 25.78,1.17 36.09,1.95 52.15,3.97 89.36,14.33 111.65,31.18 22.37,16.86 32.24,41.88 29.72,75.09 -2.22,29.16 -13.52,50.72 -34,64.84 -20.48,14.12 -49.96,20.83 -88.44,20.11 34.07,6.4 58.43,16.85 73.11,31.17 14.67,14.4 22.79,35.85 24.41,64.59 0.31,7.46 0.3,18.18 -0.15,32.15 -0.76,33.34 6.51,50.65 21.84,51.81 7.4,0.56 13.48,-1.37 18.43,-5.86 4.94,-4.41 9.14,-11.8 12.48,-22.09l10.89 3.67c-4.26,17.48 -11.61,30.3 -21.89,38.46 -10.28,8.17 -23.57,11.59 -39.77,10.35 -19.47,-1.48 -33.34,-7.76 -41.81,-18.78 -8.47,-11.01 -11.82,-27.48 -10.15,-49.41 0.44,-5.81 1.16,-12.85 2.05,-21.11 0.89,-8.26 1.39,-13.71 1.61,-16.53 2.53,-33.21 -2.46,-56 -14.9,-68.38 -12.43,-12.38 -36.49,-19.97 -72.25,-22.69l-32.24 -2.46 -9.18 120.67c-1.43,18.67 -0.11,30.56 4.01,35.75 4.13,5.09 15.99,8.65 35.51,10.67l-1.28 16.92c-21.07,-2.67 -35.81,-4.5 -44.24,-5.49 -8.43,-1 -14.93,-1.67 -19.6,-2.03 -6.52,-0.5 -15.08,-0.97 -25.59,-1.41 -10.51,-0.45 -25.44,-0.88 -44.81,-1.29l1.3 -17.17c18.59,1.41 30.57,-0.07 35.86,-4.36 5.38,-4.38 8.75,-16.08 10.22,-35.28l19.72 -259.15c1.48,-19.46 0.01,-31.54 -4.5,-36.31 -4.52,-4.77 -16.14,-8.05 -35.05,-9.75l1.33 -17.44zm77.75 186.65c2.2,0.17 5.54,0.51 9.76,1 13.96,1.6 23.1,2.56 27.6,2.9 32.85,2.5 57.33,-2.45 73.5,-14.78 16.18,-12.33 25.38,-33.07 27.59,-62.13 2.12,-27.84 -3.82,-48.85 -17.88,-63.03 -14.08,-14.1 -37.19,-22.41 -69.34,-24.86 -3.7,-0.28 -9.79,-0.57 -18.46,-0.78 -8.57,-0.21 -15.39,-0.37 -20.43,-0.58l-12.35 162.25z"/>
   <path class="fil138 str0" d="M3577.13 8968.45c-2.31,16.46 -4.52,32.85 -6.72,49.15 -2.11,16.32 -4.09,32.93 -6.03,49.82l-13.03 -2.4c2.43,-32.25 -1.49,-54.8 -11.79,-67.66 -10.21,-12.84 -33.56,-22.62 -69.88,-29.3l-80.97 -14.91 -27.83 151.17 40.75 7.51c24.59,4.53 40.72,3.72 48.5,-2.39 7.69,-6.13 14.36,-21.43 20.13,-45.88l12.5 2.31c-3.67,17.01 -6.7,31.55 -9.17,43.49 -2.47,11.94 -4.34,21.12 -5.52,27.55 -1.6,8.69 -3.35,19.15 -5.36,31.53 -2.01,12.38 -4.3,26.79 -6.82,43.39l-12.25 -2.25c4.15,-30.32 3.79,-50.33 -1.09,-59.94 -4.87,-9.61 -19.57,-16.63 -43.99,-21.13l-40.74 -7.5 -31.78 172.54 103.38 19.04c36.06,6.64 61.68,5.07 76.79,-4.81 15.12,-9.88 27.47,-32.13 37.02,-66.93l13.04 2.41c-6.44,21.8 -11.95,41 -16.29,57.72 -4.44,16.78 -8.31,32.42 -11.72,47.06l-295.47 -54.41 3.07 -16.69c18.33,3.37 30.4,3.18 36.13,-0.62 5.8,-3.69 10.43,-15.15 13.93,-34.18l47.05 -255.51c3.54,-19.2 3.35,-31.36 -0.62,-36.58 -3.98,-5.22 -15.19,-9.71 -33.81,-13.5l3.17 -17.21c56.64,10.44 108.02,19.71 154.13,27.85 46.02,8.12 86.49,15.21 121.3,21.26z"/>
   <path class="fil139 str0" d="M2870.57 8777.32c17.04,6.69 29.9,11.69 38.63,15.1 8.65,3.38 15.93,6.13 21.87,8.13 7.2,2.43 16.07,5.15 26.59,8.24 10.52,3.09 24.03,7 40.46,11.62l-5.6 16.57c-17.83,-6.02 -29.81,-7.56 -36.05,-4.54 -6.16,3.05 -12.29,13.47 -18.37,31.46l-34.95 103.44 178.27 60.22 34.94 -103.44c6.08,-17.99 7.58,-29.89 4.56,-35.85 -3.02,-5.96 -13.53,-12.12 -31.49,-18.56l5.35 -16.65c17.12,6.71 29.98,11.71 38.71,15.13 8.73,3.42 15.84,6.1 21.37,7.97 7.7,2.6 16.91,5.43 27.51,8.54 10.69,3.15 24.02,7 40.2,11.54l-5.6 16.57c-18.35,-5.83 -30.42,-7.39 -36.3,-4.62 -5.87,2.77 -11.93,13.22 -18.12,31.55l-83.15 246.14c-6.33,18.74 -7.87,31 -4.59,36.77 3.3,5.69 13.75,11.73 31.38,18.06l-5.43 16.07c-17.48,-7.03 -30.65,-12.22 -39.5,-15.58 -8.84,-3.36 -15.73,-5.88 -20.83,-7.6 -6.11,-2.06 -14.04,-4.55 -23.94,-7.52 -9.83,-2.95 -24.36,-7.11 -43.53,-12.47l5.51 -16.32c17.74,6 29.83,7.46 36.16,4.48 6.35,-3.08 12.52,-13.58 18.57,-31.49l42.61 -126.13 -178.27 -60.23 -42.61 126.13c-6,17.74 -7.69,29.67 -4.95,35.63 2.71,6.04 13.33,12.43 31.74,19.2l-5.43 16.07c-19.75,-7.8 -33.58,-13.21 -41.51,-16.26 -7.91,-3.05 -14.06,-5.31 -18.49,-6.81 -6.19,-2.09 -14.37,-4.67 -24.44,-7.7 -10.07,-3.04 -24.44,-7.15 -43.11,-12.33l5.52 -16.32c17.66,5.97 29.64,7.5 35.82,4.65 6.3,-2.91 12.48,-13.5 18.65,-31.75l83.16 -246.14c6.22,-18.41 7.81,-30.56 4.59,-36.22 -3.19,-5.74 -13.64,-11.79 -31.52,-18.2l5.59 -16.57z"/>
   <path class="fil140 str0" d="M2355.73 8524.77c14.97,8.56 26.36,15.02 34.12,19.45 7.76,4.43 14.1,7.93 19.23,10.53 7.96,4.03 16.99,8.3 26.96,12.85 9.97,4.56 22,9.94 36.11,16.1l-7.9 15.61c-12.06,-5.71 -20.86,-8.68 -26.63,-8.82 -5.65,-0.19 -9.81,2.17 -12.32,7.13 -2,3.94 -3.97,11.95 -5.96,23.91 -0.45,2.05 -0.77,3.86 -1.02,5.32l-42.52 247.89 169.61 -167.02 3.48 -25.86c2.49,-16.26 2.07,-27.57 -1.17,-33.67 -3.33,-6.13 -10.49,-11.94 -21.61,-17.57l7.9 -15.6c14.97,8.56 26.35,15.02 34.12,19.45 7.76,4.42 14.1,7.93 19.23,10.52 7.96,4.03 16.99,8.3 26.96,12.86 9.98,4.55 22,9.94 36.11,16.1l-7.9 15.61c-12.06,-5.71 -20.85,-8.68 -26.62,-8.83 -5.65,-0.19 -9.81,2.16 -12.32,7.13 -2,3.94 -3.97,11.95 -5.96,23.91 -0.37,2.28 -0.69,4.1 -0.94,5.37l-42.13 248.09 180.33 -178.43c2.98,-3.34 5.87,-6.72 8.46,-10.27 2.66,-3.5 4.85,-6.85 6.49,-10.08 3.19,-6.3 3.22,-12.03 0.09,-17.18 -3.06,-5.11 -9.91,-10.36 -20.39,-15.67l-2.76 -1.4 7.9 -15.61c10.24,6.18 18.71,11.16 25.45,15.07 6.74,3.91 12.44,7.09 17.25,9.53 4.81,2.43 10.6,5.07 17.5,8.06 6.9,3 15.77,6.8 26.65,11.32l-7.67 15.72c-12.22,-4.6 -20.94,-6.54 -26.32,-5.9 -5.37,0.64 -10.8,3.54 -16.28,8.69l-188.72 181.3c-3.26,3.5 -20.72,20.01 -52.28,49.48l-24.57 22.71 -5.78 -5.21 41.15 -288.79 -139.02 133.59c-9.09,8.96 -19.37,18.7 -30.76,29.28 -11.31,10.61 -25.92,24.2 -43.86,40.87l-6.26 -5.44 49.45 -345.28c2.49,-16.26 2.07,-27.57 -1.17,-33.66 -3.33,-6.14 -10.49,-11.94 -21.61,-17.57l7.9 -15.61z"/>
   <path class="fil141 str0" d="M2183.12 8398.78c-9.71,13.48 -19.31,26.96 -28.85,40.36 -9.47,13.45 -18.96,27.23 -28.56,41.27l-10.41 -8.2c17.19,-27.4 24.22,-49.18 21.1,-65.36 -3.05,-16.11 -19.15,-35.65 -48.17,-58.49l-64.69 -50.93 -95.09 120.76 32.56 25.63c19.64,15.46 34.29,22.28 44.02,20.49 9.66,-1.84 22.7,-12.26 39.19,-31.21l9.99 7.87c-11.18,13.34 -20.64,24.78 -28.39,34.2 -7.75,9.42 -13.69,16.66 -17.72,21.8 -5.47,6.94 -11.89,15.38 -19.44,25.4 -7.55,10.02 -16.3,21.69 -26.26,35.2l-9.79 -7.7c17.8,-24.89 26.8,-42.76 26.98,-53.53 0.16,-10.78 -9.57,-23.84 -29.07,-39.19l-32.56 -25.63 -108.53 137.85 82.59 65.03c28.8,22.68 52.2,33.24 70.18,31.54 17.98,-1.7 39.28,-15.62 63.95,-41.96l10.41 8.2c-15.86,16.3 -29.69,30.71 -41.31,43.48 -11.75,12.78 -22.46,24.81 -32.31,36.17l-236.05 -185.85 10.49 -13.33c14.65,11.53 25.42,16.98 32.26,16.29 6.85,-0.56 16.28,-8.54 28.25,-23.74l160.72 -204.13c12.08,-15.34 17.58,-26.19 16.5,-32.66 -1.08,-6.48 -8.91,-15.67 -23.61,-27.7l10.81 -13.74c45.26,35.63 86.39,67.79 123.39,96.47 36.93,28.64 69.43,53.77 97.4,75.35z"/>
   <path class="fil142 str0" d="M1666.24 7952.42c11.82,12.55 20.84,22.04 26.98,28.54 6.14,6.49 11.18,11.69 15.33,15.67 6.44,6.17 13.9,12.94 22.31,20.39 8.41,7.44 18.41,16.16 29.99,26.03l-12.29 12.45c-9.88,-8.98 -17.49,-14.43 -22.97,-16.26 -5.48,-1.94 -10.14,-0.9 -13.99,3.12 -2.14,2.24 -4.44,5.53 -6.97,9.71 -2.54,4.3 -5.3,9.61 -8.16,15.92l-106.53 234.72 226.34 -119.97c3.89,-2.02 7.65,-4.41 11.34,-7.12 3.63,-2.77 6.64,-5.26 9.08,-7.81 4.89,-5.11 6.52,-10.64 5.02,-16.48 -1.57,-5.9 -6.53,-12.85 -14.83,-20.8l-2.49 -2.39 12.1 -12.63c8.01,8.89 14.79,16.24 20.16,22 5.44,5.82 10.11,10.66 14.12,14.51 3.89,3.73 8.67,7.93 14.4,12.81 5.73,4.87 13.11,11.08 22.2,18.57l-12.1 12.63c-10.22,-7.83 -17.94,-12.17 -23.27,-13.12 -5.33,-0.95 -11.37,0.24 -18.1,3.58l-239.99 121.81c-15.7,7.84 -33.37,16.72 -52.98,26.45 -19.66,9.8 -31.15,15.54 -34.49,17.36l-5.17 -7.76 139.73 -323.66c0.3,-0.82 0.77,-1.95 1.43,-3.29 9.3,-20.69 6.48,-38.18 -8.31,-52.36l12.1 -12.63z"/>
   <path class="fil143 str0" d="M1532.86 7794.83c11.48,14.72 20.33,25.98 26.44,33.77 6.17,7.86 11.26,14.2 15.46,19.09 5.18,6.04 11.66,13.16 19.42,21.52 7.76,8.36 17.72,19.01 29.85,31.77l-13.27 11.39c-13.3,-15.48 -23.27,-23.56 -30.1,-24.33 -6.83,-0.77 -17.56,5.18 -32.17,17.72l-197.22 169.4c-15.14,13.01 -22.72,22.89 -22.79,29.59 -0.01,6.76 6.54,17.79 19.72,33.13l-12.87 11.06c-14.25,-18.5 -23.9,-30.94 -29.05,-37.35 -5.15,-6.41 -9.34,-11.43 -12.51,-15.11 -4.49,-5.23 -10.5,-11.94 -17.96,-20.09 -7.46,-8.15 -18.01,-19.35 -31.65,-33.6l12.87 -11.06c13.07,15.22 22.98,23.24 29.93,24.14 6.95,0.91 17.8,-5.04 32.54,-17.7l197.23 -169.39c15.01,-12.89 22.58,-22.65 22.65,-29.35 0.07,-6.7 -6.48,-17.72 -19.78,-33.2l13.27 -11.4z"/>
   <path class="fil144 str0" d="M1311.61 7501.02c9.73,15.09 17.37,26.79 22.88,35.23 5.46,8.37 9.98,15.13 13.58,20.15 5.82,8.11 12.63,17.15 20.25,27.01 7.67,9.93 16.67,21.41 27.02,34.32l-14.21 10.2 -4.38 -6.1c-11.43,-15.94 -20.43,-24.7 -26.91,-26.14 -6.52,-1.52 -17.8,3.52 -33.88,15.06l-246.35 176.72 52.16 72.72c21.17,29.5 40.92,45.67 59.18,48.54 18.39,2.9 45.5,-6.44 81.46,-28l9.58 13.35c-9.98,7.15 -35.18,22.19 -75.82,45.26 -11.73,6.67 -20.77,11.96 -27.21,15.71 -13.35,-18.91 -29.56,-41.96 -48.76,-69.18 -19.2,-27.22 -31.07,-43.92 -35.5,-50.09 -16.48,-22.98 -42.72,-58.94 -78.72,-107.91l-3.61 -5.02 13.78 -9.89c10.87,15.15 19.7,23.37 26.46,24.61 6.74,1.36 18.02,-3.69 33.73,-14.96l211.18 -151.49c15.79,-11.33 24.17,-20.27 24.85,-26.74 0.76,-6.52 -4.2,-17.53 -14.99,-33.17l14.21 -10.2z"/>
  </g>
 </g>
</svg>
